<svg width="279" height="161" viewBox="0 0 279 161" fill="none" xmlns="http://www.w3.org/2000/svg">
<path d="M112.509 70.2388C112.509 71.782 112.677 73.033 112.97 73.9511C113.342 74.9836 113.791 75.9875 114.311 76.9545C114.521 77.288 114.604 77.6215 114.604 77.9138C114.604 78.331 114.353 78.7482 113.808 79.1647L111.168 80.9172C110.791 81.167 110.414 81.2925 110.079 81.2925C109.659 81.2925 109.24 81.0839 108.821 80.7086C108.257 80.1045 107.752 79.4481 107.313 78.7482C106.844 77.9466 106.411 77.1254 106.013 76.2868C102.745 80.1247 98.6378 82.0432 93.693 82.0432C90.1731 82.0432 87.3653 81.0421 85.3117 79.0398C83.2588 77.0375 82.2109 74.3682 82.2109 71.0313C82.2109 67.4852 83.4683 64.6073 86.0245 62.4382C88.5807 60.2692 91.9751 59.1844 96.2912 59.1844C97.7161 59.1844 99.1831 59.3099 100.733 59.5185C102.284 59.7271 103.876 60.0606 105.553 60.436V57.3907C105.553 54.2205 104.882 52.0096 103.583 50.7168C102.242 49.4234 99.9793 48.7982 96.7524 48.7982C95.2854 48.7982 93.7771 48.965 92.2267 49.3404C90.6757 49.7157 89.1673 50.1747 87.7004 50.7587C87.2239 50.9709 86.7341 51.152 86.2341 51.3008C85.941 51.3845 85.7309 51.4263 85.5633 51.4263C84.9773 51.4263 84.683 51.0091 84.683 50.1329V48.0888C84.683 47.4218 84.7671 46.9209 84.9767 46.6292C85.1862 46.3376 85.5633 46.0453 86.15 45.753C87.6169 45.0023 89.3769 44.3771 91.4305 43.8762C93.4834 43.3335 95.6625 43.0837 97.9677 43.0837C102.955 43.0837 106.6 44.2097 108.947 46.4618C111.252 48.7146 112.425 52.1352 112.425 56.7237V70.2388H112.509ZM95.4956 76.5791C96.8779 76.5791 98.3028 76.3287 99.8118 75.8278C101.32 75.3275 102.661 74.4095 103.793 73.1585C104.463 72.366 104.966 71.4897 105.217 70.4886C105.469 69.4875 105.636 68.2777 105.636 66.86V65.1075C104.366 64.7999 103.079 64.5632 101.781 64.3987C100.475 64.2335 99.1588 64.1499 97.8416 64.1482C95.0338 64.1482 92.9809 64.691 91.598 65.817C90.2151 66.9431 89.5444 68.5282 89.5444 70.6141C89.5444 72.5746 90.0476 74.0341 91.0948 75.0353C92.1012 76.0782 93.5682 76.5791 95.4956 76.5791ZM129.146 81.0839C128.391 81.0839 127.888 80.9584 127.553 80.6668C127.218 80.4163 126.925 79.8324 126.674 79.0398L116.826 46.796C116.574 45.9616 116.448 45.4195 116.448 45.1272C116.448 44.4602 116.783 44.0842 117.454 44.0842H121.561C122.357 44.0842 122.902 44.2097 123.195 44.5014C123.53 44.7518 123.782 45.3358 124.033 46.1283L131.073 73.7425L137.611 46.1283C137.821 45.2939 138.072 44.7525 138.407 44.5014C138.742 44.2516 139.329 44.0848 140.083 44.0848H143.435C144.232 44.0848 144.777 44.2097 145.112 44.5014C145.447 44.7518 145.741 45.3358 145.908 46.1283L152.53 74.076L159.779 46.1283C160.031 45.2939 160.324 44.7525 160.617 44.5014C160.952 44.2516 161.498 44.0848 162.252 44.0848H166.149C166.819 44.0848 167.197 44.4183 167.197 45.1272C167.197 45.3364 167.154 45.5444 167.112 45.7948C167.071 46.0453 166.987 46.3781 166.819 46.8378L156.72 79.0817C156.469 79.9161 156.175 80.4582 155.84 80.7086C155.505 80.9584 154.96 81.1258 154.247 81.1258H150.643C149.847 81.1258 149.303 81.0003 148.968 80.7086C148.632 80.4163 148.339 79.8742 148.171 79.0398L141.676 52.1352L135.222 78.998C135.013 79.8324 134.761 80.3745 134.426 80.6668C134.09 80.9584 133.504 81.0839 132.75 81.0839H129.146ZM182.995 82.21C180.816 82.21 178.637 81.9596 176.542 81.4593C174.447 80.9584 172.812 80.4163 171.722 79.7905C171.052 79.4152 170.591 78.998 170.423 78.6226C170.26 78.2545 170.175 77.857 170.172 77.4547V75.3275C170.172 74.4513 170.507 74.0341 171.136 74.0341C171.387 74.0341 171.639 74.076 171.89 74.1597C172.141 74.2427 172.518 74.4095 172.938 74.5768C174.418 75.2246 175.963 75.7139 177.547 76.0364C179.189 76.3683 180.859 76.5361 182.534 76.5373C185.174 76.5373 187.227 76.0782 188.652 75.1608C190.077 74.2427 190.831 72.9081 190.831 71.1981C190.831 70.0302 190.454 69.0703 189.7 68.2777C188.946 67.4852 187.521 66.7763 185.467 66.1087L179.391 64.2319C176.332 63.2726 174.069 61.8543 172.686 59.9776C171.303 58.142 170.591 56.0973 170.591 53.9289C170.591 52.177 170.968 50.6338 171.722 49.2985C172.476 47.9639 173.482 46.796 174.74 45.8785C175.997 44.9186 177.422 44.2097 179.098 43.7088C180.774 43.208 182.534 43 184.378 43C185.3 43 186.264 43.0418 187.186 43.1668C188.15 43.2917 189.029 43.4584 189.91 43.6258C190.748 43.8344 191.544 44.043 192.298 44.2934C193.053 44.5432 193.639 44.7937 194.058 45.0441C194.645 45.3776 195.064 45.7111 195.316 46.0865C195.567 46.4206 195.693 46.879 195.693 47.4636V49.424C195.693 50.2996 195.358 50.7587 194.729 50.7587C194.393 50.7587 193.849 50.5919 193.137 50.2578C190.748 49.1736 188.066 48.6315 185.09 48.6315C182.702 48.6315 180.816 49.0068 179.517 49.7994C178.218 50.5919 177.547 51.8017 177.547 53.5117C177.547 54.6796 177.966 55.6807 178.805 56.4732C179.642 57.2658 181.193 58.0583 183.414 58.7672L189.365 60.6439C192.382 61.6039 194.561 62.9385 195.86 64.6491C197.159 66.3591 197.788 68.3196 197.788 70.4886C197.788 72.2823 197.411 73.9092 196.699 75.3275C195.944 76.7459 194.939 77.9968 193.639 78.998C192.34 80.041 190.789 80.7917 188.988 81.3344C187.102 81.9183 185.132 82.21 182.995 82.21Z" fill="white"/>
<path fill-rule="evenodd" clip-rule="evenodd" d="M190.915 102.483C177.127 112.619 157.096 118 139.873 118C115.735 118 93.9852 109.115 77.5583 94.3487C76.2589 93.1809 77.4328 91.5958 78.9832 92.5132C96.7516 102.774 118.669 108.99 141.34 108.99C156.635 108.99 173.44 105.82 188.903 99.3126C191.208 98.2696 193.177 100.814 190.915 102.483Z" fill="#FF9900"/>
<path fill-rule="evenodd" clip-rule="evenodd" d="M196.658 95.9754C194.898 93.7226 185.008 94.8905 180.524 95.4326C179.183 95.6 178.973 94.4315 180.189 93.5559C188.067 88.0499 201.016 89.635 202.525 91.4699C204.033 93.3473 202.106 106.237 194.73 112.41C193.598 113.369 192.509 112.869 193.012 111.618C194.688 107.488 198.417 98.1856 196.658 95.9754Z" fill="#FF9900"/>
</svg>
