<svg width="304" height="182" viewBox="0 0 304 182" fill="none" xmlns="http://www.w3.org/2000/svg">
<path d="M86.3996 66.4C86.3996 70.1 86.7996 73.1 87.4996 75.3C88.2996 77.5 89.2996 79.9 90.6996 82.5C91.1996 83.3 91.3996 84.1 91.3996 84.8C91.3996 85.8 90.7996 86.8 89.4996 87.8L83.1996 92C82.2996 92.6 81.3996 92.9 80.5996 92.9C79.5996 92.9 78.5996 92.4 77.5996 91.5C76.1996 90 74.9996 88.4 73.9996 86.8C72.9996 85.1 71.9996 83.2 70.8996 80.9C63.0996 90.1 53.2996 94.7 41.4996 94.7C33.0996 94.7 26.3996 92.3 21.4996 87.5C16.5996 82.7 14.0996 76.3 14.0996 68.3C14.0996 59.8 17.0996 52.9 23.1996 47.7C29.2996 42.5 37.3996 39.9 47.6996 39.9C51.0996 39.9 54.5996 40.2 58.2996 40.7C61.9996 41.2 65.7996 42 69.7996 42.9V35.6C69.7996 28 68.1996 22.7 65.0996 19.6C61.8996 16.5 56.4996 15 48.7996 15C45.2996 15 41.6996 15.4 37.9996 16.3C34.2996 17.2 30.6996 18.3 27.1996 19.7C25.5996 20.4 24.3996 20.8 23.6996 21C22.9996 21.2 22.4996 21.3 22.0996 21.3C20.6996 21.3 19.9996 20.3 19.9996 18.2V13.3C19.9996 11.7 20.1996 10.5 20.6996 9.79998C21.1996 9.09998 22.0996 8.39998 23.4996 7.69998C26.9996 5.89998 31.1996 4.39998 36.0996 3.19998C40.9996 1.89998 46.1996 1.29998 51.6996 1.29998C63.5996 1.29998 72.2996 3.99997 77.8996 9.39997C83.3996 14.8 86.1996 23 86.1996 34V66.4H86.3996ZM45.7996 81.6C49.0996 81.6 52.4996 81 56.0996 79.8C59.6996 78.6 62.8996 76.4 65.5996 73.4C67.1996 71.5 68.3996 69.4 68.9996 67C69.5996 64.6 69.9996 61.7 69.9996 58.3V54.1C67.0996 53.4 63.9996 52.8 60.7996 52.4C57.5996 52 54.4996 51.8 51.3996 51.8C44.6996 51.8 39.7996 53.1 36.4996 55.8C33.1996 58.5 31.5996 62.3 31.5996 67.3C31.5996 72 32.7996 75.5 35.2996 77.9C37.6996 80.4 41.1996 81.6 45.7996 81.6ZM126.1 92.4C124.3 92.4 123.1 92.1 122.3 91.4C121.5 90.8 120.8 89.4 120.2 87.5L96.6996 10.2C96.0996 8.19998 95.7996 6.89998 95.7996 6.19998C95.7996 4.59998 96.5996 3.69998 98.1996 3.69998H108C109.9 3.69998 111.2 3.99998 111.9 4.69998C112.7 5.29998 113.3 6.69998 113.9 8.59998L130.7 74.8L146.3 8.59998C146.8 6.59998 147.4 5.29998 148.2 4.69998C149 4.09998 150.4 3.69998 152.2 3.69998H160.2C162.1 3.69998 163.4 3.99998 164.2 4.69998C165 5.29998 165.7 6.69998 166.1 8.59998L181.9 75.6L199.2 8.59998C199.8 6.59998 200.5 5.29998 201.2 4.69998C202 4.09998 203.3 3.69998 205.1 3.69998H214.4C216 3.69998 216.9 4.49998 216.9 6.19998C216.9 6.69998 216.8 7.19998 216.7 7.79998C216.6 8.39998 216.4 9.19998 216 10.3L191.9 87.6C191.3 89.6 190.6 90.9 189.8 91.5C189 92.1 187.7 92.5 186 92.5H177.4C175.5 92.5 174.2 92.2 173.4 91.5C172.6 90.8 171.9 89.5 171.5 87.5L156 23L140.6 87.4C140.1 89.4 139.5 90.7 138.7 91.4C137.9 92.1 136.5 92.4 134.7 92.4H126.1ZM254.6 95.1C249.4 95.1 244.2 94.5 239.2 93.3C234.2 92.1 230.3 90.8 227.7 89.3C226.1 88.4 225 87.4 224.6 86.5C224.2 85.6 224 84.6 224 83.7V78.6C224 76.5 224.8 75.5 226.3 75.5C226.9 75.5 227.5 75.6 228.1 75.8C228.7 76 229.6 76.4 230.6 76.8C234 78.3 237.7 79.5 241.6 80.3C245.6 81.1 249.5 81.5 253.5 81.5C259.8 81.5 264.7 80.4 268.1 78.2C271.5 76 273.3 72.8 273.3 68.7C273.3 65.9 272.4 63.6 270.6 61.7C268.8 59.8 265.4 58.1 260.5 56.5L246 52C238.7 49.7 233.3 46.3 230 41.8C226.7 37.4 225 32.5 225 27.3C225 23.1 225.9 19.4 227.7 16.2C229.5 13 231.9 10.2 234.9 7.99998C237.9 5.69998 241.3 3.99998 245.3 2.79998C249.3 1.59998 253.5 1.09998 257.9 1.09998C260.1 1.09998 262.4 1.19998 264.6 1.49998C266.9 1.79998 269 2.19998 271.1 2.59998C273.1 3.09998 275 3.59998 276.8 4.19998C278.6 4.79998 280 5.39998 281 5.99998C282.4 6.79998 283.4 7.59998 284 8.49998C284.6 9.29998 284.9 10.4 284.9 11.8V16.5C284.9 18.6 284.1 19.7 282.6 19.7C281.8 19.7 280.5 19.3 278.8 18.5C273.1 15.9 266.7 14.6 259.6 14.6C253.9 14.6 249.4 15.5 246.3 17.4C243.2 19.3 241.6 22.2 241.6 26.3C241.6 29.1 242.6 31.5 244.6 33.4C246.6 35.3 250.3 37.2 255.6 38.9L269.8 43.4C277 45.7 282.2 48.9 285.3 53C288.4 57.1 289.9 61.8 289.9 67C289.9 71.3 289 75.2 287.3 78.6C285.5 82 283.1 85 280 87.4C276.9 89.9 273.2 91.7 268.9 93C264.4 94.4 259.7 95.1 254.6 95.1Z" fill="#F2F2F2"/>
<path fill-rule="evenodd" clip-rule="evenodd" d="M273.5 143.7C240.6 168 192.8 180.9 151.7 180.9C94.1 180.9 42.2 159.6 2.99999 124.2C-0.100014 121.4 2.69999 117.6 6.39999 119.8C48.8 144.4 101.1 159.3 155.2 159.3C191.7 159.3 231.8 151.7 268.7 136.1C274.2 133.6 278.9 139.7 273.5 143.7Z" fill="#FF9900"/>
<path fill-rule="evenodd" clip-rule="evenodd" d="M287.2 128.1C283 122.7 259.4 125.5 248.7 126.8C245.5 127.2 245 124.4 247.9 122.3C266.7 109.1 297.6 112.9 301.2 117.3C304.8 121.8 300.2 152.7 282.6 167.5C279.9 169.8 277.3 168.6 278.5 165.6C282.5 155.7 291.4 133.4 287.2 128.1Z" fill="#FF9900"/>
</svg>
