<svg width="279" height="279" viewBox="0 0 279 279" fill="none" xmlns="http://www.w3.org/2000/svg">
<path d="M162.914 113.11C162.914 117.749 161.538 122.284 158.961 126.141C156.383 129.998 152.72 133.004 148.434 134.779C144.149 136.555 139.433 137.019 134.883 136.114C130.333 135.209 126.154 132.975 122.874 129.695C119.593 126.415 117.36 122.236 116.455 117.686C115.55 113.136 116.014 108.42 117.789 104.134C119.565 99.8485 122.571 96.1854 126.428 93.6081C130.285 91.0309 134.82 89.6553 139.459 89.6553L139.459 94.5026C135.778 94.5026 132.181 95.5939 129.121 97.6385C126.061 99.6831 123.676 102.589 122.268 105.989C120.859 109.389 120.491 113.131 121.209 116.74C121.927 120.35 123.699 123.665 126.301 126.268C128.904 128.87 132.219 130.642 135.829 131.36C139.438 132.078 143.179 131.709 146.579 130.301C149.98 128.893 152.886 126.508 154.93 123.448C156.975 120.388 158.066 116.79 158.066 113.11H162.914Z" fill="white"/>
<rect x="136.754" y="110.978" width="52.8799" height="4.83311" rx="2.41655" fill="white"/>
<circle cx="194.751" cy="113.252" r="8.81332" fill="white"/>
<circle cx="194.755" cy="113.252" r="3.69591" fill="#F3BA2F"/>
<rect width="29.8516" height="4.83311" rx="2.41655" transform="matrix(-1 0 0 1 118.566 110.978)" fill="white"/>
<circle cx="8.81332" cy="8.81332" r="8.81332" transform="matrix(-1 0 0 1 92.4102 104.439)" fill="white"/>
<circle cx="3.69591" cy="3.69591" r="3.69591" transform="matrix(-1 0 0 1 87.2891 109.556)" fill="#F57329"/>
<rect x="136.758" y="94.4883" width="31.5574" height="4.83311" rx="2.41656" transform="rotate(-90 136.758 94.4883)" fill="white"/>
<circle cx="139.032" cy="57.8131" r="8.81332" transform="rotate(-90 139.032 57.8131)" fill="white"/>
<circle cx="139.036" cy="57.8134" r="3.69591" transform="rotate(-90 139.036 57.8134)" fill="#F84240"/>
<rect width="31.5574" height="4.83311" rx="2.41656" transform="matrix(0 1 1 0 136.758 132.016)" fill="white"/>
<circle cx="8.81332" cy="8.81332" r="8.81332" transform="matrix(0 1 1 0 130.219 159.877)" fill="white"/>
<circle cx="3.69591" cy="3.69591" r="3.69591" transform="matrix(0 1 1 0 135.34 164.995)" fill="#F6981A"/>
<rect x="124.5" y="101.644" width="22.4852" height="4.83311" rx="2.41656" transform="rotate(-136 124.5 101.644)" fill="white"/>
<circle cx="107.673" cy="81.6061" r="11.1969" transform="rotate(-136 107.673 81.6061)" fill="white"/>
<circle cx="107.512" cy="81.4445" r="5.85514" transform="rotate(-136 107.512 81.4445)" fill="#577591"/>
<rect width="22.4852" height="4.83311" rx="2.41656" transform="matrix(-0.71934 0.694658 0.694658 0.71934 124.5 124.75)" fill="white"/>
<circle cx="11.1969" cy="11.1969" r="11.1969" transform="matrix(-0.71934 0.694658 0.694658 0.71934 107.949 128.955)" fill="white"/>
<circle cx="5.85514" cy="5.85514" r="5.85514" transform="matrix(-0.71934 0.694658 0.694658 0.71934 107.406 136.119)" fill="#43AB8C"/>
<rect x="154.676" y="125.864" width="19.5399" height="4.83311" rx="2.41655" transform="rotate(44 154.676 125.864)" fill="white"/>
<circle cx="170.829" cy="144.462" r="10.8113" transform="rotate(44 170.829 144.462)" fill="white"/>
<circle cx="170.826" cy="144.268" r="5.62399" transform="rotate(44 170.826 144.268)" fill="#8DBF6D"/>
<path d="M141.841 194.782C139.766 195.418 137.691 197.244 136.751 199.236C136.198 200.425 136.17 200.979 136.087 210.356L136.004 220.259L136.695 220.951C137.525 221.781 137.94 221.808 138.908 221.062L139.628 220.508V213.178V205.875H141.287C142.698 205.875 143.086 205.764 143.639 205.183C144.469 204.381 144.524 203.689 143.777 202.887C143.307 202.389 142.892 202.279 141.426 202.279C139.379 202.279 139.24 202.057 140.209 200.37C140.983 199.014 141.868 198.406 143.556 198.157C145.105 197.908 145.713 197.355 145.713 196.193C145.713 194.754 143.998 194.146 141.841 194.782Z" fill="white"/>
<path d="M183.889 195.087C183.364 195.612 183.336 195.999 183.336 204.768C183.336 210.273 183.447 214.423 183.64 215.28C184.276 218.295 186.877 220.785 189.892 221.311C191.773 221.643 192.658 221.366 193.018 220.398C193.488 219.153 192.658 218.046 191.275 218.046C190.169 218.046 188.454 217.078 187.707 216.055C187.126 215.197 187.07 214.838 186.987 210.55L186.904 205.958L188.785 205.764C191.441 205.488 192.299 204.464 191.192 202.887C190.832 202.362 190.528 202.279 188.841 202.279H186.932V199.015C186.932 196.525 186.821 195.612 186.489 195.142C185.964 194.367 184.636 194.34 183.889 195.087Z" fill="white"/>
<path d="M61.3174 202.361C58.9661 203.025 56.7254 205.183 55.9508 207.506C55.2316 209.692 55.4529 215.501 56.3105 217.133C57.085 218.627 58.5511 220.093 60.0449 220.867C61.7047 221.753 65.4114 221.78 67.0712 220.895C68.2054 220.286 68.233 220.286 68.399 220.812C68.648 221.559 69.8375 221.836 70.7227 221.338L71.4419 220.923L71.5249 212.071C71.5802 202.527 71.5802 202.472 70.1417 202.14C69.5608 202.001 69.2289 202.112 68.6756 202.665L67.9564 203.385L66.8776 202.831C65.4668 202.112 62.9495 201.891 61.3174 202.361ZM65.4391 205.985C65.854 206.206 66.5733 206.759 67.0159 207.257C67.8458 208.115 67.8458 208.17 67.9287 211.628C68.0117 215.584 67.7351 216.414 65.9924 217.492C64.7475 218.239 62.4239 218.239 61.1791 217.465C59.4917 216.441 59.132 215.473 59.132 211.988C59.132 208.696 59.3533 207.921 60.5705 206.787C61.843 205.598 64.0007 205.238 65.4391 205.985Z" fill="white"/>
<path d="M80.9296 202.362C80.2104 202.583 79.4358 202.915 79.1869 203.109C78.8272 203.413 78.6613 203.385 78.1357 202.86C77.3335 202.141 76.4483 202.113 75.729 202.832C75.2034 203.358 75.1758 203.745 75.1758 211.961C75.1758 220.177 75.2034 220.564 75.729 221.089C76.4483 221.809 77.4441 221.781 78.108 221.062C78.5783 220.536 78.6336 219.872 78.7719 214.34C78.9102 208.78 78.9656 208.171 79.4635 207.479C81.3169 204.99 85.0513 204.99 86.9324 207.535C87.6239 208.475 87.6239 208.503 87.6239 214.34C87.6239 219.845 87.6516 220.232 88.2049 220.923C88.8411 221.726 89.7263 221.836 90.5562 221.255C91.0541 220.896 91.0818 220.398 91.2201 214.644C91.3584 208.863 91.4137 208.337 91.9393 207.618C92.9352 206.29 94.2076 205.598 95.7014 205.598C97.3612 205.598 98.4123 206.124 99.4359 207.452L100.21 208.448L100.349 214.699L100.487 220.923L101.262 221.366C101.925 221.726 102.091 221.726 102.783 221.366L103.53 220.923L103.613 214.478C103.668 208.697 103.613 207.922 103.17 206.871C101.013 202.002 94.5119 200.453 90.6392 203.883L89.4497 204.962L88.5921 204.132C86.8494 202.39 83.5575 201.643 80.9296 202.362Z" fill="white"/>
<path d="M112.524 202.362C110.809 202.832 109.398 203.745 108.375 205.045C106.908 206.898 106.715 207.7 106.715 211.905C106.715 215.446 106.77 215.833 107.434 217.161C109.785 221.919 116.231 223.109 119.993 219.457C121.597 217.936 121.846 216.746 120.767 215.999C119.827 215.335 119.08 215.474 118.167 216.414C117.725 216.884 117.033 217.438 116.618 217.659C115.65 218.157 113.548 218.157 112.524 217.631C111.5 217.106 110.422 215.667 110.173 214.533L110.007 213.648L115.263 213.565L120.518 213.482L121.376 212.652C124.059 210.079 122.151 204.685 117.891 202.804C116.369 202.113 114.045 201.919 112.524 202.362ZM117.171 206.345C118.001 206.981 118.748 208.143 119.025 209.25L119.218 210.024H114.626C111.141 210.024 110.034 209.941 110.034 209.665C110.062 208.392 111.611 206.373 113.077 205.792C113.907 205.432 116.424 205.764 117.171 206.345Z" fill="white"/>
<path d="M152.628 202.251C150.498 202.943 148.451 204.741 147.538 206.705C147.04 207.783 146.957 208.475 146.957 211.684C146.957 215.031 147.04 215.584 147.621 216.857C148.368 218.544 149.945 220.066 151.77 220.896C153.513 221.725 156.473 221.698 158.105 220.896L159.295 220.315L159.986 221.006C160.512 221.532 160.844 221.642 161.425 221.504C162.863 221.172 162.863 221.089 162.863 211.684C162.863 203.551 162.835 202.887 162.365 202.472C161.48 201.67 159.544 202.113 159.544 203.136C159.544 203.274 159.046 203.108 158.409 202.777C157.165 202.14 153.873 201.836 152.628 202.251ZM157.358 206.234C158.907 207.258 159.544 208.89 159.544 211.795C159.544 214.948 158.963 216.331 157.165 217.382C155.062 218.627 152.656 218.074 151.134 215.999C150.636 215.363 150.526 214.754 150.47 212.099C150.387 209.222 150.415 208.835 150.996 207.811C151.881 206.234 152.987 205.598 154.869 205.598C156.03 205.598 156.667 205.764 157.358 206.234Z" fill="white"/>
<path d="M171.443 202.251C169.23 202.97 167.1 205.017 166.519 206.926C166.326 207.534 166.188 209.747 166.188 211.988C166.188 215.584 166.27 216.11 166.851 217.355C167.543 218.904 168.981 220.314 170.558 220.978C171.886 221.587 174.874 221.587 176.174 221.034C177.64 220.397 179.466 218.627 180.074 217.299C180.544 216.22 180.572 216.054 180.157 215.28C179.797 214.588 179.549 214.45 178.774 214.45C177.75 214.45 177.529 214.644 176.672 216.054C175.565 217.908 173.269 218.572 171.526 217.493C170.005 216.58 169.701 215.805 169.562 212.569C169.424 208.917 169.728 207.59 171.028 206.455C172.854 204.851 175.842 205.515 176.893 207.728C177.723 209.498 179.41 209.664 180.212 208.088C180.849 206.787 179.078 203.993 176.893 202.859C175.51 202.168 172.661 201.836 171.443 202.251Z" fill="white"/>
<path d="M200.877 202.334C199.245 202.859 197.364 204.547 196.478 206.29C195.676 207.866 195.648 208.032 195.648 211.656C195.648 214.865 195.731 215.612 196.229 216.663C197.004 218.35 198.083 219.568 199.577 220.453C201.264 221.449 204.583 221.67 206.492 220.951C208.207 220.287 210.116 218.516 210.891 216.801C211.471 215.557 211.554 215.031 211.554 211.684C211.554 208.337 211.471 207.811 210.891 206.566C210.088 204.879 208.512 203.33 206.852 202.583C205.469 201.947 202.426 201.836 200.877 202.334ZM204.888 205.598C206.16 205.958 207.626 207.396 207.958 208.641C208.456 210.411 208.29 214.146 207.682 215.391C206.16 218.516 201.9 218.876 199.881 216.054C199.328 215.28 199.217 214.727 199.162 212.431C199.106 210.937 199.134 209.305 199.217 208.807C199.466 207.562 200.711 206.207 202.011 205.736C203.366 205.266 203.698 205.238 204.888 205.598Z" fill="white"/>
<path d="M215.341 202.5C214.926 202.943 214.871 204.021 214.871 211.739C214.871 219.817 214.899 220.481 215.369 220.896C216.005 221.476 217.084 221.504 217.776 220.979C218.274 220.619 218.301 220.176 218.329 214.699C218.329 209.25 218.384 208.696 218.91 207.811C219.629 206.566 220.902 205.736 222.395 205.488C224.415 205.156 225.079 203.994 224.11 202.583C223.695 202.002 223.474 201.947 222.091 202.057C221.233 202.113 220.072 202.389 219.491 202.666C218.467 203.164 218.44 203.164 217.886 202.583C217.222 201.864 215.95 201.836 215.341 202.5Z" fill="white"/>
<path d="M227.319 202.556C227.015 202.86 226.766 203.358 226.766 203.69C226.766 203.994 228.066 207.673 229.67 211.85C231.275 216.027 232.575 219.54 232.575 219.651C232.575 219.789 231.966 221.477 231.192 223.413C230.445 225.35 229.809 227.231 229.809 227.563C229.809 228.835 231.579 229.582 232.63 228.78C233.266 228.282 242.312 204.326 242.201 203.441C242.146 202.998 241.814 202.556 241.371 202.279C240.68 201.919 240.514 201.919 239.85 202.279C239.214 202.639 238.744 203.607 236.862 208.586C235.645 211.823 234.594 214.45 234.511 214.45C234.428 214.45 233.377 211.823 232.187 208.614C230.002 202.832 229.532 202.002 228.37 202.002C228.093 202.002 227.623 202.251 227.319 202.556Z" fill="white"/>
<path d="M42.0627 202.832C40.071 203.634 37.9963 205.93 37.3877 208.005C36.7238 210.329 36.9451 215.501 37.8027 217.3C39.6837 221.2 44.4417 222.915 48.4528 221.117L49.7252 220.564V221.338C49.7252 224.022 47.7889 226.069 45.1886 226.069C43.7501 226.069 42.9203 225.792 42.0074 224.99C41.1775 224.27 40.2093 224.243 39.4901 224.962C38.6879 225.764 38.7985 226.677 39.8497 227.645C41.4541 229.194 42.4223 229.526 45.1609 229.526C47.3739 229.526 47.7889 229.443 48.923 228.779C50.4445 227.867 51.8276 226.373 52.5192 224.851C52.9894 223.8 53.0448 222.832 53.0448 213.454C53.0448 203.855 53.0171 203.164 52.5468 202.749C51.7999 202.057 50.6658 202.168 50.0849 202.943L49.5869 203.607L48.4804 203.026C46.8483 202.196 43.9161 202.113 42.0627 202.832ZM47.5122 206.511C49.1997 207.645 49.5869 208.669 49.5869 212.099C49.5869 215.529 49.2826 216.442 47.7335 217.521C46.4057 218.489 44.0821 218.572 42.8096 217.714C40.9562 216.442 40.5966 215.584 40.5966 212.182C40.5966 208.918 40.8179 208.199 42.1734 206.954C43.1692 206.041 43.4458 205.93 45.1886 205.903C46.2121 205.875 46.8483 206.041 47.5122 206.511Z" fill="white"/>
</svg>
