<svg width="279" height="161" viewBox="0 0 279 161" fill="none" xmlns="http://www.w3.org/2000/svg">
<g clip-path="url(#clip0_435_376)">
<path d="M72.8753 77.8311V105.814C72.8753 106.009 72.8267 106.35 72.5833 106.447C72.5833 106.447 66.5 110.786 56.4747 110.786C44.3567 110.786 30 106.984 30 81.9261C30 56.8686 42.556 51.7011 54.82 51.7499C65.4293 51.7499 69.712 54.1386 70.3933 54.5774C70.588 54.8211 70.6853 55.0161 70.6853 55.2599L68.6413 63.9374C68.6413 64.3761 68.2033 64.9124 67.668 64.7661C65.916 64.2299 63.288 63.1574 57.1073 63.1574C49.9533 63.1574 42.264 65.2048 42.264 81.3411C42.264 97.4773 49.564 99.3786 54.82 99.3786C59.2973 99.3786 60.9033 98.8424 60.9033 98.8424V87.6298H53.7493C53.214 87.6298 52.8247 87.2398 52.8247 86.8011V77.8311C52.8247 77.3924 53.214 77.0024 53.7493 77.0024H71.9507C72.486 77.0024 72.8753 77.3924 72.8753 77.8311ZM247.345 89.1899C247.345 105.911 241.943 110.689 232.502 110.689C224.521 110.689 220.238 106.642 220.238 106.642C220.238 106.642 220.043 108.885 219.8 109.177C219.654 109.47 219.411 109.567 219.119 109.567H211.916C211.429 109.567 210.991 109.177 210.991 108.739L211.089 54.5774C211.089 54.1386 211.478 53.7486 211.916 53.7486H222.282C222.72 53.7486 223.109 54.1386 223.109 54.5774V72.9561C223.109 72.9561 227.1 70.3724 232.94 70.3724L232.891 70.2749C238.731 70.2749 247.345 72.4686 247.345 89.1899ZM164.709 53.8461C165.147 53.8461 165.537 54.2361 165.537 54.6749V108.836C165.537 109.275 165.147 109.665 164.709 109.665H154.343C153.905 109.665 153.516 109.275 153.516 108.836L153.613 85.6799H137.505V108.836C137.505 109.275 137.115 109.665 136.677 109.665H126.311C125.922 109.665 125.484 109.275 125.484 108.836V54.6749C125.484 54.2361 125.873 53.8461 126.311 53.8461H136.677C137.115 53.8461 137.505 54.2361 137.505 54.6749V74.6136H153.613V54.6749C153.613 54.2361 154.003 53.8461 154.441 53.8461H164.709ZM204.908 71.5911C205.443 71.5911 205.833 71.9811 205.833 72.4198L205.735 108.836C205.735 109.275 205.443 109.665 204.908 109.665H198.387C198.046 109.665 197.705 109.47 197.608 109.226C197.462 108.934 197.219 107.032 197.219 107.032C197.219 107.032 191.719 110.786 184.955 110.786C176.73 110.786 170.744 108.105 170.744 97.3798V72.4686C170.744 72.0299 171.133 71.6399 171.571 71.6399H181.986C182.424 71.6399 182.813 72.0299 182.813 72.4686V95.6249C182.813 99.2811 183.884 100.939 187.534 100.939C191.184 100.939 193.861 99.0374 193.861 99.0374V72.5174C193.861 71.9811 194.153 71.5911 194.688 71.5911H204.908ZM120.199 100.7H120.223C120.422 100.741 120.6 100.851 120.725 101.011C120.851 101.17 120.916 101.369 120.909 101.572V108.885C120.909 109.226 120.763 109.567 120.471 109.665C119.985 109.909 116.87 110.737 114.291 110.737C108.645 110.737 100.372 109.519 100.372 97.6236V81.6336H94.97C94.532 81.6336 94.1427 81.2436 94.1427 80.7074V74.0774C94.1427 73.6874 94.386 73.3461 94.7753 73.2486C95.116 73.1999 100.421 71.8836 100.421 71.8836V61.3049C100.421 60.9149 100.664 60.6711 101.102 60.6711H111.614C112.052 60.6711 112.295 60.9149 112.295 61.3049V71.5911H120.033C120.423 71.5911 120.812 71.9811 120.812 72.4198V80.7074C120.812 81.2436 120.471 81.6336 120.033 81.6336H112.295V96.8972C112.295 99.1885 113.609 100.943 117.405 100.943C118.607 100.943 119.746 100.705 120.199 100.7ZM89.568 71.5424C90.006 71.5424 90.3953 71.9324 90.3953 72.3711V108.3C90.3953 109.177 90.152 109.616 89.1787 109.616H79.8347C79.0073 109.616 78.3747 109.275 78.3747 108.3V72.5174C78.3747 71.9811 78.764 71.5424 79.202 71.5424H89.568ZM235.519 89.9699C235.519 81.1461 231.967 79.9761 228.219 80.3661C225.299 80.5611 222.963 82.0236 222.963 82.0236V99.1836C222.963 99.1836 225.348 100.841 228.901 100.939C233.913 101.085 235.519 99.2811 235.519 89.9699ZM84.458 55.0649C88.108 55.0649 91.0767 58.0386 91.0767 61.7924C91.0767 65.5461 88.108 68.5199 84.458 68.5199C80.7107 68.5199 77.742 65.5461 77.742 61.7924C77.742 58.0386 80.7107 55.0649 84.458 55.0649ZM120.179 100.646V100.651L120.228 100.7H120.223L120.199 100.695V100.7C120.155 100.695 120.126 100.646 120.082 100.646H120.179Z" fill="white"/>
</g>
<defs>
<clipPath id="clip0_435_376">
<rect width="219" height="78" fill="white" transform="translate(30 42)"/>
</clipPath>
</defs>
</svg>
