<svg width="279" height="161" viewBox="0 0 279 161" fill="none" xmlns="http://www.w3.org/2000/svg">
<path d="M65.2227 34.7097C65.2227 25.4971 72.9417 18.0318 82.1537 18.0318C87.2362 18.0318 90.8575 20.0331 93.5893 22.6381L90.3492 25.8466C88.4115 24.0041 85.775 22.5745 82.1537 22.5745C75.4512 22.5745 70.2099 27.975 70.2099 34.678C70.2099 41.3809 75.4512 46.7814 82.1537 46.7814C86.5056 46.7814 88.9833 45.0342 90.5716 43.4458C91.874 42.1434 92.7317 40.2691 93.0493 37.7277H82.1537V33.1849H97.4965C97.6553 34.0109 97.7506 34.9639 97.7506 36.044C97.7506 39.4749 96.8294 43.7 93.8117 46.6861C90.8575 49.7358 87.1091 51.356 82.1537 51.356C72.9417 51.356 65.2227 43.8906 65.2227 34.7097Z" fill="#4285F4"/>
<path d="M110.108 29.9128C104.168 29.9128 99.3398 34.4238 99.3398 40.6503C99.3398 46.8449 104.168 51.3877 110.108 51.3877C116.049 51.3877 120.877 46.8449 120.877 40.6503C120.877 34.4238 116.049 29.9128 110.108 29.9128ZM110.108 47.1308C106.868 47.1308 104.041 44.4624 104.041 40.6185C104.041 36.7428 106.837 34.1061 110.108 34.1061C113.348 34.1061 116.176 36.7428 116.176 40.6185C116.176 44.4624 113.348 47.1308 110.108 47.1308Z" fill="#EA4335"/>
<path d="M133.616 29.9128C127.676 29.9128 122.848 34.4238 122.848 40.6503C122.848 46.8449 127.676 51.3877 133.616 51.3877C139.556 51.3877 144.385 46.8449 144.385 40.6503C144.385 34.4238 139.556 29.9128 133.616 29.9128ZM133.616 47.1308C130.376 47.1308 127.549 44.4624 127.549 40.6185C127.549 36.7428 130.344 34.1061 133.616 34.1061C136.888 34.1061 139.683 36.7428 139.683 40.6185C139.683 44.4624 136.856 47.1308 133.616 47.1308Z" fill="#FBBC05"/>
<path d="M162.457 30.5486V32.2958H162.298C161.25 31.0251 159.217 29.8814 156.644 29.8814C151.275 29.8814 146.352 34.583 146.352 40.6507C146.352 46.6547 151.275 51.3563 156.644 51.3563C159.217 51.3563 161.25 50.2127 162.298 48.9102H162.457V50.4668C162.457 54.5649 160.265 56.7568 156.739 56.7568C153.848 56.7568 152.069 54.6919 151.339 52.9447L147.241 54.6602C148.416 57.5192 151.561 61.0137 156.771 61.0137C162.298 61.0137 166.967 57.7734 166.967 49.8315V30.5486H162.457ZM157.057 47.1312C153.816 47.1312 151.085 44.3992 151.085 40.6507C151.085 36.8703 153.816 34.1065 157.057 34.1065C160.265 34.1065 162.774 36.8703 162.774 40.6507C162.806 44.431 160.265 47.1312 157.057 47.1312Z" fill="#4285F4"/>
<path d="M174.908 50.7207H170.207V19.1755H174.908V50.7207Z" fill="#34A853"/>
<path d="M187.837 47.1308C185.423 47.1308 183.739 46.019 182.627 43.8905L196.985 37.95L196.509 36.7428C195.619 34.3285 192.888 29.9128 187.329 29.9128C181.801 29.9128 177.195 34.265 177.195 40.6503C177.195 46.6543 181.738 51.3877 187.837 51.3877C192.76 51.3877 195.588 48.3698 196.795 46.6226L193.142 44.1765C191.903 45.9554 190.251 47.1308 187.837 47.1308ZM187.487 34.0426C189.362 34.0426 190.95 34.9639 191.458 36.3299L181.865 40.3008C181.738 36.171 185.073 34.0426 187.487 34.0426Z" fill="#EA4335"/>
<path d="M77.6681 62.6274C79.0449 62.6274 80.1739 62.8615 81.0551 63.3296L80.0225 66.6755C79.3616 66.345 78.6181 66.1798 77.7921 66.1798C76.8558 66.1798 76.0848 66.5103 75.479 67.1712C74.9008 67.8045 74.6116 68.6582 74.6116 69.7322V72.2932H79.8986V75.763H74.6116V92.5335H70.8117V75.763H67.0117V72.2932H70.8117V69.3604C70.8117 67.3502 71.445 65.7254 72.7117 64.4862C74.0059 63.247 75.658 62.6274 77.6681 62.6274Z" fill="white" fill-opacity="0.541176"/>
<path d="M81.1328 82.4134C81.1328 79.3016 82.1103 76.7268 84.0654 74.689C86.048 72.6512 88.54 71.6323 91.5414 71.6323C94.5428 71.6323 97.0211 72.6512 98.9761 74.689C100.959 76.7268 101.95 79.3016 101.95 82.4134C101.95 85.5527 100.959 88.1275 98.9761 90.1378C97.0211 92.1756 94.5428 93.1945 91.5414 93.1945C88.54 93.1945 86.048 92.1756 84.0654 90.1378C82.1103 88.1 81.1328 85.5252 81.1328 82.4134ZM84.9328 82.4134C84.9328 84.5889 85.5661 86.3513 86.8328 87.7007C88.0994 89.05 89.669 89.7247 91.5414 89.7247C93.4138 89.7247 94.9834 89.05 96.2501 87.7007C97.5167 86.3513 98.15 84.5889 98.15 82.4134C98.15 80.2654 97.5167 78.5168 96.2501 77.1674C94.9559 75.7905 93.3863 75.1021 91.5414 75.1021C89.6965 75.1021 88.1269 75.7905 86.8328 77.1674C85.5661 78.5168 84.9328 80.2654 84.9328 82.4134Z" fill="white" fill-opacity="0.541176"/>
<path d="M108.839 92.5339H105.039V72.2936H108.674V75.5982H108.839C109.225 74.5242 110.009 73.6154 111.193 72.8719C112.405 72.1009 113.589 71.7153 114.745 71.7153C115.847 71.7153 116.783 71.8806 117.554 72.211L116.398 75.8873C115.93 75.6946 115.186 75.5982 114.167 75.5982C112.735 75.5982 111.482 76.1765 110.409 77.333C109.362 78.4896 108.839 79.839 108.839 81.3811V92.5339Z" fill="white" fill-opacity="0.541176"/>
<path d="M85.2389 126.645C85.2389 129.233 84.2889 131.312 82.389 132.882C80.4614 134.424 78.1209 135.195 75.3673 135.195C72.9166 135.195 70.755 134.479 68.8826 133.047C67.0101 131.615 65.7159 129.66 65 127.182L68.6348 125.695C68.8826 126.576 69.2268 127.375 69.6674 128.091C70.1079 128.807 70.6173 129.426 71.1956 129.949C71.8014 130.445 72.4622 130.844 73.1782 131.147C73.8941 131.423 74.6514 131.56 75.4499 131.56C77.1847 131.56 78.6028 131.12 79.7042 130.239C80.8056 129.33 81.3564 128.132 81.3564 126.645C81.3564 125.406 80.902 124.345 79.9933 123.464C79.1397 122.611 77.5426 121.784 75.2021 120.986C72.834 120.132 71.3608 119.554 70.7826 119.251C67.6435 117.654 66.0739 115.299 66.0739 112.187C66.0739 110.012 66.9413 108.153 68.6761 106.611C70.4384 105.069 72.5999 104.298 75.1608 104.298C77.4187 104.298 79.3738 104.876 81.0259 106.033C82.6781 107.162 83.7795 108.58 84.3303 110.287L80.7781 111.774C80.4477 110.673 79.7868 109.764 78.7955 109.048C77.8318 108.305 76.6477 107.933 75.2434 107.933C73.7564 107.933 72.5035 108.346 71.4847 109.172C70.4659 109.943 69.9565 110.948 69.9565 112.187C69.9565 113.206 70.3557 114.088 71.1543 114.831C72.0354 115.575 73.9492 116.456 76.8955 117.475C79.897 118.494 82.031 119.747 83.2977 121.234C84.5918 122.693 85.2389 124.497 85.2389 126.645Z" fill="white" fill-opacity="0.541176"/>
<path d="M96.1159 134.864C94.4638 134.864 93.087 134.355 91.9855 133.336C90.9116 132.317 90.3609 130.899 90.3334 129.081V117.763H86.7812V114.294H90.3334V108.098H94.1333V114.294H99.0898V117.763H94.1333V127.842C94.1333 129.192 94.3949 130.114 94.9181 130.61C95.4413 131.078 96.0333 131.312 96.6942 131.312C96.9971 131.312 97.2862 131.285 97.5616 131.229C97.8645 131.147 98.1398 131.05 98.3876 130.94L99.5855 134.327C98.5942 134.685 97.4377 134.864 96.1159 134.864Z" fill="white" fill-opacity="0.541176"/>
<path d="M105.068 128.338C105.068 129.329 105.481 130.156 106.308 130.816C107.161 131.477 108.152 131.808 109.281 131.808C110.878 131.808 112.297 131.216 113.536 130.032C114.802 128.847 115.436 127.457 115.436 125.86C114.252 124.923 112.6 124.455 110.479 124.455C108.937 124.455 107.643 124.827 106.597 125.57C105.578 126.314 105.068 127.237 105.068 128.338ZM109.984 113.633C112.792 113.633 115.009 114.39 116.634 115.905C118.258 117.392 119.07 119.443 119.07 122.059V134.534H115.436V131.725H115.27C113.701 134.038 111.608 135.195 108.992 135.195C106.762 135.195 104.889 134.534 103.375 133.212C101.888 131.89 101.145 130.238 101.145 128.255C101.145 126.163 101.929 124.496 103.499 123.257C105.096 122.018 107.216 121.398 109.86 121.398C112.118 121.398 113.976 121.812 115.436 122.638V121.77C115.436 120.448 114.913 119.333 113.866 118.424C112.82 117.488 111.594 117.02 110.19 117.02C108.07 117.02 106.39 117.915 105.151 119.705L101.805 117.598C103.65 114.955 106.376 113.633 109.984 113.633Z" fill="white" fill-opacity="0.541176"/>
<path d="M147.064 134.864C145.412 134.864 144.035 134.355 142.934 133.336C141.86 132.317 141.309 130.899 141.281 129.081V117.763H137.729V114.294H141.281V108.098H145.081V114.294H150.038V117.763H145.081V127.842C145.081 129.192 145.343 130.114 145.866 130.61C146.389 131.078 146.981 131.312 147.642 131.312C147.945 131.312 148.234 131.285 148.51 131.229C148.812 131.147 149.088 131.05 149.336 130.94L150.533 134.327C149.542 134.685 148.386 134.864 147.064 134.864ZM123.355 114.294H126.99V117.598H127.155C128.284 115.01 130.611 113.715 134.136 113.715L134.921 113.798V117.763L133.227 117.598C131.465 117.598 130.005 118.149 128.849 119.25C127.72 120.324 127.155 121.701 127.155 123.381V134.534H123.355V114.294Z" fill="white" fill-opacity="0.541176"/>
<path d="M171.449 134.534H167.815V131.725H167.649C167.071 132.717 166.176 133.543 164.965 134.204C163.781 134.865 162.541 135.195 161.247 135.195C158.769 135.195 156.855 134.493 155.506 133.089C154.184 131.657 153.523 129.633 153.523 127.016V114.294H157.323V126.769C157.406 130.073 159.072 131.725 162.321 131.725C163.836 131.725 165.102 131.12 166.121 129.908C167.14 128.669 167.649 127.195 167.649 125.488V114.294H171.449V134.534Z" fill="white" fill-opacity="0.541176"/>
<path d="M186.031 131.725C187.849 131.725 189.377 131.037 190.616 129.66C191.855 128.31 192.475 126.562 192.475 124.414C192.475 122.293 191.855 120.545 190.616 119.168C189.377 117.791 187.849 117.103 186.031 117.103C184.186 117.103 182.644 117.791 181.405 119.168C180.194 120.545 179.588 122.293 179.588 124.414C179.588 126.562 180.194 128.324 181.405 129.701C182.644 131.05 184.186 131.725 186.031 131.725ZM186.651 135.195C185.164 135.195 183.801 134.878 182.562 134.245C181.35 133.612 180.414 132.772 179.753 131.725H179.588L179.753 134.534V143.456H175.953V114.294H179.588V117.103H179.753C180.414 116.056 181.35 115.216 182.562 114.583C183.801 113.949 185.164 113.633 186.651 113.633C189.322 113.633 191.58 114.679 193.425 116.772C195.325 118.893 196.275 121.44 196.275 124.414C196.275 127.416 195.325 129.963 193.425 132.056C191.58 134.149 189.322 135.195 186.651 135.195Z" fill="white" fill-opacity="0.541176"/>
<path d="M215.002 128.916C215.002 130.679 214.231 132.166 212.689 133.377C211.147 134.589 209.206 135.195 206.865 135.195C204.828 135.195 203.038 134.672 201.496 133.625C199.954 132.551 198.852 131.147 198.191 129.412L201.578 127.966C202.074 129.178 202.79 130.128 203.726 130.816C204.69 131.477 205.736 131.808 206.865 131.808C208.077 131.808 209.082 131.546 209.88 131.023C210.707 130.5 211.12 129.88 211.12 129.164C211.12 127.87 210.128 126.92 208.146 126.314L204.676 125.447C200.738 124.455 198.77 122.555 198.77 119.746C198.77 117.901 199.513 116.428 201 115.326C202.515 114.197 204.442 113.633 206.783 113.633C208.572 113.633 210.183 114.06 211.615 114.913C213.075 115.767 214.093 116.91 214.672 118.342L211.285 119.746C210.899 118.893 210.266 118.232 209.385 117.763C208.531 117.268 207.567 117.02 206.494 117.02C205.502 117.02 204.607 117.268 203.809 117.763C203.038 118.259 202.652 118.865 202.652 119.581C202.652 120.738 203.74 121.564 205.915 122.059L208.972 122.844C212.992 123.836 215.002 125.86 215.002 128.916Z" fill="white" fill-opacity="0.541176"/>
</svg>
