<svg width="824" height="100" viewBox="0 0 824 100" fill="none" xmlns="http://www.w3.org/2000/svg">
<path d="M1.48828 39.7426C1.48828 19.4853 18.4626 3.06985 38.7201 3.06985C49.8966 3.06985 57.8599 7.47058 63.8673 13.1985L56.7423 20.2537C52.4812 16.2022 46.6834 13.0588 38.7201 13.0588C23.981 13.0588 12.4553 24.9338 12.4553 39.6728C12.4553 54.4118 23.981 66.2868 38.7201 66.2868C48.29 66.2868 53.7386 62.4448 57.2312 58.9522C60.0952 56.0882 61.9812 51.9669 62.6798 46.3787H38.7201V36.3897H72.4592C72.8085 38.2059 73.0181 40.3015 73.0181 42.6765C73.0181 50.2206 70.9923 59.511 64.3563 66.0772C57.8599 72.7831 49.6172 76.3456 38.7201 76.3456C18.4626 76.3456 1.48828 59.9301 1.48828 39.7426Z" fill="#4285F4"/>
<path d="M100.192 29.1948C87.1294 29.1948 76.5117 39.1139 76.5117 52.8051C76.5117 66.4264 87.1294 76.4154 100.192 76.4154C113.255 76.4154 123.872 66.4264 123.872 52.8051C123.872 39.1139 113.255 29.1948 100.192 29.1948ZM100.192 67.0551C93.067 67.0551 86.85 61.1875 86.85 52.7353C86.85 44.2132 92.9971 38.4154 100.192 38.4154C107.317 38.4154 113.534 44.2132 113.534 52.7353C113.534 61.1875 107.317 67.0551 100.192 67.0551Z" fill="#EA4335"/>
<path d="M151.883 29.1948C138.821 29.1948 128.203 39.1139 128.203 52.8051C128.203 66.4264 138.821 76.4154 151.883 76.4154C164.946 76.4154 175.564 66.4264 175.564 52.8051C175.564 39.1139 164.946 29.1948 151.883 29.1948ZM151.883 67.0551C144.758 67.0551 138.541 61.1875 138.541 52.7353C138.541 44.2132 144.689 38.4154 151.883 38.4154C159.078 38.4154 165.225 44.2132 165.225 52.7353C165.225 61.1875 159.008 67.0551 151.883 67.0551Z" fill="#FBBC05"/>
<path d="M215.31 30.592V34.4339H214.961C212.656 31.6398 208.185 29.1251 202.527 29.1251C190.722 29.1251 179.895 39.4633 179.895 52.8052C179.895 66.0074 190.722 76.3456 202.527 76.3456C208.185 76.3456 212.656 73.8309 214.961 70.967H215.31V74.3898C215.31 83.4008 210.49 88.2206 202.737 88.2206C196.38 88.2206 192.468 83.6802 190.861 79.8383L181.85 83.6103C184.435 89.8971 191.35 97.5809 202.806 97.5809C214.961 97.5809 225.229 90.4559 225.229 72.9927V30.592H215.31ZM203.435 67.0552C196.31 67.0552 190.303 61.0479 190.303 52.8052C190.303 44.4927 196.31 38.4155 203.435 38.4155C210.49 38.4155 216.009 44.4927 216.009 52.8052C216.079 61.1177 210.49 67.0552 203.435 67.0552V67.0552Z" fill="#4285F4"/>
<path d="M242.692 74.9485H232.354V5.58451H242.692V74.9485Z" fill="#34A853"/>
<path d="M271.124 67.0551C265.815 67.0551 262.112 64.6103 259.668 59.9301L291.241 46.8676L290.193 44.2132C288.238 38.9044 282.23 29.1948 270.006 29.1948C257.851 29.1948 247.723 38.7647 247.723 52.8051C247.723 66.0073 257.712 76.4154 271.124 76.4154C281.951 76.4154 288.168 69.7794 290.822 65.9375L282.789 60.5588C280.065 64.4706 276.432 67.0551 271.124 67.0551V67.0551ZM270.355 38.2757C274.476 38.2757 277.969 40.3014 279.087 43.3051L257.991 52.0367C257.712 42.9558 265.046 38.2757 270.355 38.2757Z" fill="#EA4335"/>
<path d="M338.434 9.9104C341.461 9.9104 343.944 10.4251 345.882 11.4545L343.611 18.8116C342.158 18.085 340.523 17.7216 338.706 17.7216C336.647 17.7216 334.952 18.4483 333.62 19.9015C332.348 21.2942 331.712 23.1713 331.712 25.5329V31.1642H343.338V38.7938H331.712V75.6701H323.356V38.7938H315V31.1642H323.356V24.7154C323.356 20.2951 324.749 16.7225 327.534 13.9977C330.38 11.2728 334.013 9.9104 338.434 9.9104V9.9104Z" fill="white" fill-opacity="0.541176"/>
<path d="M346.053 53.4172C346.053 46.5748 348.202 40.9131 352.502 36.4322C356.861 31.9514 362.341 29.7109 368.941 29.7109C375.542 29.7109 380.991 31.9514 385.291 36.4322C389.65 40.9131 391.83 46.5748 391.83 53.4172C391.83 60.3201 389.65 65.9817 385.291 70.4021C380.991 74.8829 375.542 77.1234 368.941 77.1234C362.341 77.1234 356.861 74.8829 352.502 70.4021C348.202 65.9212 346.053 60.2596 346.053 53.4172ZM354.409 53.4172C354.409 58.2008 355.802 62.0761 358.587 65.0432C361.372 68.0102 364.824 69.4938 368.941 69.4938C373.059 69.4938 376.511 68.0102 379.296 65.0432C382.081 62.0761 383.474 58.2008 383.474 53.4172C383.474 48.6941 382.081 44.849 379.296 41.8819C376.45 38.8543 372.998 37.3405 368.941 37.3405C364.884 37.3405 361.433 38.8543 358.587 41.8819C355.802 44.849 354.409 48.6941 354.409 53.4172Z" fill="white" fill-opacity="0.541176"/>
<path d="M406.979 75.6701H398.623V31.1642H406.616V38.4304H406.979C407.827 36.0689 409.553 34.0707 412.156 32.4358C414.821 30.7403 417.425 29.8926 419.968 29.8926C422.39 29.8926 424.449 30.2559 426.144 30.9825L423.601 39.0662C422.571 38.6424 420.937 38.4304 418.696 38.4304C415.547 38.4304 412.792 39.702 410.431 42.2452C408.13 44.7884 406.979 47.7555 406.979 51.1464V75.6701Z" fill="white" fill-opacity="0.541176"/>
<path d="M490.604 58.3219C490.604 64.0138 488.515 68.5855 484.336 72.037C480.098 75.4279 474.951 77.1234 468.896 77.1234C463.506 77.1234 458.753 75.549 454.636 72.4003C450.518 69.2516 447.672 64.9524 446.098 59.5027L454.091 56.2328C454.636 58.1705 455.392 59.9265 456.361 61.5009C457.33 63.0752 458.45 64.4377 459.722 65.5882C461.054 66.6781 462.507 67.5561 464.082 68.2222C465.656 68.8277 467.321 69.1305 469.077 69.1305C472.892 69.1305 476.01 68.1616 478.433 66.224C480.855 64.2257 482.066 61.5917 482.066 58.3219C482.066 55.597 481.067 53.2658 479.068 51.3281C477.191 49.451 473.679 47.6344 468.532 45.8784C463.325 44.0013 460.085 42.7297 458.814 42.0636C451.911 38.5516 448.459 33.3743 448.459 26.5319C448.459 21.7483 450.367 17.661 454.181 14.2701C458.057 10.8792 462.81 9.18372 468.441 9.18372C473.407 9.18372 477.706 10.4553 481.339 12.9985C484.972 15.4812 487.394 18.5996 488.605 22.3538L480.794 25.6237C480.067 23.2016 478.614 21.2033 476.434 19.629C474.315 17.9941 471.711 17.1766 468.623 17.1766C465.353 17.1766 462.598 18.0849 460.358 19.9015C458.117 21.5969 456.997 23.8071 456.997 26.5319C456.997 28.7724 457.875 30.71 459.631 32.345C461.569 33.9799 465.777 35.9176 472.256 38.158C478.856 40.3984 483.549 43.1535 486.335 46.4234C489.181 49.6326 490.604 53.5988 490.604 58.3219Z" fill="white" fill-opacity="0.541176"/>
<path d="M514.523 76.3967C510.89 76.3967 507.863 75.2765 505.44 73.0361C503.079 70.7956 501.868 67.6772 501.807 63.6807V38.7938H493.996V31.1642H501.807V17.5399H510.164V31.1642H521.063V38.7938H510.164V60.9559C510.164 63.923 510.739 65.9515 511.889 67.0414C513.04 68.0708 514.342 68.5855 515.795 68.5855C516.461 68.5855 517.097 68.5249 517.702 68.4038C518.368 68.2222 518.974 68.0102 519.519 67.768L522.153 75.2159C519.973 76.0031 517.43 76.3967 514.523 76.3967V76.3967Z" fill="white" fill-opacity="0.541176"/>
<path d="M534.211 62.0458C534.211 64.2257 535.119 66.0423 536.936 67.4956C538.813 68.9488 540.993 69.6754 543.475 69.6754C546.987 69.6754 550.106 68.3736 552.831 65.7698C555.616 63.1661 557.009 60.1082 557.009 56.5961C554.405 54.5374 550.772 53.508 546.109 53.508C542.718 53.508 539.872 54.3254 537.571 55.9603C535.331 57.5953 534.211 59.6238 534.211 62.0458ZM545.019 29.7109C551.196 29.7109 556.07 31.3761 559.643 34.7065C563.215 37.9763 565.002 42.4875 565.002 48.2399V75.6701H557.009V69.4938H556.645C553.194 74.5802 548.592 77.1234 542.839 77.1234C537.935 77.1234 533.817 75.6701 530.487 72.7636C527.217 69.8571 525.582 66.224 525.582 61.8642C525.582 57.2622 527.308 53.5988 530.759 50.874C534.271 48.1491 538.934 46.7867 544.747 46.7867C549.712 46.7867 553.799 47.695 557.009 49.5115V47.6041C557.009 44.6976 555.858 42.2453 553.557 40.247C551.256 38.1883 548.562 37.1589 545.473 37.1589C540.811 37.1589 537.117 39.1268 534.392 43.0627L527.035 38.4305C531.092 32.6174 537.087 29.7109 545.019 29.7109V29.7109Z" fill="white" fill-opacity="0.541176"/>
<path d="M626.561 76.3967C622.928 76.3967 619.901 75.2765 617.478 73.0361C615.117 70.7956 613.906 67.6772 613.845 63.6807V38.7938H606.034V31.1642H613.845V17.5399H622.202V31.1642H633.101V38.7938H622.202V60.9559C622.202 63.923 622.777 65.9515 623.927 67.0414C625.078 68.0708 626.38 68.5855 627.833 68.5855C628.499 68.5855 629.135 68.5249 629.74 68.4038C630.406 68.2222 631.012 68.0102 631.557 67.768L634.191 75.2159C632.011 76.0031 629.468 76.3967 626.561 76.3967V76.3967ZM574.426 31.1642H582.419V38.4304H582.782C585.265 32.7385 590.381 29.8926 598.132 29.8926L599.858 30.0742V38.7938L596.134 38.4304C592.258 38.4304 589.049 39.6415 586.506 42.0636C584.023 44.4251 582.782 47.4527 582.782 51.1464V75.6701H574.426V31.1642Z" fill="white" fill-opacity="0.541176"/>
<path d="M680.185 75.6701H672.192V69.4938H671.829C670.557 71.6737 668.589 73.4902 665.925 74.9435C663.321 76.3967 660.596 77.1234 657.751 77.1234C652.301 77.1234 648.092 75.5793 645.125 72.4911C642.219 69.3424 640.766 64.8918 640.766 59.1393V31.1642H649.122V58.5944C649.303 65.8606 652.967 69.4938 660.112 69.4938C663.442 69.4938 666.228 68.1616 668.468 65.4973C670.709 62.7725 671.829 59.5329 671.829 55.7787V31.1642H680.185V75.6701Z" fill="white" fill-opacity="0.541176"/>
<path d="M712.244 69.4938C716.241 69.4938 719.601 67.98 722.326 64.9524C725.051 61.9853 726.413 58.1402 726.413 53.4172C726.413 48.7546 725.051 44.9096 722.326 41.8819C719.601 38.8543 716.241 37.3405 712.244 37.3405C708.187 37.3405 704.796 38.8543 702.071 41.8819C699.407 44.9096 698.075 48.7546 698.075 53.4172C698.075 58.1402 699.407 62.0156 702.071 65.0432C704.796 68.0102 708.187 69.4938 712.244 69.4938ZM713.607 77.1234C710.337 77.1234 707.339 76.427 704.615 75.0343C701.95 73.6416 699.891 71.7948 698.438 69.4938H698.075L698.438 75.6701V95.2891H690.082V31.1642H698.075V37.3405H698.438C699.891 35.0395 701.95 33.1927 704.615 31.8C707.339 30.4073 710.337 29.7109 713.607 29.7109C719.48 29.7109 724.445 32.0119 728.502 36.6139C732.681 41.2764 734.77 46.8775 734.77 53.4172C734.77 60.0174 732.681 65.6184 728.502 70.2204C724.445 74.8224 719.48 77.1234 713.607 77.1234V77.1234Z" fill="white" fill-opacity="0.541176"/>
<path d="M775.952 63.3175C775.952 67.1928 774.256 70.4626 770.865 73.1269C767.474 75.7912 763.205 77.1234 758.058 77.1234C753.577 77.1234 749.642 75.9729 746.251 73.6719C742.86 71.3104 740.438 68.2222 738.984 64.4074L746.432 61.2284C747.522 63.8927 749.097 65.9818 751.155 67.4956C753.275 68.9488 755.576 69.6754 758.058 69.6754C760.723 69.6754 762.933 69.1002 764.689 67.9497C766.505 66.7992 767.414 65.4368 767.414 63.8624C767.414 61.0165 765.234 58.9274 760.874 57.5953L753.244 55.6879C744.585 53.508 740.256 49.3299 740.256 43.1535C740.256 39.0965 741.891 35.857 745.161 33.4349C748.491 30.9523 752.73 29.7109 757.877 29.7109C761.813 29.7109 765.355 30.6495 768.504 32.5266C771.713 34.4037 773.953 36.9167 775.225 40.0654L767.777 43.1535C766.929 41.2764 765.537 39.8232 763.599 38.7938C761.722 37.7038 759.602 37.1589 757.241 37.1589C755.061 37.1589 753.093 37.7038 751.337 38.7938C749.642 39.8837 748.794 41.2159 748.794 42.7902C748.794 45.3334 751.186 47.15 755.969 48.2399L762.691 49.9657C771.531 52.1456 775.952 56.5962 775.952 63.3175V63.3175Z" fill="white" fill-opacity="0.541176"/>
</svg>
