<?xml version="1.0" encoding="UTF-8"?>
<svg width="427px" height="274px" viewBox="0 0 427 274" version="1.1" xmlns="http://www.w3.org/2000/svg" xmlns:xlink="http://www.w3.org/1999/xlink">
    <title>黑底备份 4</title>
    <defs>
        <linearGradient x1="118.945653%" y1="-7.18795206%" x2="-48.5213038%" y2="131.722996%" id="linearGradient-1">
            <stop stop-color="#2185FF" offset="0%"></stop>
            <stop stop-color="#0048F2" offset="100%"></stop>
        </linearGradient>
    </defs>
    <g id="页面-1" stroke="none" stroke-width="1" fill="none" fill-rule="evenodd">
        <g id="黑底备份-4">
            <path d="M228,95 L228,150.425972 L227.996257,150.826584 C227.864138,157.894328 224.242238,164.432268 218.334384,168.225818 L218.334384,168.225818 L200,180 L200,124.577008 L200.003743,124.176393 C200.135861,117.108543 203.757707,110.567732 209.662676,106.774182 L209.662676,106.774182 L228,95 Z M174,47 L174,118.37401 L173.996257,118.775291 C173.864138,125.854953 170.242238,132.409471 164.334384,136.209304 L164.334384,136.209304 L146,148 L146,76.6259901 L146.003743,76.2248684 C146.135862,69.1479235 149.757762,62.590584 155.665616,58.7936813 L155.665616,58.7936813 L174,47 Z M282,30 L282,101.378229 L281.996254,101.779528 C281.864032,108.859395 278.239407,115.40855 272.337324,119.208607 L272.337324,119.208607 L254,131 L254,59.621771 L254.003746,59.2206317 C254.135968,52.1434815 257.760593,45.5915056 263.662676,41.7943784 L263.662676,41.7943784 L282,30 Z M228,0 L228,55.425972 L227.996257,55.8265839 C227.864138,62.8943278 224.242238,69.4322678 218.334384,73.2258178 L218.334384,73.2258178 L200,85 L200,29.577008 L200.003743,29.1763931 C200.135861,22.1085429 203.757707,15.5677322 209.662676,11.7741822 L209.662676,11.7741822 L228,0 Z" id="形状结合" fill="url(#linearGradient-1)"></path>
            <g id="编组" transform="translate(0.000000, 213.000000)" fill="#FFFFFF">
                <polygon id="Fill-9" points="50 59 35.9779526 59 35.9779526 33.9817352 13.9374257 40.8995434 13.9374257 59 0 59 0 1 13.9374257 1 13.9374257 26.5410959 35.9779526 19.543379 35.9779526 1 50 1"></polygon>
                <polygon id="Fill-11" points="121 59 106.304147 59 89.3387097 17.2294762 77.1198157 47.299179 89.9861751 47.299179 89.9861751 59 58 59 83.0046083 0 95.9124424 0"></polygon>
                <path d="M151.619686,59 C147.223395,59 142.892889,58.2369705 138.630437,56.7063424 C134.395207,55.1483002 130.518394,52.7883915 127,49.6243321 L134.873853,40.1230156 C137.884111,42.5925811 140.697012,44.4316193 143.30575,45.6378456 C145.916757,46.8463564 148.781833,47.4494695 151.898708,47.4494695 C154.269257,47.4494695 156.095374,47.0199799 157.372522,46.1632851 C158.67916,45.274607 159.332479,44.0044142 159.332479,42.3389995 L159.332479,42.1767986 C159.332479,41.2926895 159.198639,40.5547897 158.933228,39.9630992 C158.613374,39.3736932 158.093895,38.823124 157.372522,38.3136761 C156.57629,37.829358 155.455666,37.3359018 154.017457,36.8241694 C152.792484,36.3421358 151.179604,35.8441106 149.181083,35.3369473 C148.915672,35.2547046 148.647993,35.1747464 148.382582,35.0925037 C145.506164,34.4231395 142.879278,33.6326957 140.510997,32.7188879 C138.110958,31.8599086 136.085216,30.7610548 134.436039,29.4200418 C132.782326,28.1064431 131.50291,26.5072795 130.597791,24.6294045 C129.719893,22.696701 129.279811,20.3367924 129.279811,17.5451096 L129.279811,17.3851932 C129.279811,14.8356695 129.744847,12.5008906 130.679456,10.383141 C131.663971,8.23569271 133.061347,6.39893905 134.873853,4.868311 C136.68636,3.31255324 138.857284,2.09261984 141.388894,1.20622628 C143.893283,0.402075428 146.651741,0 149.661998,0 C153.92445,0 157.826216,0.628242856 161.369563,1.89158213 C164.967354,3.17776659 168.270244,5.044219 171.280501,7.48408581 L164.409311,17.4651514 C161.421738,15.4524897 158.772167,13.9652676 156.456061,12.9989158 C154.110465,12.0074344 151.79209,11.5094091 149.500937,11.5094091 C147.28918,11.5094091 145.649078,11.9503214 144.585166,12.8389995 C143.43959,13.6956943 142.867936,14.8219624 142.867936,16.2178038 L142.867936,16.3800046 C142.867936,17.3714861 143.065292,18.1779215 143.466811,18.7924572 C143.786665,19.4389762 144.360588,20.0169597 145.18631,20.524123 C146.009764,21.0061566 147.209784,21.5041818 148.781833,22.0159142 C149.820791,22.3357469 151.045764,22.6852784 152.45902,23.0599396 C153.150902,23.2495547 153.883618,23.4483079 154.657165,23.6630527 C157.588026,24.4420739 160.183154,25.3147603 162.449354,26.2788275 C164.740507,27.2725935 166.670973,28.4262758 168.243022,29.7398745 C169.869514,31.1357159 171.067265,32.7325951 171.840813,34.5305119 C172.61436,36.3284287 173,38.475877 173,40.9682878 L173,41.1304887 C173,43.9198869 172.480521,46.4168667 171.441562,48.616859 C170.454779,50.8168512 169.01657,52.6810191 167.124667,54.2116472 C165.205543,55.7674049 162.941612,56.9485015 160.330605,57.7526524 C157.637933,58.5842175 154.736562,59 151.619686,59" id="Fill-13"></path>
                <polygon id="Fill-15" points="231 59 216.978594 59 216.978594 33.9817352 194.939075 40.8995434 194.939075 59 181 59 181 1 194.939075 1 194.939075 26.5410959 216.978594 19.543379 216.978594 1 231 1"></polygon>
                <polygon id="Fill-17" points="278 59 261.086152 59 241.739313 37.1323651 235 29.5405299 261.086152 0 278 0 251.721832 29.501158"></polygon>
                <polygon id="Fill-19" points="286 59 301 59 301 0 286 0"></polygon>
                <polygon id="Fill-21" points="364 59 351.975543 59 324.92741 23.3062721 324.92741 59 311 59 311 0 323.833442 0 349.989853 34.5535084 349.989853 0 364 0"></polygon>
                <path d="M401.333672,61 C391.97688,61 384.428914,58.0971181 378.689773,52.2867096 C372.897363,46.5343587 370,39.3026992 370,30.6033426 C370,22.3127118 372.839462,15.2203906 378.525334,9.32870141 C384.238999,3.46487989 391.678111,0.35531275 400.844988,0 L419.426557,0 L419.426557,12.3151864 L400.844988,12.3151864 C396.490837,12.3151864 392.72496,14.075494 389.542725,17.5937869 C386.360489,21.1120798 384.769371,25.3944112 384.769371,30.4407812 C384.769371,35.7867286 386.388282,40.1898199 389.623786,43.6523775 C392.861607,47.0638444 396.900776,48.7684166 401.743611,48.7684166 C406.257568,48.7684166 410.07903,47.6792553 413.207996,45.4939658 L413.207996,37.477367 L400.231238,37.477367 L400.231238,25.8170708 L427,25.8170708 L427,51.469258 C420.823128,57.8254083 412.270001,61 401.333672,61" id="Fill-22"></path>
            </g>
        </g>
    </g>
</svg>