<svg width="177" height="64" viewBox="0 0 177 64" fill="none" xmlns="http://www.w3.org/2000/svg">
<path d="M70 44.5466V20H75.1343V30.1279H85.5572V20H90.6797V44.5466H85.5572V34.4067H75.1343V44.5466H70Z" fill="#3EF4F2"/>
<path d="M121.608 44.5466V20H131.402C133.201 20 134.702 20.2677 135.904 20.803C137.107 21.3384 138.01 22.0815 138.615 23.0324C139.221 23.9752 139.523 25.0619 139.523 26.2925C139.523 27.2513 139.332 28.0943 138.95 28.8214C138.568 29.5406 138.042 30.1319 137.373 30.5953C136.713 31.0508 135.956 31.3744 135.104 31.5661V31.8059C136.036 31.8458 136.908 32.1095 137.72 32.5969C138.54 33.0843 139.205 33.7675 139.714 34.6465C140.224 35.5174 140.479 36.5562 140.479 37.7627C140.479 39.0652 140.156 40.2278 139.511 41.2505C138.874 42.2653 137.931 43.0684 136.681 43.6596C135.431 44.2509 133.89 44.5466 132.059 44.5466H121.608ZM126.78 40.3037H130.996C132.437 40.3037 133.488 40.028 134.149 39.4767C134.81 38.9173 135.14 38.1742 135.14 37.2473C135.14 36.5681 134.977 35.9689 134.65 35.4495C134.324 34.9301 133.858 34.5226 133.253 34.227C132.656 33.9313 131.943 33.7835 131.115 33.7835H126.78V40.3037ZM126.78 30.2717H130.614C131.322 30.2717 131.951 30.1478 132.501 29.9001C133.058 29.6444 133.496 29.2849 133.814 28.8214C134.141 28.358 134.304 27.8027 134.304 27.1554C134.304 26.2685 133.989 25.5533 133.36 25.01C132.739 24.4666 131.856 24.195 130.709 24.195H126.78V30.2717Z" fill="#3EF4F2"/>
<path d="M155.984 24.2789V20H176.147V24.2789H168.631V44.5466H163.5V24.2789H155.984Z" fill="#3EF4F2"/>
<rect x="103.61" y="20" width="5.21838" height="4.90932" fill="#FFDBEA"/>
<rect x="103.61" y="24.9092" width="5.21838" height="4.90932" fill="#FA87B7"/>
<rect x="103.61" y="29.8186" width="5.21838" height="4.90932" fill="#FF006B"/>
<rect x="108.829" y="29.8186" width="5.21838" height="4.90932" fill="#FF006B"/>
<rect x="98.3926" y="29.8186" width="5.21838" height="4.90932" fill="#FF006B"/>
<rect x="98.3926" y="24.9092" width="5.21838" height="4.90932" fill="#FA87B7"/>
<rect x="108.829" y="24.9092" width="5.21838" height="4.90932" fill="#FA87B7"/>
<rect x="112.513" y="39.6372" width="5.21838" height="4.90932" fill="#3EF4F2"/>
<rect x="94.5557" y="39.6372" width="5.21838" height="4.90932" fill="#3EF4F2"/>
<rect x="94.5557" y="34.7279" width="23.1758" height="4.90932" fill="#3EF4F2"/>
<rect x="144.354" y="20" width="7.75487" height="6.45963" fill="#D9055E"/>
<rect x="144.354" y="25.9017" width="7.75487" height="6.45963" fill="#FF006B"/>
<rect x="144.354" y="31.8036" width="7.75487" height="6.45963" fill="#3EF4F2"/>
<rect x="144.354" y="37.7053" width="7.75487" height="6.45963" fill="#3EF4F2"/>
<rect width="9.53073" height="6.96042" fill="#FA87B7"/>
<rect y="6.96045" width="9.53073" height="8.49172" fill="#FA87B7"/>
<rect y="15.4521" width="9.53073" height="9.67499" fill="#FFDBEA"/>
<rect y="25.1265" width="9.53073" height="9.67499" fill="#FF006B"/>
<path d="M19.0713 25.1265H38.8389V34.8015H19.0713V25.1265Z" fill="#FFDBEA"/>
<rect x="38.8115" y="25.1265" width="9.4159" height="9.67499" fill="#FA87B7"/>
<rect x="38.8115" y="15.4521" width="9.4159" height="9.67499" fill="#FF006B"/>
<rect x="38.8115" y="6.96045" width="9.4159" height="8.49172" fill="#FFDBEA"/>
<rect x="48.2275" y="25.1265" width="9.4159" height="9.67499" fill="#FF006B"/>
<rect x="48.2275" y="15.4521" width="9.4159" height="9.67499" fill="#FFDBEA"/>
<rect x="48.2275" y="6.96045" width="9.4159" height="8.49172" fill="#FFDBEA"/>
<rect x="48.2354" width="9.4159" height="6.96042" fill="#FFDBEA"/>
<path d="M19.0713 34.8021H38.818V44.4771H19.0713V34.8021Z" fill="#FF006B"/>
<rect x="38.8115" y="34.8021" width="9.4159" height="9.67499" fill="#FF006B"/>
<rect x="38.8115" y="44.4771" width="9.4159" height="9.67499" fill="#3EF4F2"/>
<rect x="38.8115" y="54.1521" width="9.4159" height="9.67499" fill="#3EF4F2"/>
<rect x="48.2275" y="34.8021" width="9.4159" height="9.67499" fill="#FA87B7"/>
<rect x="48.2275" y="44.4771" width="9.4159" height="9.67499" fill="#FA87B7"/>
<rect x="48.2275" y="54.1521" width="9.4159" height="9.67499" fill="#3EF4F2"/>
<rect y="34.8021" width="9.53073" height="9.67499" fill="#FA87B7"/>
<rect y="44.4771" width="9.53073" height="9.67499" fill="#FA87B7"/>
<rect y="54.1521" width="9.53073" height="9.67499" fill="#3EF4F2"/>
<rect x="9.53125" y="6.96045" width="9.53073" height="8.49172" fill="#FA87B7"/>
<rect x="9.53125" y="15.4521" width="9.53073" height="9.67499" fill="#FF006B"/>
<rect x="9.53125" y="25.1265" width="9.53073" height="9.67499" fill="#FA87B7"/>
<rect x="9.53516" y="34.8021" width="9.53073" height="9.67499" fill="#FF006B"/>
<rect x="9.53125" y="44.4771" width="9.53073" height="9.67499" fill="#3EF4F2"/>
<rect x="9.53125" y="54.1521" width="9.53073" height="9.67499" fill="#3EF4F2"/>
</svg>
