<svg width="279" height="161" viewBox="0 0 279 161" fill="none" xmlns="http://www.w3.org/2000/svg">
<g clip-path="url(#clip0_436_380)">
<path d="M79.499 44.1657L39.3641 47.1439C36.127 47.4257 35 49.5513 35 52.0989V96.3037C35 98.2882 35.7013 99.9861 37.3937 102.255L46.8277 114.58C48.3776 116.565 49.7872 116.99 52.7466 116.849L99.354 114.014C103.295 113.733 104.424 111.889 104.424 108.772V59.0417C104.424 57.4308 103.791 56.967 101.927 55.5923L101.605 55.3589L88.7955 46.2913C85.696 44.0275 84.4293 43.7404 79.499 44.1657ZM53.8006 58.2276C49.9949 58.4852 49.132 58.5434 46.9706 56.7775L41.4749 52.3856C40.9165 51.8172 41.1969 51.1081 42.604 50.967L81.187 48.1348C84.4265 47.8506 86.114 48.9849 87.381 49.9762L93.9988 54.793C94.2817 54.9365 94.985 55.7842 94.1388 55.7842L54.2941 58.1936L53.8006 58.2276ZM49.3639 108.347V66.1297C49.3639 64.2858 49.9272 63.4353 51.6151 63.2921L97.3787 60.601C98.9307 60.4599 99.632 61.4511 99.632 63.2921V105.228C99.632 107.072 99.3491 108.631 96.8154 108.772L53.0222 111.323C50.4885 111.464 49.3639 110.616 49.3639 108.347ZM92.5938 68.3935C92.8742 69.669 92.5938 70.944 91.3243 71.0896L89.2139 71.51V102.68C87.381 103.671 85.6935 104.237 84.284 104.237C82.0307 104.237 81.4674 103.527 79.7795 101.405L65.9765 79.5867V100.695L70.343 101.689C70.343 101.689 70.343 104.24 66.8203 104.24L57.1083 104.806C56.8254 104.237 57.1083 102.821 58.0921 102.539L60.6286 101.832V73.9218L57.1083 73.6356C56.8254 72.3601 57.5287 70.5187 59.5016 70.3752L69.9222 69.671L84.284 91.7707V72.219L80.6236 71.7966C80.3408 70.2345 81.4674 69.1001 82.8745 68.9619L92.5938 68.3935ZM135.178 95.6209V76.4071H135.509L149.301 95.6209H153.643V67.3855H148.814V86.5799H148.483L134.692 67.3855H130.333V95.6184H135.181L135.178 95.6209ZM167.289 96.0535C173.66 96.0535 177.535 91.8655 177.535 84.9186C177.535 77.9906 173.64 73.7836 167.289 73.7836C160.959 73.7836 157.045 78.0102 157.045 84.9182C157.045 91.8655 160.901 96.0535 167.289 96.0535ZM167.289 91.9824C163.921 91.9824 161.994 89.4003 161.994 84.9186C161.994 80.4566 163.921 77.8548 167.289 77.8548C170.64 77.8548 172.567 80.4561 172.567 84.9186C172.567 89.4003 170.659 91.9824 167.289 91.9824ZM181.947 68.9714V74.352H178.58V78.2264H181.947V89.908C181.947 94.0567 183.897 95.7205 188.785 95.7205C189.718 95.7205 190.616 95.6233 191.316 95.4851V91.6883C190.732 91.7465 190.361 91.7855 189.68 91.7855C187.656 91.7855 186.759 90.848 186.759 88.7343V78.2268H191.316V74.3524H186.759V68.9689H181.948V68.9714H181.947ZM194.211 95.6209H199.022V74.2134H194.211V95.6209ZM196.607 70.6741C198.202 70.6741 199.489 69.3794 199.489 67.757C199.489 66.1317 198.205 64.8202 196.607 64.8202C195.03 64.8202 193.725 66.1317 193.725 67.7566C193.725 69.3794 195.03 70.6717 196.607 70.6717V70.6741ZM212.221 96.0535C218.589 96.0535 222.465 91.8655 222.465 84.9186C222.465 77.9906 218.57 73.7836 212.221 73.7836C205.889 73.7836 201.974 78.0102 201.974 84.9182C201.974 91.8655 205.831 96.0535 212.221 96.0535ZM212.221 91.9824C208.85 91.9824 206.921 89.4003 206.921 84.9186C206.921 80.4566 208.85 77.8548 212.221 77.8548C215.569 77.8548 217.499 80.4561 217.499 84.9186C217.499 89.4003 215.589 91.9824 212.221 91.9824ZM225.339 95.6209H230.17V83.1576C230.17 80.0067 231.984 78.0102 234.863 78.0102C237.806 78.0102 239.167 79.6548 239.167 82.9217V95.6209H244V81.7681C244 76.6597 241.408 73.7832 236.657 73.7832C233.48 73.7832 231.338 75.2506 230.325 77.6383H229.994V74.2138H225.339V95.6209Z" fill="white"/>
</g>
<defs>
<clipPath id="clip0_436_380">
<rect width="209" height="73" fill="white" transform="translate(35 44)"/>
</clipPath>
</defs>
</svg>
