<svg width="279" height="279" viewBox="0 0 279 279" fill="none" xmlns="http://www.w3.org/2000/svg">
<path d="M55.5774 107.162L37.8245 117.54L37.5824 138.703C37.5017 150.297 37.5824 159.865 37.7438 159.865C37.9052 159.865 44.1187 156.378 51.5427 152.081L65.0187 144.216L62.3558 142.594L59.7736 140.892L56.8685 142.513C55.2546 143.405 51.5427 145.513 48.4763 147.216L43.0697 150.297L43.2311 135.54L43.4732 120.784L55.8195 113.649L68.0851 106.432V115.919V125.486L70.5867 126.946C71.9585 127.757 73.1689 128.243 73.411 128C73.5724 127.838 73.6531 120.703 73.5724 112.27L73.3303 96.8647L55.5774 107.162Z" fill="white"/>
<path d="M76.1562 112.432C76.1562 121.108 76.3983 128.243 76.6404 128.243C76.8825 128.243 78.1736 127.594 79.4647 126.865L81.8049 125.486V115.919V106.432L94.1512 113.567L106.417 120.784L106.659 135.54L106.82 150.216L101.817 147.297C98.9929 145.675 95.2003 143.567 93.3443 142.675L90.0358 140.973L87.4535 142.594L84.952 144.216L98.0246 151.838C105.287 156.054 111.501 159.621 111.823 159.703C112.227 159.865 112.388 150.459 112.308 138.784L112.066 117.459L97.5404 109.027C89.5516 104.324 81.4821 99.6214 79.6261 98.5674L76.1562 96.5404V112.432Z" fill="white"/>
<path d="M55.7394 116L46.1367 121.595L52.9151 125.568C73.9765 138.054 74.4607 138.298 76.7201 137.244C78.6568 136.352 97.5394 125.487 101.897 122.811C103.753 121.676 103.592 121.514 94.2309 116C88.9051 112.919 84.3054 110.406 83.9827 110.406C83.5792 110.406 83.4178 111.784 83.5792 113.406C83.8213 116.162 84.3054 116.73 88.0981 119C92.9398 121.919 93.2626 121.433 82.7722 127.352C78.334 129.946 74.7834 131.406 73.9765 131.162C73.3309 130.838 69.2962 128.649 65.1 126.135L57.434 121.595L61.7915 119.081C65.5842 116.73 66.0684 116.162 66.3105 113.406C66.4719 111.784 66.3105 110.406 65.907 110.406C65.5842 110.406 60.9846 113 55.7394 116Z" fill="white"/>
<path d="M63.5658 120.46C62.0326 121.676 62.0326 121.676 63.6465 122.811C65.6639 124.351 66.4708 123.865 66.4708 121.27C66.4708 119 65.8253 118.838 63.5658 120.46Z" fill="white"/>
<path d="M83.418 121.757C83.418 124.514 83.9021 124.676 86.2423 122.892C87.8562 121.676 87.8562 121.676 86.323 120.459C83.9828 118.757 83.418 119 83.418 121.757Z" fill="white"/>
<path d="M44.6836 135.054C44.6836 146.811 44.9257 147.379 48.557 144.784C50.0902 143.73 50.3322 142.838 50.3322 138.703C50.3322 135.054 50.5743 133.838 51.3813 134.081C51.9461 134.243 55.9002 136.352 60.2577 138.784L68.0851 143.243V153.541V163.838L63.889 161.406C59.6929 158.892 59.6122 158.892 57.0299 160.27C55.5774 161.081 54.6091 161.973 54.7705 162.298C54.9319 162.622 58.4824 164.811 62.5979 167.162C66.7133 169.595 70.9095 172.027 71.9585 172.676L73.7338 173.811V156.946V140L60.3384 132.298C52.9952 128.081 46.4589 124.514 45.8133 124.352C44.9257 124.108 44.6836 126.054 44.6836 135.054Z" fill="white"/>
<path d="M89.713 132.135L76.2369 140L76.1562 156.865V173.811L78.8192 172.189C80.191 171.298 84.3871 168.865 88.0184 166.757C91.7304 164.73 94.8775 162.622 95.1196 162.216C95.4423 161.811 94.3933 160.919 92.9408 160.189C90.2779 158.973 90.1165 158.973 86.001 161.406L81.8049 163.838V153.541V143.243L90.1972 138.541C94.7161 136.027 98.7508 133.919 98.9929 133.919C99.3157 133.919 99.5578 136.027 99.5578 138.703C99.5578 142.838 99.7999 143.649 101.575 144.784C102.624 145.514 103.915 146.081 104.399 146.081C104.884 146.081 105.206 142.108 105.206 135.135C105.206 126.865 104.964 124.189 104.238 124.27C103.673 124.27 97.1369 127.838 89.713 132.135Z" fill="white"/>
<path d="M125.379 140V149.324H127.8H130.221V142.189L130.301 135.135L134.094 139.594C141.921 148.757 142.648 149.324 146.682 149.324H150.394V140V130.676H147.973H145.553V137.73L145.472 144.865L142.89 141.946C141.518 140.405 138.613 137.162 136.596 134.892C133.206 130.919 132.722 130.676 129.172 130.676H125.379V140Z" fill="white"/>
<path d="M155.316 132.784C154.025 134.486 153.621 136.108 153.621 140C153.621 143.892 154.025 145.513 155.316 147.216C156.93 149.243 157.172 149.324 166.129 149.324C178.233 149.324 179.04 148.757 179.04 140C179.04 131.243 178.233 130.676 166.129 130.676C157.172 130.676 156.93 130.757 155.316 132.784ZM173.391 140V144.865L167.097 145.108C163.062 145.27 160.319 145.027 159.593 144.378C158.14 143.162 158.059 135.865 159.512 135.216C159.996 135.054 163.385 134.892 166.936 134.973L173.391 135.135V140Z" fill="white"/>
<path d="M181.867 132.054C181.867 135.297 184.288 147.135 185.176 148.27C185.821 149 187.274 149.324 189.049 149.162C191.793 148.919 192.115 148.595 195.182 142.108L198.41 135.378L201.637 142.108C204.704 148.595 205.027 148.919 207.77 149.162C211.644 149.486 212.37 148.432 213.742 140.324C215.436 130.919 215.356 130.676 212.612 130.676C210.353 130.676 210.272 130.919 209.384 135.784C208.9 138.622 208.497 141.622 208.497 142.432C208.497 144.54 207.528 143.243 205.269 137.973C202.686 131.973 201.476 130.676 198.41 130.676C195.343 130.676 194.133 131.973 191.551 137.973C189.291 143.243 188.323 144.54 188.323 142.432C188.323 141.622 187.919 138.622 187.435 135.784C186.547 130.919 186.467 130.676 184.207 130.676C182.513 130.676 181.867 131.081 181.867 132.054Z" fill="white"/>
<path d="M219.955 131.973C218.341 133.108 218.18 133.919 218.18 140C218.18 149.243 218.341 149.324 232.463 149.324H243.195V147.297V145.351L233.35 145.108L223.425 144.865V140V135.135L233.35 134.892L243.195 134.649V132.703V130.676H232.463C224.07 130.676 221.407 130.919 219.955 131.973Z" fill="white"/>
<path d="M52.7539 139.595C52.7539 142.27 53.2381 142.514 55.4975 140.811C57.1921 139.514 57.1921 139.433 54.6099 138.054C52.9153 137.162 52.7539 137.243 52.7539 139.595Z" fill="white"/>
<path d="M94.9581 138.135C92.6179 139.27 92.6179 139.919 95.1195 141.054C97.0562 141.946 97.1369 141.865 97.1369 139.595C97.1369 138.216 97.0562 137.162 96.9755 137.243C96.8141 137.243 95.9264 137.649 94.9581 138.135Z" fill="white"/>
<path d="M224.633 140V142.027H233.913H243.193V140V137.973H233.913H224.633V140Z" fill="white"/>
<path d="M83.9016 146.73C83.6595 146.973 83.4174 148.351 83.4174 149.811C83.4174 152.243 83.9016 152.649 91.4869 157.027C95.9251 159.541 99.5564 161.811 99.5564 162.135C99.4757 162.784 75.9128 176.405 74.9444 176.405C73.9761 176.405 50.4131 162.784 50.3325 162.216C50.3325 161.892 53.9637 159.541 58.402 157.027C66.1487 152.568 66.4714 152.243 66.4714 149.649C66.4714 148.108 66.068 146.892 65.5838 146.892C64.3734 146.892 39.0352 161.486 39.0352 162.216C39.1159 163.108 74.5409 182.973 75.59 182.73C77.6881 182.162 110.773 162.703 110.612 162.054C110.289 161.081 84.3857 146.162 83.9016 146.73Z" fill="white"/>
<path d="M63.2422 156.622C62.1932 157.352 62.2739 157.595 63.565 158.649C65.8245 160.352 66.47 160.189 66.47 157.838C66.47 155.73 65.2596 155.243 63.2422 156.622Z" fill="white"/>
<path d="M83.418 157.838C83.418 160.189 84.0635 160.352 86.323 158.649C87.6141 157.595 87.6948 157.352 86.6458 156.622C84.6284 155.243 83.418 155.73 83.418 157.838Z" fill="white"/>
</svg>
