<?xml version="1.0" encoding="utf-8"?>
<!-- Generator: Adobe Illustrator 28.2.0, SVG Export Plug-In . SVG Version: 6.00 Build 0)  -->
<svg version="1.1" id="Layer_1" xmlns="http://www.w3.org/2000/svg" xmlns:xlink="http://www.w3.org/1999/xlink" x="0px" y="0px"
	 viewBox="0 0 826.3 240.9" style="enable-background:new 0 0 826.3 240.9;" xml:space="preserve">
<style type="text/css">
	.st0{fill:#FA6200;}
</style>
<path class="st0" d="M120.5,0C53.9,0,0,53.9,0,120.5S53.9,241,120.5,241S241,187,241,120.5S187,0,120.5,0z M120.5,212.2
	c-50.8,0-91.9-41.2-91.9-91.9s41.2-91.9,91.9-91.9s91.9,41.2,91.9,91.9S171.3,212.2,120.5,212.2z"/>
<g id="highlight">
	<g id="highlight-2">
		<path class="st0" d="M54.3,140c5.9,58,61.5,52,61.5,52C69.3,182.6,54.3,140,54.3,140z"/>
	</g>
</g>
<path class="st0" d="M290.7,90.6V74.2h-26.8v106.1h26.8v-52.9c0-9.8,2.1-16.7,6.4-20.7c4.3-4,10.6-5.9,19.1-5.9h7.1V72.6
	c-7.1,0-13.5,1.6-19.1,4.8S294.2,85,290.7,90.6L290.7,90.6z"/>
<path class="st0" d="M417.9,74.2v15.1h0c-3.6-4.8-8.3-8.9-14.3-12.1c-5.9-3.2-12.9-4.8-20.8-4.8c-9.1,0-17.3,2.2-24.6,6.7
	c-7.3,4.5-13.1,10.8-17.4,19.2c-4.3,8.3-6.4,17.8-6.4,28.5s2.1,20.5,6.4,28.8c4.3,8.4,10.1,14.8,17.4,19.4
	c7.3,4.6,15.5,6.9,24.4,6.9c7.9,0,14.9-1.6,21-4.9c6.1-3.3,10.8-7.4,14.3-12.3v15.5h27V74.2H417.9z M414.1,144L414.1,144
	c-2.6,4.6-6,8.2-10.3,10.7c-4.3,2.5-9,3.7-14,3.7c-5,0-9.4-1.3-13.7-3.8c-4.3-2.5-7.7-6.2-10.3-11c-2.6-4.8-3.9-10.4-3.9-16.8
	c0-6.4,1.3-11.9,3.9-16.6c2.6-4.7,6-8.2,10.2-10.6c4.2-2.4,8.8-3.6,13.8-3.6c5,0,9.6,1.2,14,3.7c4.3,2.5,7.8,6.1,10.3,10.7
	c2.5,4.7,3.8,10.2,3.8,16.8S416.7,139.3,414.1,144z"/>
<path class="st0" d="M530,72.6c-6.6,0-12.7,1.3-18.3,3.9c-5.6,2.6-10.1,6.2-13.7,10.8V74.2h-26.8v106.1H498v-58.6
	c0-8.4,2.1-14.9,6.4-19.4s10.1-6.8,17.5-6.8s13,2.3,17.2,6.8c4.2,4.5,6.3,11,6.3,19.4v58.6h26.8V118c0-14.3-3.9-25.4-11.7-33.4
	C552.9,76.6,542.6,72.6,530,72.6L530,72.6z"/>
<path class="st0" d="M674.4,74.2v15.1l0,0c-3.5-5-8.2-9-14.2-12.2c-6-3.1-13-4.7-20.9-4.7c-9.1,0-17.3,2.2-24.6,6.7
	c-7.3,4.5-13.2,10.8-17.4,19.1c-4.3,8.3-6.4,17.8-6.4,28.5c0,10.7,2.1,20.5,6.4,28.8c4.3,8.4,10.1,14.8,17.5,19.4
	c7.4,4.6,15.6,6.9,24.5,6.9c7.8,0,14.7-1.7,20.8-5c6.1-3.3,10.8-7.5,14.3-12.5V181c0,9.5-2.4,16.5-7.3,21.2c-4.8,4.7-11.2,7-19,7
	c-6.6,0-12.3-1.4-17-4.3c-4.7-2.9-7.7-6.7-9.1-11.6h-26.6c1.3,12.1,6.7,21.7,16.4,28.7c9.6,7,22,10.5,37.1,10.5
	c11.2,0,20.8-2.3,28.7-6.8c7.9-4.5,13.8-10.7,17.8-18.4s5.9-16.5,5.9-26.3V74.2H674.4z M670.6,144L670.6,144
	c-2.6,4.6-6,8.2-10.3,10.7s-9,3.7-14,3.7s-9.4-1.3-13.7-3.8c-4.3-2.5-7.7-6.2-10.3-11c-2.6-4.8-3.9-10.4-3.9-16.8
	c0-6.4,1.3-11.9,3.9-16.6c2.6-4.7,6-8.2,10.2-10.6c4.2-2.4,8.8-3.6,13.8-3.6s9.6,1.2,14,3.7c4.3,2.5,7.8,6.1,10.3,10.7
	c2.5,4.7,3.8,10.2,3.8,16.8S673.1,139.3,670.6,144z"/>
<path class="st0" d="M826.3,124.9c0-10.3-2.2-19.5-6.6-27.5c-4.4-8-10.6-14.1-18.6-18.5c-8-4.3-17-6.5-27.1-6.5s-19.7,2.2-27.8,6.7
	c-8,4.5-14.3,10.8-18.8,19.1c-4.5,8.3-6.7,17.9-6.7,28.9c0,11,2.3,20.4,6.8,28.7c4.5,8.3,10.8,14.7,19,19.2
	c8.1,4.5,17.3,6.8,27.5,6.8c12.6,0,23.3-3.3,32-9.9c8.7-6.6,14.6-15,17.6-25.2h-28.9c-4.2,8.6-11.3,12.8-21.3,12.8
	c-6.9,0-12.7-2.2-17.4-6.5c-4.7-4.3-7.4-10.3-8-18h77.6C826.1,132.2,826.3,128.7,826.3,124.9z M748.2,117.3L748.2,117.3
	c1-7.2,3.8-12.8,8.3-16.8c4.5-4,10.1-6,16.8-6c7,0,13,2.1,17.8,6.2s7.3,9.7,7.5,16.6H748.2z"/>
</svg>
