<svg width="1444" height="425" viewBox="0 0 1444 425" fill="none" xmlns="http://www.w3.org/2000/svg">
<path d="M357.5 335C219 330 210.5 295.5 31 295.5M357.5 335C344 359 313.2 412.1 298 432.5M357.5 335C399 241.5 399.5 214.5 437.5 174.5M357.5 335C405.5 340.5 612 300 722.5 304M31 295.5L1 308.5M31 295.5C74 278.333 164.7 240.3 183.5 225.5M437.5 174.5C365 174.5 233.9 225.5 183.5 225.5M437.5 174.5C495 175.5 632.5 186.25 722.5 221.25M437.5 174.5C449.833 168.5 479.6 152.9 500 138.5M183.5 225.5C122.667 221 1 212.8 1 214M183.5 225.5L325 138.5M555.5 1L325 138.5M325 138.5L79 133.5M325 138.5H500M1 133.5H79M79 133.5L1 164M79 133.5L262.25 67.25M445.5 1L262.25 67.25M262.25 67.25H1M262.25 67.25H722.5M1443.5 67.25H1177M722.5 67.25V138.5M722.5 67.25H849.5M722.5 67.25V1M722.5 432.5V304M722.5 304H1044M722.5 304V221.25M722.5 138.5V221.25M722.5 138.5C789.5 133 853.5 87 952.5 97.5M722.5 138.5H500M1443.5 304H1044M1044 304L1148.5 434M1044 304C1023.67 281.333 994 254.5 987 200M987 200C902.5 202.5 793.5 221.25 722.5 221.25M987 200C1122.5 200 1179 221.25 1252 211.66M987 200C975.5 163.5 952.5 97.5 952.5 97.5M1002.5 67.25C1002.5 67.25 1099.5 114.5 1122.5 131M1002.5 67.25H849.5M1002.5 67.25H1177M1002.5 67.25L900 11.1118M1443.5 322.5L1252 211.66M1252 211.66C1252 211.66 1145.5 147.5 1122.5 131M1252 211.66H1443.5M1122.5 131C1069.83 118 992.5 98.5 952.5 97.5M1122.5 131L1443.5 135.5M952.5 97.5C919.5 70.5 862 74 849.5 67.25M849.5 67.25L820 1M500 138.5L622 1M1177 67.25L1443.5 161.5M1177 67.25L1016 11.1118M1177 67.25V131.764M987 1L1016 11.1118M1016 11.1118H1260M1016 11.1118H900M1443.5 11.1118H1260M1260 11.1118L1443.5 49.5M1260 11.1118L1219.5 1M1 11.1118H192M192 11.1118L1 49.5M192 11.1118H900" stroke="url(#paint0_linear_217_26)"/>
<defs>
<linearGradient id="paint0_linear_217_26" x1="717.75" y1="1" x2="718" y2="520.5" gradientUnits="userSpaceOnUse">
<stop stop-color="#21965A" stop-opacity="0.19"/>
<stop offset="1" stop-color="#21965A"/>
</linearGradient>
</defs>
</svg>
