<svg width="6186" height="6347" viewBox="0 0 6186 6347" fill="none" xmlns="http://www.w3.org/2000/svg">
<path d="M4.43986 4.20879C2063.87 2.59707 4123.3 2.59707 6182.74 4.20879C6181.81 2117.35 6181.81 4230.5 6182.74 6343.64C4123.3 6343.64 2063.87 6343.64 4.43986 6343.64C2.52005 4230.5 2.52005 2117.35 4.43986 4.20879Z" stroke="#21965A" stroke-width="5" stroke-miterlimit="10"/>
<path d="M4.42969 6041.99C572.344 6049.15 1125.51 5899.71 1695.61 5967.13C2180.01 6024.53 2660.66 6033.03 3145.59 6082.46C3619.61 6130.81 4064.48 6119.53 4536.66 6066.16C5077.09 6005.1 5639.42 6041.45 6182.9 6041.81" stroke="#21965A" stroke-width="5" stroke-miterlimit="10"/>
<path d="M4.42969 5739.89C595.12 5702.28 1219.67 5281.44 1806.35 5515.59C2010.72 5597.07 2184.29 5711.59 2407.07 5737.47C2696.35 5771.14 2972.89 5805.97 3259.21 5869.99C3533.56 5931.32 3827.03 6019.43 4110.82 5998.03C4301.49 5983.71 4457.95 5897.12 4632.22 5827.91C4852.73 5739.62 5077.26 5753.68 5309.65 5750.9C5600.67 5747.41 5891.7 5741.23 6182.29 5740.34" stroke="#21965A" stroke-width="5" stroke-miterlimit="10"/>
<path d="M4.42969 5437.78C436.998 5378.41 821.309 5156.44 1231.19 5016.04C1481.9 4930.09 1703.55 4878.42 1921.71 5057.95C2089.17 5195.84 2189 5375.1 2410.39 5430.7C2557.51 5467.68 2714.07 5469.74 2863.29 5508.43C3036.42 5553.2 3206.85 5608.35 3378.15 5661.45C3660.88 5749.29 4041.35 5930.96 4343.9 5878.76C4526.1 5847.33 4605.69 5709.17 4732.66 5591.79C4906.66 5430.61 5118.37 5460.52 5338.18 5455.87C5619.79 5449.87 5901.21 5439.93 6182.81 5437.96" stroke="#21965A" stroke-width="5" stroke-miterlimit="10"/>
<path d="M4.42969 5136.03C471.205 5067.89 874.54 4784.59 1307.89 4610.88C1554.33 4512.39 1799.36 4432.7 1990.47 4663.35C2132.63 4834.82 2178 5058.94 2410.39 5128.96C2559.35 5173.73 2726.89 5173.73 2879.96 5219.13C3070.54 5275.89 3257.37 5345.2 3444.82 5411.82C3632.26 5478.43 3819.09 5548.01 4009.85 5604.68C4147.9 5645.87 4331.16 5715.54 4478.02 5682.23C4670 5638.71 4692.6 5470.91 4785.45 5324.07C4915.91 5117.32 5143.24 5164.33 5355.29 5158.6C5631.22 5151.25 5906.8 5138.36 6182.9 5136.39" stroke="#21965A" stroke-width="5" stroke-miterlimit="10"/>
<path d="M4.42969 4834.19C448.167 4773.31 813.106 4493.22 1220.19 4322.74C1487.92 4210.64 1706.08 4169 1924.24 4384.52C2102.26 4560.65 2229.66 4818.52 2482.73 4891.5C2626.63 4933.05 2791.56 4934.12 2939.47 4972.08C3114.96 5016.85 3288.53 5070.58 3462.01 5122.33C3635.49 5174.09 3809.14 5227.72 3984.37 5272.49C4119.8 5307.23 4300.61 5373.04 4442.51 5344.12C4639.02 5304.37 4706.83 5115.53 4819.92 4971.55C4973.42 4776.26 5183.38 4799.99 5409.22 4807.51C5667.78 4816.02 5923.38 4840.37 6182.55 4834.37" stroke="#21965A" stroke-width="5" stroke-miterlimit="10"/>
<path d="M4.42969 4532.34C374.953 4484.53 642.243 4229.16 971.316 4073.27C1270.98 3931.35 1489.75 3998.5 1753.9 4180.18C2039.34 4376.45 2330.37 4705.87 2678.9 4777.41C2943.57 4831.67 3237.39 4822.18 3507.3 4852.54C3763.42 4881.46 4076.35 4962.13 4332.99 4915.93C4570.26 4873.13 4726.81 4665.22 4904.66 4518.46C5337.57 4162.27 5715.25 4515.42 6182.46 4532.43" stroke="#21965A" stroke-width="5" stroke-miterlimit="10"/>
<path d="M4.42969 4230.6C302.524 4195.86 439.179 3968.43 686.486 3831.43C989.117 3663.81 1286.6 3843.88 1562.09 3992.6C1980 4218.15 2428.01 4610.43 2904.04 4692.36C3117.49 4729.07 3355.81 4641.86 3560.61 4587.95C3777.38 4530.92 3989.61 4505.49 4208.46 4467.25C4505.95 4415.32 4749.5 4195.23 5001.26 4041.49C5208.6 3915.06 5487.49 3762.04 5719.96 3918.28C5904.35 4042.21 5936.38 4198.01 6182.73 4230.33" stroke="#21965A" stroke-width="5" stroke-miterlimit="10"/>
<path d="M4.42969 3928.67C270.149 3899.39 294.757 3709.11 487.698 3571.4C764.412 3373.88 1166.35 3640.53 1422.91 3764.9C1731.82 3914.61 2032.18 4082.67 2339.18 4236.68C2562.75 4348.88 2811.8 4495.63 3061.29 4537.54C3279.45 4574.16 3439.32 4446.39 3596.22 4311C3769 4161.92 3898.76 4100.76 4121.11 4067.18C4461.88 4015.52 4770.09 3777.88 5070.63 3621.27C5263.92 3520.54 5643.61 3290.78 5835.59 3509.98C5988.39 3684.4 5902.96 3879.96 6183.25 3928.49" stroke="#21965A" stroke-width="5" stroke-miterlimit="10"/>
<path d="M4.42969 3626.64C257.495 3592.44 298.597 3425.81 489.792 3298.39C768.601 3112.51 1157.01 3363.93 1419.24 3481.05C1721.35 3615.9 2017.35 3764.89 2318.06 3903.05C2542.51 4006.2 2785.36 4137.29 3029.79 4183.76C3234.77 4222.8 3405.02 4107.21 3565.59 3992.06C3740.73 3866.7 3881.22 3817.54 4089.17 3779.4C4435.35 3716.09 4739.55 3487.05 5047.07 3325.7C5245.42 3221.65 5612.98 2997.09 5813.6 3211.27C5973.29 3380.95 5906.27 3580.17 6182.73 3626.64" stroke="#21965A" stroke-width="5" stroke-miterlimit="10"/>
<path d="M4.42969 3324.8C246.064 3303.04 394.151 3172.58 611.7 3089.85C895.047 2981.59 1193.32 3098.8 1468.46 3184.4C1902.77 3318.71 2347.38 3524.66 2800.28 3581.87C2995.84 3606.58 3201.7 3583.93 3399.79 3594.94C3592.9 3605.69 3799.98 3626.01 3991.79 3592.88C4320.69 3536.12 4607.17 3286.57 4889.47 3121.37C5118.19 2987.06 5405.29 2819.62 5660.89 2982.85C5863.6 3112.32 5920.32 3292.12 6182.99 3324.8" stroke="#21965A" stroke-width="5" stroke-miterlimit="10"/>
<path d="M4.42969 3023.06C267.444 3018.05 508.554 2945.07 766.419 2906.66C1015.3 2869.59 1273.77 2875.77 1524.66 2880.87C1852.42 2887.5 2179.14 2896.81 2506.81 2895.38C2767.56 2894.21 2970.54 3029.69 3184.42 3169.37C3378.93 3296.16 3618.3 3479.36 3863.68 3440.68C4169.54 3392.42 4436.75 3114.12 4685.62 2946.6C4937.73 2776.47 5167.23 2673.41 5466.46 2774.5C5719.53 2859.92 5906.45 3006.23 6182.55 3023.15" stroke="#21965A" stroke-width="5" stroke-miterlimit="10"/>
<path d="M4.42969 2721.22C299.644 2725.79 593.375 2705.91 888.327 2698.12C1137.82 2691.49 1340.79 2686.03 1573.87 2584.05C1792.03 2488.51 2035.59 2314.26 2277.4 2293.31C2576.8 2267.43 2823.06 2578.58 3018.62 2772.17C3202.57 2954.2 3475.1 3300.46 3765.95 3254.07C4056.8 3207.69 4302.62 2912.84 4527.68 2742.08C4785.45 2546.53 4996.55 2481.79 5313.05 2545.99C5607.48 2605.63 5878.52 2711.64 6182.03 2721.22" stroke="#21965A" stroke-width="5" stroke-miterlimit="10"/>
<path d="M4.42969 2419.1C316.224 2414.89 627.757 2426.35 939.464 2430.02C1185.72 2432.89 1398.39 2440.5 1613.93 2304.22C1815.51 2176.54 1996.32 1950.54 2247.12 1926.72C2561.97 1897.35 2810.75 2242.53 3004.13 2449.19C3188.61 2646.17 3457.91 3023.32 3764.99 2965.12C4047.46 2911.39 4277.84 2644.92 4500.1 2478.82C4765.12 2280.85 4961.73 2240.65 5281.81 2287.48C5582.79 2331.53 5878.61 2396.18 6182.38 2419.01" stroke="#21965A" stroke-width="5" stroke-miterlimit="10"/>
<path d="M4.42969 2117.27C367.448 2119.86 726.016 2175.74 1087.38 2204.84C1348.65 2225.97 1574.66 2236.71 1800.06 2082.61C2004.78 1942.66 2202.87 1698.58 2462.48 1670.73C2761.54 1639.03 2998.72 1941.59 3189.31 2134.46C3387.13 2335.56 3613.06 2622.09 3918.75 2594.69C4156.11 2573.38 4375.49 2408.36 4583.87 2305.12C4837.64 2179.76 5052.22 2180.66 5326.23 2165.17C5612.98 2148.96 5894.75 2109.12 6182.64 2117.09" stroke="#21965A" stroke-width="5" stroke-miterlimit="10"/>
<path d="M4.42969 1815.53C441.361 1840.42 867.384 1947.42 1299.17 2013.23C1593.16 2058 1826.33 2079.22 2078.61 1898.98C2294.85 1744.43 2505.42 1477.6 2781.43 1439.37C3059.2 1400.78 3276.4 1641.1 3464.28 1814.63C3673.71 2007.95 3853.3 2182.55 4144.94 2197.77C4333.16 2207.71 4523.23 2191.77 4711.37 2185.69C4941.48 2178.34 5169.5 2206.01 5389.58 2121.13C5662.98 2015.65 5884.72 1848.57 6182.73 1815.89" stroke="#21965A" stroke-width="5" stroke-miterlimit="10"/>
<path d="M4.42969 1513.77C506.024 1557.74 991.212 1709.87 1484.17 1807.28C1805.39 1870.77 2043.88 1901.93 2318.5 1699.03C2545.38 1531.77 2766.51 1244.79 3056.84 1197.61C3313.83 1155.52 3516.29 1343.38 3701.55 1496.76C3795.09 1574.21 3887.07 1656.68 3992.31 1717.48C4110.73 1785.97 4212.3 1785.97 4340.58 1811.85C4524.27 1849.01 4660.58 1952.25 4820.53 2043.58C5034.51 2166.07 5234.95 2195.08 5445 2044.39C5702.77 1858.95 5857.49 1584.33 6182.73 1513.95" stroke="#21965A" stroke-width="5" stroke-miterlimit="10"/>
<path d="M4.42969 1211.84C528.014 1256.17 1032.92 1429.52 1545.69 1537.32C1873.45 1606.18 2110.2 1634.83 2390.23 1428.53C2618.25 1260.55 2850.2 962.922 3142.62 916.72C3386.44 878.128 3591.68 1050.4 3774.24 1189.46C3864.47 1258.23 3953.74 1332.72 4054.36 1385.28C4174.08 1447.96 4276.01 1446.35 4401.84 1474.82C4604.47 1521.11 4702.64 1663.93 4851.34 1797.17C5406.08 2292.95 5700.07 1308.99 6182.73 1211.84" stroke="#21965A" stroke-width="5" stroke-miterlimit="10"/>
<path d="M4.42969 910.001C484.382 948.414 949.674 1084.6 1422.3 1171.37C1733.65 1228.58 1967.26 1246.22 2247.29 1082.37C2483.43 944.295 2722.88 710.685 3002.21 672.899C3236.52 641.202 3449.62 778.019 3644.65 891.825C3862.37 1018.88 4040.13 1077.53 4282.73 1124.63C4481.16 1162.86 4617.03 1278.55 4785.37 1382.5C5376.49 1746.93 5652.25 1009.39 6182.73 910.091" stroke="#21965A" stroke-width="5" stroke-miterlimit="10"/>
<path d="M4.42969 607.978C651.318 632.691 1360.16 933.188 1994.05 711.755C2243.45 624.543 2486.13 488.622 2753.25 467.938C2982.58 450.03 3200.39 524.796 3414.8 597.502C3639.33 673.611 3840.91 710.591 4075.04 731.812C4282.11 749.899 4466.5 823.591 4664.33 885.015C4896.54 956.647 5128.23 978.137 5361.4 896.208C5643.78 796.639 5877.3 632.065 6182.73 607.978" stroke="#21965A" stroke-width="5" stroke-miterlimit="10"/>
<path d="M4.42969 305.959C586.307 301.393 1170.19 415.825 1751.11 343.477C2244.24 282.052 2698.1 242.296 3194.28 302.825C3644.04 357.713 4096.33 351.535 4547.75 395.32C4795.84 419.407 5051.61 429.614 5299.79 402.394C5596.49 369.801 5882.54 301.572 6182.9 305.87" stroke="#21965A" stroke-width="5" stroke-miterlimit="10"/>
<path d="M5888.47 3.94141C5885.67 604.844 5944.66 1203.78 5914.65 1804.95C5892.13 2249.25 5873.46 2680.74 5940.82 3122.08C6020.15 3642.85 5970.58 4132.27 5921.71 4653.22C5869.36 5208.37 5887.86 5785.63 5888.99 6343.55" stroke="#21965A" stroke-width="5" stroke-miterlimit="10"/>
<path d="M5594.31 4.22656C5608.36 633.782 5802.52 1322.88 5672.85 1946.44C5590.47 2341.31 5586.72 2632.76 5760.11 3008.2C5854.62 3213.07 5932.02 3407.37 5919.19 3638.83C5900.87 3970.13 5784.89 4293.55 5712.12 4614.82C5651.03 4883.44 5647.54 5143.11 5635.41 5416.38C5621.62 5725.74 5597.62 6034.21 5594.31 6343.84" stroke="#21965A" stroke-width="5" stroke-miterlimit="10"/>
<path d="M5300.23 4.48828C5322.74 482.542 5404.95 954.508 5456.52 1429.61C5477.81 1624.09 5551.11 1917.24 5433.05 2093.46C5371.96 2184.97 5319.6 2194.28 5309.74 2326.98C5292.99 2560.95 5441.42 2728.03 5584.54 2889.29C5732.88 3056.82 5881.23 3225.78 5855.05 3468.43C5813.69 3848.8 5625.99 4215.38 5507.22 4574.07C5412.28 4860.6 5392.21 5125.73 5369.6 5423.72C5346.39 5730.84 5307.73 6035.55 5299.79 6343.83" stroke="#21965A" stroke-width="5" stroke-miterlimit="10"/>
<path d="M5005.96 4.31641C5032.14 523.649 5135.98 1034.03 5200.56 1548.88C5216.18 1673.43 5328.31 2112.18 5170.98 2182.02C5073.68 2225.27 5045.58 2117.55 5017.04 2290.9C4977.08 2533.82 5195.32 2694.28 5357.37 2822.41C5538.01 2965.67 5724.49 3109.74 5693.51 3369.95C5644.56 3780.49 5405.02 4175.81 5258.68 4555.28C5144.62 4850.76 5122.02 5116.78 5092.88 5427.84C5063.9 5733.98 5014.34 6035.64 5006.4 6343.66" stroke="#21965A" stroke-width="5" stroke-miterlimit="10"/>
<path d="M4711.53 4.39844C4729.68 514.329 4866.77 1010.38 4943.56 1512.7C4968.78 1677.54 5073.59 2049.31 4905.95 2170.01C4805.86 2241.65 4733.61 2205.83 4716.59 2365.3C4690.41 2607.06 4879.6 2756.41 5044.79 2888.21C5223.51 3030.94 5397.77 3173.22 5364.44 3429.48C5312.08 3832.95 5127.52 4225.05 5005.78 4609.53C4960.93 4751.36 4914.94 4895.07 4889.81 5042.19C4865.29 5185.99 4876.72 5330.95 4852.98 5475.47C4804.73 5769.79 4713.36 6041.54 4711.44 6343.47" stroke="#21965A" stroke-width="5" stroke-miterlimit="10"/>
<path d="M4417.48 4.31641C4452.38 483.176 4636.6 933.115 4745.24 1396.93C4806.33 1655.97 4864.7 1922.71 4688 2144.23C4575.25 2285.53 4434.32 2388.05 4411.89 2582.98C4385.19 2815.78 4530.92 2959.49 4688.08 3098.1C4860.95 3250.32 4972.04 3378.45 4963.66 3623.88C4950.4 4008.9 4866.01 4395.99 4814.53 4777.07C4778.31 5044.97 4801.09 5350.75 4705.88 5604.06C4606.66 5867.84 4438.25 6048.18 4417.48 6343.3" stroke="#21965A" stroke-width="5" stroke-miterlimit="10"/>
<path d="M4123.29 4.12109C4180.88 450.747 4415.62 844.544 4560.65 1264.4C4674.1 1591.76 4659.52 1821.43 4480.9 2117.09C4344.33 2343.17 4144.75 2560.58 4106.1 2833.41C4074.94 3053.41 4177.39 3195.51 4321.12 3341.55C4478.19 3501.46 4532.21 3621.72 4547.39 3849.24C4572.52 4223.78 4606.29 4597.7 4636.4 4971.89C4656.91 5226.09 4740.07 5531.43 4579.68 5751.43C4415.8 5976.26 4176 6037.95 4123.37 6343.37" stroke="#21965A" stroke-width="5" stroke-miterlimit="10"/>
<path d="M3829.23 4.12109C3894.15 433.913 4172.44 782.403 4342.95 1171.99C4497.06 1523.88 4424.89 1766.45 4247.4 2093.09C4091.89 2379.62 3852.7 2673.76 3802.35 3006.4C3770.67 3216.55 3854.27 3352.47 3978.01 3505.4C4113.71 3673.29 4142.86 3785.57 4167.46 4001.46C4210.14 4375.37 4336.67 4738.55 4425.85 5102.8C4485.19 5344.56 4610.42 5659.83 4402.47 5854.93C4196.7 6048.16 3898.52 6018.08 3828.97 6344" stroke="#21965A" stroke-width="5" stroke-miterlimit="10"/>
<path d="M3534.86 4.39844C3590.45 431.862 3888.19 750.714 4065.69 1128.22C4228.96 1475.36 4146.58 1729.12 3964.9 2048.06C3802.67 2332.8 3543.41 2630.79 3496.81 2967.81C3467.06 3182.71 3567.15 3342.18 3684.95 3507.38C3815.85 3690.67 3862.45 3825.61 3885.66 4050.08C3921.96 4403.32 4035.41 4747.96 4114.56 5092.33C4170.4 5335.25 4285.94 5640.05 4086.54 5838.82C3887.15 6037.6 3605.46 6025.7 3535.21 6343.83" stroke="#21965A" stroke-width="5" stroke-miterlimit="10"/>
<path d="M3240.72 4.31641C3298.67 405.187 3609.07 664.495 3796.68 1002.96C3976.27 1327.09 3879.15 1570.01 3679.31 1854.12C3503.74 2103.94 3215.77 2365.04 3163.41 2682.91C3119.78 2949.11 3299.02 3212.54 3419.88 3431.46C3555.14 3676.53 3673.47 3895.19 3685.6 4180.91C3697.38 4459.2 3698.51 4737.85 3704.18 5016.23C3708.9 5250.56 3761.08 5506.19 3635.16 5715.72C3494.31 5949.77 3283.92 6049.52 3240.64 6343.84" stroke="#21965A" stroke-width="5" stroke-miterlimit="10"/>
<path d="M2946.53 4.12109C3010.5 372.578 3334.34 556.583 3534.43 844.006C3738.11 1136.62 3611.75 1364.41 3394.81 1599.99C3208.15 1802.89 2876.46 2021.28 2819.48 2314.25C2755.95 2640.81 3031.53 3055.47 3163.73 3332.77C3304.84 3628.7 3545.78 4002.89 3510.43 4347.44C3488.27 4563.41 3351.79 4733 3265.22 4923C3170.54 5130.73 3194.02 5342.23 3141.66 5559.27C3076.12 5830.76 2955 6057.11 2946.01 6343.55" stroke="#21965A" stroke-width="5" stroke-miterlimit="10"/>
<path d="M2652.38 4.03516C2719.75 354.495 3053.79 471.076 3265.41 718.833C3492.3 985.215 3334.44 1212.47 3109.56 1406.05C2912.6 1575.55 2553.07 1749.17 2486.67 2029.34C2445.74 2202.24 2546.88 2416.24 2605.69 2571.51C2693.83 2804.31 2797.67 3030.22 2899.25 3256.84C3000.83 3483.47 3104.67 3709.56 3192.81 3942.09C3249.27 4091 3356.25 4311.98 3311.05 4478.26C3251.45 4697.63 3012.43 4730.49 2855.53 4846.81C2652.47 4997.32 2700.9 5205.68 2690.95 5436.07C2677.86 5739.52 2644.44 6039.21 2652.03 6343.47" stroke="#21965A" stroke-width="5" stroke-miterlimit="10"/>
<path d="M2358.11 4.03516C2423.99 355.122 2764.32 463.286 2977.68 707.103C3207.1 969.097 3049.67 1202.35 2819.47 1385.64C2619.55 1544.84 2253.22 1699.83 2188.38 1980.09C2148.41 2152.64 2255.05 2373.62 2311.86 2528.97C2399.12 2767.33 2499.56 3000.58 2597.91 3234.1C2696.26 3467.62 2796.87 3700.96 2884.13 3939.23C2938.41 4087.69 3052.12 4317.27 3005.08 4482.38C2942.08 4703.81 2702.36 4705.24 2539.97 4807.14C2327.91 4940.2 2374.16 5164.23 2371.11 5388.26C2366.75 5706.93 2353.05 6025.06 2358.11 6343.83" stroke="#21965A" stroke-width="5" stroke-miterlimit="10"/>
<path d="M2063.85 4.03516C2131.65 377.238 2476.87 558.288 2687.09 843.115C2892.6 1121.58 2789.89 1340.6 2541.1 1534.27C2344.84 1687.03 2001.89 1825.19 1936.44 2097.12C1899.79 2249.34 1974.49 2448.57 2012.28 2593.08C2063.06 2786.85 2122.84 2978.11 2180.87 3169.54C2277.56 3488.93 2465.61 3896.07 2425.21 4237.31C2406.71 4395.17 2320.49 4498.41 2256.44 4635.04C2164.2 4832.03 2188.55 5052.57 2168.04 5264.51C2133.14 5625 2066.29 5980.83 2063.33 6343.83" stroke="#21965A" stroke-width="5" stroke-miterlimit="10"/>
<path d="M1769.7 4.31641C1839.51 423.543 2188.04 690.999 2398 1038.15C2575.58 1332.11 2541.2 1551.57 2271.82 1754.47C2077.39 1900.77 1777.29 2011.62 1704.6 2272.72C1639.07 2508.3 1697.36 2831.63 1703.9 3073.66C1710.97 3334.13 1680.78 3617.61 1716.47 3874.95C1744.74 4079.19 1871.01 4203.65 1964.47 4375.3C2088.3 4602.55 2051.74 4840.91 2006.1 5087.23C1927.56 5506.82 1798.93 5915.93 1769.87 6343.84" stroke="#21965A" stroke-width="5" stroke-miterlimit="10"/>
<path d="M1475.53 4.48828C1548.39 466.783 1898.06 807.394 2107.5 1208.53C2263.7 1507.78 2279.75 1739.86 1997.89 1944.37C1804.25 2085.04 1544.12 2172.79 1463.75 2423.5C1429.63 2529.61 1429.72 2637.23 1383.9 2743.79C1346.81 2829.74 1297.86 2909.7 1251.26 2990.38C1157.28 3153.25 1013.55 3362.24 1060.68 3561.11C1125.86 3835.55 1485.13 3986.15 1675.36 4151.53C1939.42 4381.11 1906.26 4609.08 1826.33 4931.88C1709.75 5402.32 1526.49 5858.35 1475.27 6343.47" stroke="#21965A" stroke-width="5" stroke-miterlimit="10"/>
<path d="M1181.36 4.31641C1263.21 476.73 1601.36 849.216 1808.61 1267.73C1956.96 1568.31 1987.85 1797 1704.68 2004.73C1518.02 2141.64 1266.44 2228.58 1189.82 2472.04C1153.87 2585.84 1172.37 2677.98 1099.07 2783.01C1048.37 2855.81 975.24 2909.26 908.308 2964.78C760.832 3087.18 590.405 3239.67 646.516 3459.49C723.221 3761.42 1175.86 3920.53 1394.72 4087.16C1691.42 4312.98 1662.27 4536.56 1571.25 4880.4C1442.36 5367.14 1233.37 5838.47 1181.97 6343.57" stroke="#21965A" stroke-width="5" stroke-miterlimit="10"/>
<path d="M887.273 4.39844C958.568 441.801 1223.24 802.558 1391.05 1204.23C1514.44 1499.09 1533.64 1714.61 1308.23 1952.16C1152.82 2116.02 958.306 2240.3 895.738 2472.75C865.544 2585.03 872.525 2685.76 817.2 2793.21C777.233 2871.11 719.639 2937.46 665.622 3005.06C545.372 3155.4 410.113 3330.63 456.189 3539.44C519.28 3824.44 867.028 4008.63 1054.99 4198.01C1296.63 4441.64 1273.85 4660.57 1199.85 4983.54C1095.92 5437.15 931.952 5877.51 887.186 6343.38" stroke="#21965A" stroke-width="5" stroke-miterlimit="10"/>
<path d="M592.854 4.22656C639.628 632.439 1140.44 1237.46 840.946 1861.91C744.17 2063.56 624.88 2241.12 595.734 2469.26C567.635 2688.64 545.732 2867 464.052 3075.36C388.394 3267.33 312.998 3470.59 339.09 3682.17C372.512 3953.48 569.293 4163.18 695.477 4392.31C833.441 4642.04 820.613 4879.59 777.679 5156.09C716.595 5552.66 611.005 5940.82 592.854 6343.39" stroke="#21965A" stroke-width="5" stroke-miterlimit="10"/>
<path d="M298.423 4.12109C289.697 602.875 471.468 1173.16 380.451 1775.58C345.546 2006.5 298.772 2231.7 296.241 2466.47C293.798 2695.6 286.555 2915.25 258.369 3143.13C230.532 3367.78 209.501 3592.26 214.737 3819.15C220.933 4080.7 293.274 4322.9 337.692 4578.36C440.751 5161 293.187 5757.96 298.51 6343.82" stroke="#21965A" stroke-width="5" stroke-miterlimit="10"/>
</svg>
