<svg width="1444" height="487" viewBox="0 0 1444 487" fill="none" xmlns="http://www.w3.org/2000/svg">
<path d="M357.5 415.122C219 411.543 210.5 386.843 31 386.843M357.5 415.122C344 432.305 313.2 470.321 298 484.926M357.5 415.122C399 348.182 399.5 328.852 437.5 300.215M357.5 415.122C405.5 419.06 612 390.065 722.5 392.928M31 386.843L1 396.15M31 386.843C74 374.553 164.7 347.323 183.5 336.727M437.5 300.215C365 300.215 233.9 336.727 183.5 336.727M437.5 300.215C495 300.931 632.5 308.627 722.5 333.685M437.5 300.215C449.833 295.919 479.6 284.751 500 274.441M183.5 336.727C122.667 333.506 1 327.635 1 328.494M183.5 336.727L325 274.441M555.5 176L325 274.441M325 274.441L79 270.861M325 274.441H500M1 270.861H79M79 270.861L1 292.697M79 270.861L262.25 223.431M445.5 176L262.25 223.431M262.25 223.431H1M262.25 223.431H722.5M1443.5 223.431H1177M722.5 223.431V274.441M722.5 223.431H849.5M722.5 223.431V176M722.5 484.926V392.928M722.5 392.928H1044M722.5 392.928V333.685M722.5 274.441V333.685M722.5 274.441C789.5 270.503 853.5 237.57 952.5 245.088M722.5 274.441H500M1443.5 392.928H1044M1044 392.928L1148.5 486M1044 392.928C1023.67 376.701 994 357.49 987 318.471M987 318.471C902.5 320.261 793.5 333.685 722.5 333.685M987 318.471C1122.5 318.471 1179 333.685 1252 326.819M987 318.471C975.5 292.339 952.5 245.088 952.5 245.088M1002.5 223.431C1002.5 223.431 1099.5 257.259 1122.5 269.072M1002.5 223.431H849.5M1002.5 223.431H1177M1002.5 223.431L900 183.239M1443.5 406.173L1252 326.819M1252 326.819C1252 326.819 1145.5 280.885 1122.5 269.072M1252 326.819H1443.5M1122.5 269.072C1069.83 259.764 992.5 245.804 952.5 245.088M1122.5 269.072L1443.5 272.293M952.5 245.088C919.5 225.758 862 228.263 849.5 223.431M849.5 223.431L820 176M500 274.441L622 176M1177 223.431L1443.5 290.908M1177 223.431L1016 183.239M1177 223.431V269.619M987 176L1016 183.239M1016 183.239H1260M1016 183.239H900M1443.5 183.239H1260M1260 183.239L1443.5 210.723M1260 183.239L1219.5 176M1 183.239H192M192 183.239L1 210.723M192 183.239H900" stroke="url(#paint0_linear_832_1140)"/>
<defs>
<linearGradient id="paint0_linear_832_1140" x1="717.75" y1="176" x2="717.878" y2="547.928" gradientUnits="userSpaceOnUse">
<stop offset="0.046875" stop-color="#21965A" stop-opacity="0"/>
<stop offset="1" stop-color="#21965A"/>
</linearGradient>
</defs>
</svg>
