<svg width="1052" height="1052" viewBox="0 0 1052 1052" fill="none" xmlns="http://www.w3.org/2000/svg">
<circle cx="526.001" cy="525.999" r="526" fill="#D3FFE9"/>
<path d="M490.687 1051.6L497.59 833.87L515.115 830.152L515.646 1051.6H490.687Z" fill="url(#paint0_linear_261_32)"/>
<path d="M515.113 830.153L547.508 829.091L554.411 1051.6H515.644L515.113 830.153Z" fill="url(#paint1_linear_261_32)"/>
<path d="M515.114 830.153L403.593 857.237V654.905L641.505 826.967L515.114 830.153Z" fill="#46662A"/>
<path d="M739.22 605.517L630.885 671.898L641.506 826.966L790.732 657.029L739.22 605.517Z" fill="#60883C"/>
<path d="M507.148 569.405L403.593 654.905L641.505 826.966L630.884 671.899L507.148 569.405Z" fill="#6A9341"/>
<path d="M619.202 484.969L507.149 569.406L630.885 671.9L619.202 484.969Z" fill="#648D3F"/>
<path d="M619.201 484.969L630.884 671.9L739.219 605.518L619.201 484.969Z" fill="#658B40"/>
<path d="M507.149 569.407L560.255 324.591L619.202 484.969L507.149 569.407Z" fill="#86B454"/>
<path d="M576.716 179.081H514.052L403.593 654.905L507.148 569.405L560.254 324.59L619.201 484.968L790.731 657.029L576.716 179.081Z" fill="#6E9A45"/>
<path d="M514.052 179.081L261.271 643.753L403.593 654.905L514.052 179.081Z" fill="#B1DE76"/>
<path d="M261.802 643.753L403.593 654.905V857.236L261.802 643.753Z" fill="#85B455"/>
<circle cx="526.001" cy="525.999" r="512" stroke="#6E9A45" stroke-width="28"/>
<defs>
<linearGradient id="paint0_linear_261_32" x1="503.166" y1="830.152" x2="503.166" y2="1051.6" gradientUnits="userSpaceOnUse">
<stop stop-color="#93703B"/>
<stop offset="1" stop-color="#CBB87D"/>
</linearGradient>
<linearGradient id="paint1_linear_261_32" x1="534.762" y1="829.091" x2="534.762" y2="1051.6" gradientUnits="userSpaceOnUse">
<stop stop-color="#93703B"/>
<stop offset="1" stop-color="#916E38"/>
</linearGradient>
</defs>
</svg>
