<svg width="1080" height="1080" viewBox="0 0 1080 1080" fill="none" xmlns="http://www.w3.org/2000/svg">
<rect x="12" y="12" width="1056" height="1056" rx="528" fill="black"/>
<path d="M697.906 481.694V756H502.071C438.612 756 380.612 731.435 338.988 691.176C296.682 650.235 270.071 592.918 270.071 530.141C270.071 467.365 296.682 410.047 338.988 369.106C380.612 328.847 438.612 304.282 502.071 304.282H696.541V369.106H478.871C396.988 380.024 334.212 448.259 334.212 530.141C334.212 612.024 396.988 680.259 478.871 691.176H632.4V547.2H503.435L472.729 481.694H697.906Z" fill="#21965A"/>
<path d="M522.882 804.941L522.882 767.412" stroke="#21965A" stroke-width="47.7647" stroke-linecap="square"/>
<path d="M625.234 804.941L625.234 767.412" stroke="#21965A" stroke-width="47.7647" stroke-linecap="square"/>
<path d="M522.882 279.53L522.882 242.001" stroke="#21965A" stroke-width="47.7647" stroke-linecap="square"/>
<path d="M625.234 279.53L625.234 242.001" stroke="#21965A" stroke-width="47.7647" stroke-linecap="square"/>
<rect x="12" y="12" width="1056" height="1056" rx="528" stroke="#21965A" stroke-width="24"/>
</svg>
