<svg width="1081" height="1081" viewBox="0 0 1081 1081" fill="none" xmlns="http://www.w3.org/2000/svg">
<rect x="12.9258" y="12.9258" width="1056" height="1056" rx="528" fill="black"/>
<path d="M407.526 507.126H275.526L293.526 545.526H369.126V629.926H279.126C231.126 623.526 194.326 583.526 194.326 535.526C194.326 487.526 231.126 447.526 279.126 441.126H406.726V403.126H292.726C255.526 403.126 221.526 417.526 197.126 441.126C172.326 465.126 156.726 498.726 156.726 535.526C156.726 572.326 172.326 605.926 197.126 629.926C221.526 653.526 255.526 667.926 292.726 667.926H407.526V507.126ZM445.213 667.926H496.013L580.413 515.926L555.213 469.926L445.213 667.926ZM618.413 447.126L592.813 401.526L567.613 447.126L592.813 492.726L690.013 667.926H740.413L618.413 447.126ZM822.013 667.926V459.926H783.613V667.926H822.013ZM923.613 440.726V402.326H686.413V440.726H923.613Z" fill="#21965A"/>
<path d="M304.926 696.926L304.926 674.926" stroke="#21965A" stroke-width="28" stroke-linecap="square"/>
<path d="M364.926 696.926L364.926 674.926" stroke="#21965A" stroke-width="28" stroke-linecap="square"/>
<path d="M304.926 388.926L304.926 366.926" stroke="#21965A" stroke-width="28" stroke-linecap="square"/>
<path d="M364.926 388.926L364.926 366.926" stroke="#21965A" stroke-width="28" stroke-linecap="square"/>
<rect x="12.9258" y="12.9258" width="1056" height="1056" rx="528" stroke="#21965A" stroke-width="24"/>
</svg>
