<svg width="37" height="17" viewBox="0 0 37 17" fill="none" xmlns="http://www.w3.org/2000/svg">
<path d="M15.4648 12.2968L14.1579 13.7692C13.151 14.7742 11.8689 15.4583 10.4735 15.7349C9.07802 16.0115 7.63191 15.8682 6.31785 15.3232C5.00379 14.7782 3.88076 13.856 3.09068 12.673C2.30059 11.4899 1.87891 10.0993 1.87891 8.67669C1.87891 7.2541 2.30059 5.86344 3.09068 4.68042C3.88076 3.49741 5.00379 2.57514 6.31785 2.03015C7.63191 1.48517 9.07802 1.34193 10.4735 1.61853C11.8689 1.89513 13.151 2.57917 14.1579 3.5842L23.2005 13.7692C24.2073 14.7742 25.4894 15.4583 26.8848 15.7349C28.2803 16.0115 29.7264 15.8682 31.0405 15.3232C32.3545 14.7782 33.4775 13.856 34.2676 12.673C35.0577 11.4899 35.4794 10.0993 35.4794 8.67669C35.4794 7.2541 35.0577 5.86344 34.2676 4.68042C33.4775 3.49741 32.3545 2.57514 31.0405 2.03015C29.7264 1.48517 28.2803 1.34193 26.8848 1.61853C25.4894 1.89513 24.2073 2.57917 23.2005 3.5842L21.8935 5.05655" stroke="#21965A" stroke-width="2.15038" stroke-linecap="round" stroke-linejoin="round"/>
<path d="M9.12109 8.75415L13.0335 8.75415" stroke="#21965A" stroke-width="2.15038" stroke-linecap="round"/>
</svg>
