<svg width="798" height="250" viewBox="0 0 798 250" fill="none" xmlns="http://www.w3.org/2000/svg">
<path d="M260.35 180.955H279.4L311.05 123.955L301.6 106.705L260.35 180.955ZM325.3 98.1551L315.7 81.0551L306.25 98.1551L315.7 115.255L352.15 180.955H371.05L325.3 98.1551ZM415.691 166.705C398.591 166.705 384.341 154.555 380.891 138.355C380.441 135.955 380.141 133.555 380.141 131.005C380.141 128.605 380.441 126.205 380.891 123.955C384.041 107.755 398.591 95.4551 415.691 95.4551C430.541 95.4551 443.141 104.305 448.541 117.055H463.841C457.841 96.2051 438.491 81.0551 415.691 81.0551C390.491 81.0551 369.641 99.6551 366.191 123.955C365.891 126.355 365.741 128.605 365.741 131.005C365.741 133.555 365.891 135.955 366.341 138.355C369.791 162.505 390.641 180.955 415.691 180.955C438.041 180.955 456.791 166.555 463.391 146.455H447.791C442.091 158.455 429.941 166.705 415.691 166.705ZM515.761 180.955V102.955H501.361V180.955H515.761ZM553.861 95.7551V81.3551H464.911V95.7551H553.861ZM568.183 180.955V81.2051H582.583V180.955H568.183ZM582.133 81.6551H568.633V180.505H582.133V81.6551ZM568.183 81.2051V180.955H582.583V81.2051H568.183ZM646.844 95.6051C666.344 95.6051 682.244 111.655 682.244 131.155C682.244 150.805 666.344 166.705 646.844 166.705C627.194 166.705 611.294 150.805 611.294 131.155C611.294 111.655 627.194 95.6051 646.844 95.6051ZM596.894 131.155C596.894 158.755 619.244 180.955 646.844 180.955C674.294 180.955 696.644 158.755 696.644 131.155C696.644 103.555 674.294 81.3551 646.844 81.3551C619.244 81.3551 596.894 103.555 596.894 131.155ZM710.859 180.955H725.259V126.055L710.859 111.655V180.955ZM775.659 81.3551V145.855L710.859 81.2051V101.455L725.259 115.855L775.659 166.255L789.909 180.505V81.3551H775.659Z" fill="white"/>
<path d="M105.568 146.885L97.6674 155.786C91.5807 161.862 83.8296 165.998 75.3935 167.67C66.9575 169.342 58.215 168.476 50.271 165.181C42.3269 161.887 35.5377 156.311 30.7613 149.159C25.9848 142.007 23.4355 133.6 23.4355 125C23.4355 116.4 25.9848 107.993 30.7613 100.841C35.5377 93.6889 42.3269 88.1133 50.271 84.8187C58.215 81.524 66.9575 80.658 75.3935 82.3302C83.8296 84.0024 91.5807 88.1377 97.6674 94.2136L152.334 155.786C158.421 161.862 166.172 165.998 174.608 167.67C183.044 169.342 191.786 168.476 199.73 165.181C207.674 161.887 214.464 156.311 219.24 149.159C224.017 142.007 226.566 133.6 226.566 125C226.566 116.4 224.017 107.993 219.24 100.841C214.464 93.6889 207.674 88.1133 199.73 84.8187C191.786 81.524 183.044 80.658 174.608 82.3302C166.172 84.0024 158.421 88.1377 152.334 94.2136L144.433 103.115" stroke="#21965A" stroke-width="13" stroke-linecap="round" stroke-linejoin="round"/>
<path d="M67.2148 125.468L90.8674 125.468" stroke="#21965A" stroke-width="13" stroke-linecap="round"/>
</svg>
