<svg width="1278" height="201" viewBox="0 0 1278 201" fill="none" xmlns="http://www.w3.org/2000/svg">
<path d="M75.2312 3.27213C55.6355 8.34236 35.3546 21.2235 22.7475 36.4342C14.3885 46.5746 5.7554 63.2927 2.4666 75.8997C-0.822199 88.0957 -0.822199 113.173 2.4666 125.232C12.333 161.683 39.8767 188.815 76.4645 198.133C92.3604 202.107 116.067 201.148 131.552 195.941C151.148 189.226 168.414 176.345 185.269 155.927C192.258 147.294 192.395 140.442 185.954 134.687C182.802 131.946 180.062 130.713 176.636 130.713C172.251 130.713 170.332 132.22 156.492 146.335C140.322 162.642 133.333 167.164 118.397 171.138C108.804 173.741 91.1271 173.741 81.5348 171.138C45.6321 161.546 22.3364 126.328 27.8177 89.8771C32.3398 60.552 55.6355 35.612 84.4125 29.3084C94.4159 27.1159 114.286 28.2122 124.015 31.501C140.048 36.9823 144.844 41.5044 206.235 110.569C245.015 154.146 267.078 177.852 272.148 181.415C290.922 194.708 309.284 200.6 331.62 200.6C370.812 200.6 404.248 180.045 421.377 145.102C429.325 129.206 431.518 119.202 431.518 100.566C431.518 81.9292 429.325 71.9258 421.377 56.0299C408.633 30.2677 384.241 10.3979 356.149 3.27213C343.131 -0.0166626 321.754 -0.290726 309.01 2.724C297.499 5.32764 277.218 15.3311 268.722 22.4568C258.856 30.6788 242.138 50.0005 241.178 54.2485C240.082 59.1817 243.782 66.8555 248.167 68.911C256.663 72.748 259.404 71.3776 274.066 56.167C289.414 40.1341 294.896 36.2971 309.558 31.3639C317.232 28.7603 322.576 27.9381 331.209 27.9381C351.764 27.9381 366.838 33.9676 381.775 48.219C393.696 59.4557 401.37 73.9813 403.837 89.8771C408.222 118.654 394.108 148.253 368.756 163.464C343.542 178.538 307.64 175.934 285.851 157.16C282.425 154.283 255.156 124.41 225.146 90.5623C195.135 56.7151 167.455 26.4307 163.481 23.142C154.025 15.057 137.444 6.56093 124.563 3.27213C110.586 -0.290726 88.7975 -0.290726 75.2312 3.27213Z" fill="#219659"/>
<path d="M90.99 92.2067C84.4124 98.9213 86.1938 109.473 94.5529 113.584C100.856 116.462 146.488 116.599 153.477 113.721C162.11 110.021 163.892 99.1954 157.04 92.2067L153.066 88.2327H124.015H94.964L90.99 92.2067Z" fill="#219659"/>
<path d="M479.867 180H508.564L556.242 94.1556L542.006 68.1765L479.867 180ZM577.708 55.2999L563.246 29.5466L549.011 55.2999L563.246 81.0531L618.155 180H646.626L577.708 55.2999ZM713.875 158.539C688.115 158.539 666.649 140.24 661.452 115.843C660.774 112.228 660.322 108.614 660.322 104.773C660.322 101.159 660.774 97.5442 661.452 94.1556C666.197 69.7578 688.115 51.2336 713.875 51.2336C736.245 51.2336 755.225 64.562 763.36 83.764H786.408C777.37 52.3631 748.221 29.5466 713.875 29.5466C675.913 29.5466 644.504 57.5589 639.307 94.1556C638.855 97.7701 638.629 101.159 638.629 104.773C638.629 108.614 638.855 112.228 639.533 115.843C644.73 152.213 676.139 180 713.875 180C747.543 180 775.788 158.313 785.73 128.041H762.23C753.644 146.114 735.341 158.539 713.875 158.539ZM864.62 180V62.5288H842.928V180H864.62ZM922.015 51.6854V29.9984H788.02V51.6854H922.015ZM943.589 180V29.7725H965.281V180H943.589ZM964.603 30.4502H944.267V179.322H964.603V30.4502ZM943.589 29.7725V180H965.281V29.7725H943.589ZM1062.08 51.4595C1091.46 51.4595 1115.41 75.6314 1115.41 104.999C1115.41 134.593 1091.46 158.539 1062.08 158.539C1032.48 158.539 1008.53 134.593 1008.53 104.999C1008.53 75.6314 1032.48 51.4595 1062.08 51.4595ZM986.839 104.999C986.839 146.566 1020.51 180 1062.08 180C1103.44 180 1137.1 146.566 1137.1 104.999C1137.1 63.4325 1103.44 29.9984 1062.08 29.9984C1020.51 29.9984 986.839 63.4325 986.839 104.999ZM1158.52 180H1180.21V97.3183L1158.52 75.6314V180ZM1256.13 29.9984V127.138L1158.52 29.7725V60.2698L1180.21 81.9567L1256.13 157.861L1277.6 179.322V29.9984H1256.13Z" fill="white"/>
</svg>
