<svg width="1131" height="364" viewBox="0 0 1131 364" fill="none" xmlns="http://www.w3.org/2000/svg">
<path d="M378.49 256.943H405.16L449.47 177.143L436.24 152.993L378.49 256.943ZM469.42 141.023L455.98 117.083L442.75 141.023L455.98 164.963L507.01 256.943H533.47L469.42 141.023ZM595.968 236.993C572.028 236.993 552.078 219.983 547.248 197.303C546.618 193.943 546.198 190.583 546.198 187.013C546.198 183.653 546.618 180.293 547.248 177.143C551.658 154.463 572.028 137.243 595.968 137.243C616.758 137.243 634.398 149.633 641.958 167.483H663.378C654.978 138.293 627.888 117.083 595.968 117.083C560.688 117.083 531.498 143.123 526.668 177.143C526.248 180.503 526.038 183.653 526.038 187.013C526.038 190.583 526.248 193.943 526.878 197.303C531.708 231.113 560.898 256.943 595.968 256.943C627.258 256.943 653.508 236.783 662.748 208.643H640.908C632.928 225.443 615.918 236.993 595.968 236.993ZM736.066 256.943V147.743H715.906V256.943H736.066ZM789.406 137.663V117.503H664.876V137.663H789.406ZM809.456 256.943V117.293H829.616V256.943H809.456ZM828.986 117.923H810.086V256.313H828.986V117.923ZM809.456 117.293V256.943H829.616V117.293H809.456ZM919.581 137.453C946.881 137.453 969.141 159.923 969.141 187.223C969.141 214.733 946.881 236.993 919.581 236.993C892.071 236.993 869.811 214.733 869.811 187.223C869.811 159.923 892.071 137.453 919.581 137.453ZM849.651 187.223C849.651 225.863 880.941 256.943 919.581 256.943C958.011 256.943 989.301 225.863 989.301 187.223C989.301 148.583 958.011 117.503 919.581 117.503C880.941 117.503 849.651 148.583 849.651 187.223ZM1009.2 256.943H1029.36V180.083L1009.2 159.923V256.943ZM1099.92 117.503V207.803L1009.2 117.293V145.643L1029.36 165.803L1099.92 236.363L1119.87 256.313V117.503H1099.92Z" fill="white"/>
<path d="M153.707 213.865L142.203 226.825C133.34 235.671 122.055 241.693 109.772 244.127C97.489 246.562 84.76 245.301 73.1935 240.504C61.6269 235.707 51.7418 227.589 44.7873 217.176C37.8328 206.763 34.1211 194.522 34.1211 182C34.1211 169.478 37.8328 157.237 44.7873 146.824C51.7418 136.411 61.6269 128.293 73.1935 123.496C84.76 118.699 97.489 117.438 109.772 119.873C122.055 122.307 133.34 128.328 142.203 137.175L221.797 226.825C230.659 235.671 241.945 241.693 254.228 244.127C266.511 246.562 279.24 245.301 290.806 240.504C302.373 235.707 312.258 227.589 319.213 217.176C326.167 206.763 329.879 194.522 329.879 182C329.879 169.478 326.167 157.237 319.213 146.824C312.258 136.411 302.373 128.293 290.806 123.496C279.24 118.699 266.511 117.438 254.228 119.873C241.945 122.307 230.659 128.328 221.797 137.175L210.293 150.135" stroke="#21965A" stroke-width="20" stroke-linecap="round" stroke-linejoin="round"/>
<path d="M97.8643 182.682L132.302 182.682" stroke="#21965A" stroke-width="20" stroke-linecap="round"/>
</svg>
