<svg width="1440" height="501" viewBox="0 0 1440 501" fill="none" xmlns="http://www.w3.org/2000/svg">
<path d="M164.417 391.259C164.653 390.732 164.146 390.223 163.62 390.46C163.507 390.512 163.419 390.6 163.366 390.714C163.121 391.241 163.638 391.75 164.163 391.513C164.277 391.46 164.364 391.373 164.417 391.259Z" fill="white" fill-opacity="0.1"/>
<path d="M585.706 421.754C585.943 421.227 585.434 420.718 584.907 420.955C584.793 421.007 584.705 421.095 584.653 421.209C584.416 421.736 584.925 422.245 585.451 422.008C585.565 421.955 585.653 421.868 585.706 421.754Z" fill="white" fill-opacity="0.1"/>
<path d="M494.761 371.49C494.997 370.964 494.489 370.454 493.964 370.691C493.85 370.744 493.763 370.832 493.71 370.946C493.465 371.473 493.982 371.982 494.507 371.745C494.621 371.692 494.708 371.604 494.761 371.49Z" fill="white" fill-opacity="0.1"/>
<path d="M447.414 116.467C447.659 115.942 447.142 115.425 446.617 115.67C446.503 115.723 446.416 115.81 446.363 115.924C446.127 116.45 446.635 116.957 447.16 116.721C447.274 116.668 447.361 116.581 447.414 116.467Z" fill="white" fill-opacity="0.1"/>
<path d="M1335.72 7.89587C1335.96 7.36921 1335.45 6.86011 1334.92 7.0971C1334.81 7.14977 1334.72 7.23755 1334.67 7.35166C1334.43 7.87831 1334.94 8.38742 1335.47 8.15042C1335.58 8.09776 1335.67 8.00998 1335.72 7.89587Z" fill="white" fill-opacity="0.8"/>
<path d="M942.803 443.036C943.04 442.509 942.531 442 942.005 442.237C941.891 442.29 941.803 442.378 941.75 442.492C941.513 443.019 942.022 443.528 942.549 443.291C942.663 443.238 942.751 443.15 942.803 443.036Z" fill="white" fill-opacity="0.8"/>
<path d="M1047.16 473.089C1047.4 472.562 1046.88 472.053 1046.36 472.29C1046.25 472.343 1046.16 472.431 1046.11 472.545C1045.87 473.071 1046.38 473.581 1046.9 473.344C1047.02 473.291 1047.1 473.203 1047.16 473.089Z" fill="white" fill-opacity="0.1"/>
<path d="M1262.65 353.185C1262.89 352.658 1262.38 352.149 1261.85 352.386C1261.74 352.439 1261.65 352.527 1261.6 352.641C1261.36 353.167 1261.87 353.677 1262.39 353.44C1262.51 353.387 1262.6 353.299 1262.65 353.185Z" fill="white" fill-opacity="0.1"/>
<path d="M1312.41 162.561C1312.66 162.035 1312.14 161.526 1311.62 161.763C1311.5 161.815 1311.42 161.903 1311.36 162.017C1311.13 162.544 1311.63 163.053 1312.16 162.816C1312.27 162.763 1312.36 162.676 1312.41 162.561Z" fill="white" fill-opacity="0.1"/>
<path d="M1261.58 18.7222C1261.82 18.1955 1261.31 17.6864 1260.78 17.9234C1260.67 17.9761 1260.58 18.0638 1260.53 18.1779C1260.29 18.7046 1260.8 19.2137 1261.33 18.9767C1261.44 18.924 1261.53 18.8363 1261.58 18.7222Z" fill="white" fill-opacity="0.1"/>
<path d="M1349.8 53.6383C1350.03 53.1116 1349.52 52.6025 1349 52.8395C1348.88 52.8922 1348.8 52.98 1348.74 53.0941C1348.51 53.6207 1349.01 54.1299 1349.54 53.8929C1349.66 53.8402 1349.74 53.7524 1349.8 53.6383Z" fill="white" fill-opacity="0.1"/>
<path d="M1253.62 81.7876C1253.86 81.2609 1253.35 80.7518 1252.82 80.9888C1252.71 81.0415 1252.62 81.1293 1252.57 81.2434C1252.33 81.77 1252.84 82.2791 1253.36 82.0421C1253.48 81.9895 1253.56 81.9017 1253.62 81.7876Z" fill="white" fill-opacity="0.1"/>
<path d="M1255.96 207.286C1256.21 206.76 1255.69 206.25 1255.16 206.487C1255.05 206.54 1254.96 206.628 1254.91 206.742C1254.67 207.269 1255.18 207.778 1255.71 207.541C1255.82 207.488 1255.91 207.4 1255.96 207.286Z" fill="white" fill-opacity="0.1"/>
<path d="M1441.28 227.225C1441.52 226.699 1441.01 226.19 1440.48 226.427C1440.37 226.479 1440.28 226.567 1440.23 226.681C1439.98 227.208 1440.5 227.717 1441.03 227.48C1441.14 227.427 1441.23 227.339 1441.28 227.225Z" fill="white" fill-opacity="0.1"/>
<path d="M457.229 237.781C457.466 237.255 456.958 236.745 456.433 236.982C456.319 237.035 456.231 237.123 456.179 237.237C455.934 237.764 456.45 238.273 456.976 238.036C457.089 237.983 457.177 237.895 457.229 237.781Z" fill="white" fill-opacity="0.1"/>
<path d="M753.971 412.541C754.208 412.014 753.699 411.505 753.173 411.742C753.059 411.795 752.971 411.883 752.918 411.997C752.681 412.524 753.19 413.033 753.717 412.796C753.831 412.743 753.919 412.655 753.971 412.541Z" fill="white" fill-opacity="0.1"/>
<path d="M594.898 366.847C595.143 366.321 594.627 365.812 594.102 366.049C593.988 366.101 593.9 366.189 593.848 366.303C593.611 366.83 594.119 367.339 594.644 367.102C594.758 367.049 594.846 366.961 594.898 366.847Z" fill="white" fill-opacity="0.1"/>
<path d="M296.37 436.911C296.606 436.384 296.099 435.875 295.573 436.112C295.46 436.164 295.372 436.252 295.32 436.366C295.074 436.893 295.591 437.402 296.116 437.165C296.23 437.112 296.318 437.025 296.37 436.911Z" fill="white" fill-opacity="0.1"/>
<path d="M1002.62 10.2416C1002.86 9.71491 1002.35 9.20581 1001.82 9.44281C1001.71 9.49547 1001.62 9.58324 1001.57 9.69735C1001.33 10.224 1001.84 10.7331 1002.36 10.4961C1002.48 10.4435 1002.56 10.3557 1002.62 10.2416Z" fill="white" fill-opacity="0.8"/>
<path d="M459.573 475.877C459.81 475.35 459.302 474.841 458.777 475.078C458.663 475.131 458.575 475.219 458.523 475.333C458.278 475.859 458.794 476.368 459.319 476.132C459.433 476.079 459.521 475.991 459.573 475.877Z" fill="white" fill-opacity="0.8"/>
<path d="M449.019 20.7976C449.255 20.2709 448.747 19.7618 448.222 19.9988C448.108 20.0515 448.021 20.1393 447.968 20.2534C447.723 20.78 448.239 21.2892 448.765 21.0522C448.878 20.9995 448.966 20.9117 449.019 20.7976Z" fill="white" fill-opacity="0.8"/>
<path d="M287.042 480.777C287.278 480.25 286.771 479.741 286.245 479.978C286.132 480.031 286.044 480.119 285.991 480.233C285.746 480.759 286.263 481.269 286.788 481.032C286.902 480.979 286.989 480.891 287.042 480.777Z" fill="white" fill-opacity="0.8"/>
<path d="M447.014 305.492C447.251 304.965 446.742 304.456 446.216 304.693C446.102 304.746 446.014 304.834 445.961 304.948C445.724 305.474 446.233 305.983 446.76 305.746C446.874 305.694 446.962 305.606 447.014 305.492Z" fill="white" fill-opacity="0.1"/>
<path d="M407.596 258.456C407.833 257.93 407.324 257.421 406.798 257.658C406.684 257.71 406.596 257.798 406.543 257.912C406.306 258.439 406.815 258.948 407.342 258.711C407.456 258.658 407.544 258.57 407.596 258.456Z" fill="white" fill-opacity="0.8"/>
<path d="M300.526 348.666C300.763 348.14 300.255 347.631 299.73 347.868C299.616 347.92 299.528 348.008 299.476 348.122C299.231 348.649 299.747 349.158 300.272 348.921C300.386 348.868 300.474 348.78 300.526 348.666Z" fill="white" fill-opacity="0.1"/>
<path d="M670.694 399.639C670.931 399.113 670.423 398.604 669.898 398.841C669.784 398.893 669.696 398.981 669.644 399.095C669.399 399.622 669.915 400.131 670.44 399.894C670.554 399.841 670.642 399.754 670.694 399.639Z" fill="white" fill-opacity="0.1"/>
<path d="M753.971 453.592C754.208 453.065 753.699 452.556 753.173 452.793C753.059 452.846 752.971 452.934 752.918 453.048C752.681 453.575 753.19 454.084 753.717 453.847C753.831 453.794 753.919 453.706 753.971 453.592Z" fill="white" fill-opacity="0.8"/>
<path d="M1108.71 290.518C1108.95 289.991 1108.44 289.482 1107.92 289.719C1107.8 289.771 1107.72 289.859 1107.66 289.973C1107.42 290.5 1107.93 291.009 1108.46 290.772C1108.57 290.719 1108.66 290.632 1108.71 290.518Z" fill="white" fill-opacity="0.8"/>
<path d="M438.991 103.826C439.228 103.299 438.72 102.79 438.195 103.027C438.081 103.079 437.993 103.167 437.941 103.281C437.696 103.808 438.212 104.317 438.737 104.08C438.851 104.027 438.939 103.94 438.991 103.826Z" fill="white" fill-opacity="0.1"/>
<path d="M1192.98 126.385C1193.22 125.859 1192.71 125.35 1192.18 125.587C1192.07 125.639 1191.98 125.727 1191.93 125.841C1191.68 126.368 1192.2 126.877 1192.73 126.64C1192.84 126.587 1192.93 126.499 1192.98 126.385Z" fill="white" fill-opacity="0.1"/>
<path d="M1210.25 29.5175C1210.49 28.9922 1209.98 28.4845 1209.45 28.7208C1209.34 28.7734 1209.25 28.8609 1209.2 28.9747C1208.95 29.5 1209.47 30.0165 1210 29.7714C1210.11 29.7188 1210.2 29.6313 1210.25 29.5175Z" fill="white" fill-opacity="0.1"/>
<path d="M1129.41 243.045C1129.65 242.518 1129.14 242.009 1128.61 242.246C1128.5 242.299 1128.41 242.387 1128.36 242.501C1128.11 243.027 1128.63 243.537 1129.16 243.3C1129.27 243.247 1129.36 243.159 1129.41 243.045Z" fill="white" fill-opacity="0.1"/>
<path d="M1355.4 91.5477C1354.88 91.3026 1354.37 91.8191 1354.61 92.3444C1354.66 92.4582 1354.75 92.5457 1354.86 92.5982C1355.39 92.8346 1355.9 92.3269 1355.66 91.8016C1355.61 91.6878 1355.52 91.6003 1355.4 91.5477Z" fill="white" fill-opacity="0.1"/>
<path d="M764.523 23.1433C764.768 22.6167 764.252 22.1075 763.727 22.3445C763.613 22.3972 763.525 22.485 763.473 22.5991C763.236 23.1257 763.744 23.6349 764.269 23.3979C764.383 23.3452 764.471 23.2574 764.523 23.1433Z" fill="white" fill-opacity="0.1"/>
<path d="M585.835 329.797C586.072 329.27 585.563 328.761 585.036 328.998C584.922 329.051 584.834 329.138 584.781 329.252C584.544 329.779 585.054 330.288 585.58 330.051C585.694 329.999 585.782 329.911 585.835 329.797Z" fill="white" fill-opacity="0.1"/>
<path d="M656.714 37.6062C656.95 37.081 656.442 36.5732 655.917 36.8096C655.803 36.8621 655.716 36.9497 655.663 37.0635C655.418 37.5887 655.935 38.1052 656.46 37.8601C656.574 37.8076 656.661 37.72 656.714 37.6062Z" fill="white" fill-opacity="0.1"/>
<path d="M1160.96 366.799C1161.2 366.272 1160.69 365.763 1160.16 366C1160.05 366.053 1159.96 366.14 1159.91 366.254C1159.67 366.781 1160.18 367.29 1160.7 367.053C1160.82 367.001 1160.9 366.913 1160.96 366.799Z" fill="white" fill-opacity="0.8"/>
<path d="M522.491 38.3909C522.728 37.8642 522.219 37.3551 521.692 37.5921C521.578 37.6448 521.49 37.7325 521.438 37.8467C521.201 38.3733 521.71 38.8824 522.236 38.6454C522.351 38.5927 522.438 38.505 522.491 38.3909Z" fill="white" fill-opacity="0.1"/>
<path d="M1302.88 485.26C1303.12 484.733 1302.61 484.224 1302.08 484.461C1301.97 484.514 1301.88 484.602 1301.83 484.716C1301.59 485.242 1302.1 485.752 1302.63 485.515C1302.74 485.462 1302.83 485.374 1302.88 485.26Z" fill="white" fill-opacity="0.1"/>
<path d="M931.878 79.9675C932.114 79.4409 931.606 78.9318 931.081 79.1688C930.967 79.2214 930.88 79.3092 930.827 79.4233C930.582 79.95 931.099 80.4591 931.624 80.2221C931.738 80.1694 931.825 80.0816 931.878 79.9675Z" fill="white" fill-opacity="0.1"/>
<path d="M979.25 44.9918C979.495 44.4652 978.978 43.9561 978.453 44.1931C978.339 44.2457 978.252 44.3335 978.199 44.4476C977.963 44.9743 978.471 45.4834 978.996 45.2464C979.11 45.1937 979.197 45.1059 979.25 44.9918Z" fill="white" fill-opacity="0.1"/>
<path d="M500.194 101.604C500.431 101.077 499.922 100.568 499.395 100.805C499.281 100.857 499.193 100.945 499.141 101.059C498.904 101.586 499.413 102.095 499.94 101.858C500.054 101.805 500.141 101.718 500.194 101.604Z" fill="white" fill-opacity="0.1"/>
<path d="M1043.44 368.524C1043.69 367.998 1043.17 367.488 1042.64 367.725C1042.53 367.778 1042.44 367.866 1042.39 367.98C1042.15 368.507 1042.66 369.016 1043.19 368.779C1043.3 368.726 1043.39 368.638 1043.44 368.524Z" fill="white" fill-opacity="0.1"/>
<path d="M1295.84 305.809C1296.08 305.282 1295.57 304.773 1295.04 305.01C1294.93 305.062 1294.84 305.15 1294.79 305.264C1294.55 305.791 1295.06 306.3 1295.59 306.063C1295.7 306.01 1295.79 305.923 1295.84 305.809Z" fill="white" fill-opacity="0.8"/>
<path d="M1310 238.381C1310.24 237.854 1309.73 237.345 1309.2 237.582C1309.09 237.635 1309 237.723 1308.95 237.837C1308.71 238.363 1309.22 238.873 1309.74 238.636C1309.86 238.583 1309.95 238.495 1310 238.381Z" fill="white" fill-opacity="0.1"/>
<path d="M417.473 196.73C417.236 196.204 417.745 195.695 418.272 195.932C418.386 195.984 418.473 196.072 418.526 196.186C418.763 196.713 418.254 197.222 417.727 196.985C417.613 196.932 417.526 196.844 417.473 196.73Z" fill="white" fill-opacity="0.1"/>
<path d="M791.621 438.345C791.384 437.818 791.893 437.309 792.42 437.546C792.534 437.598 792.622 437.686 792.675 437.8C792.912 438.327 792.402 438.836 791.876 438.599C791.762 438.546 791.674 438.459 791.621 438.345Z" fill="white" fill-opacity="0.1"/>
<path d="M348.27 420.724C348.033 420.197 348.541 419.688 349.066 419.925C349.18 419.978 349.268 420.066 349.32 420.18C349.565 420.706 349.049 421.215 348.523 420.978C348.41 420.926 348.322 420.838 348.27 420.724Z" fill="white" fill-opacity="0.1"/>
<path d="M681.371 440.69C681.134 440.164 681.643 439.655 682.17 439.892C682.284 439.944 682.372 440.032 682.425 440.146C682.662 440.673 682.152 441.182 681.626 440.945C681.512 440.892 681.424 440.805 681.371 440.69Z" fill="white" fill-opacity="0.1"/>
<path d="M832.672 457.108C832.436 456.583 832.943 456.075 833.469 456.312C833.582 456.364 833.67 456.452 833.722 456.566C833.968 457.091 833.451 457.607 832.926 457.362C832.812 457.31 832.724 457.222 832.672 457.108Z" fill="white" fill-opacity="0.1"/>
<path d="M1072.28 37.4138C1072.03 36.8872 1072.55 36.3781 1073.07 36.615C1073.19 36.6677 1073.27 36.7555 1073.33 36.8696C1073.56 37.3963 1073.06 37.9054 1072.53 37.6684C1072.42 37.6157 1072.33 37.5279 1072.28 37.4138Z" fill="white" fill-opacity="0.8"/>
<path d="M1207.41 353.259C1207.17 352.733 1207.68 352.217 1208.21 352.462C1208.32 352.515 1208.41 352.602 1208.46 352.716C1208.7 353.241 1208.19 353.749 1207.67 353.513C1207.55 353.46 1207.47 353.372 1207.41 353.259Z" fill="white" fill-opacity="0.1"/>
<path d="M1250.55 405.467C1250.3 404.94 1250.82 404.431 1251.35 404.668C1251.46 404.721 1251.55 404.809 1251.6 404.923C1251.84 405.45 1251.33 405.959 1250.8 405.722C1250.69 405.669 1250.6 405.581 1250.55 405.467Z" fill="white" fill-opacity="0.8"/>
<path d="M1356.95 148.642C1356.72 148.115 1357.22 147.606 1357.75 147.843C1357.86 147.896 1357.95 147.984 1358 148.098C1358.25 148.625 1357.73 149.134 1357.21 148.897C1357.09 148.844 1357.01 148.756 1356.95 148.642Z" fill="white" fill-opacity="0.1"/>
<path d="M1329.31 115.416C1329.07 114.889 1329.58 114.38 1330.11 114.617C1330.22 114.67 1330.31 114.758 1330.36 114.872C1330.6 115.398 1330.09 115.907 1329.57 115.67C1329.45 115.618 1329.36 115.53 1329.31 115.416Z" fill="white" fill-opacity="0.8"/>
<path d="M1247.87 274.141C1247.63 273.614 1248.15 273.105 1248.67 273.342C1248.78 273.395 1248.87 273.482 1248.92 273.597C1249.16 274.123 1248.65 274.632 1248.13 274.395C1248.01 274.343 1247.93 274.255 1247.87 274.141Z" fill="white" fill-opacity="0.1"/>
<path d="M887.797 0.858521C887.561 0.331861 888.068 -0.177247 888.594 0.0597504C888.707 0.112416 888.795 0.200187 888.847 0.314297C889.093 0.840957 888.576 1.35006 888.051 1.11307C887.937 1.0604 887.849 0.972631 887.797 0.858521Z" fill="white" fill-opacity="0.1"/>
<path d="M860.074 13.1476C859.837 12.6209 860.347 12.1118 860.873 12.3488C860.987 12.4015 861.075 12.4893 861.128 12.6034C861.365 13.13 860.856 13.6391 860.329 13.4021C860.215 13.3495 860.127 13.2617 860.074 13.1476Z" fill="white" fill-opacity="0.1"/>
<path d="M213.348 399.638C213.111 399.111 213.62 398.602 214.147 398.839C214.261 398.892 214.348 398.979 214.401 399.093C214.638 399.62 214.129 400.129 213.602 399.892C213.488 399.84 213.401 399.752 213.348 399.638Z" fill="white" fill-opacity="0.1"/>
<path d="M1380.32 200.197C1380.09 199.671 1380.6 199.162 1381.12 199.399C1381.23 199.451 1381.32 199.539 1381.37 199.653C1381.62 200.18 1381.1 200.689 1380.58 200.452C1380.46 200.399 1380.38 200.311 1380.32 200.197Z" fill="white" fill-opacity="0.1"/>
<path d="M1433.21 159.725C1432.69 159.962 1432.18 159.453 1432.41 158.926C1432.47 158.812 1432.55 158.725 1432.67 158.672C1433.2 158.435 1433.7 158.944 1433.47 159.471C1433.41 159.585 1433.33 159.672 1433.21 159.725Z" fill="white" fill-opacity="0.8"/>
<path d="M1404.67 121.917C1404.14 122.162 1403.63 121.646 1403.87 121.121C1403.92 121.007 1404.01 120.919 1404.12 120.867C1404.65 120.63 1405.16 121.138 1404.92 121.663C1404.87 121.777 1404.78 121.865 1404.67 121.917Z" fill="white" fill-opacity="0.1"/>
<path d="M945.067 22.475C944.83 21.9483 945.339 21.4392 945.865 21.6762C945.979 21.7289 946.067 21.8166 946.12 21.9308C946.357 22.4574 945.848 22.9665 945.321 22.7295C945.207 22.6769 945.119 22.5891 945.067 22.475Z" fill="white" fill-opacity="0.1"/>
<path d="M587.539 13.7603C587.302 13.2336 587.811 12.7245 588.338 12.9615C588.452 13.0141 588.54 13.1019 588.593 13.216C588.83 13.7427 588.32 14.2518 587.794 14.0148C587.68 13.9621 587.592 13.8744 587.539 13.7603Z" fill="white" fill-opacity="0.1"/>
<path d="M525.785 81.7848C525.549 81.2581 526.057 80.749 526.582 80.986C526.696 81.0387 526.783 81.1265 526.836 81.2406C527.081 81.7672 526.564 82.2763 526.039 82.0393C525.925 81.9867 525.838 81.8989 525.785 81.7848Z" fill="white" fill-opacity="0.1"/>
<path d="M636.422 82.1174C636.185 81.5908 636.694 81.0817 637.221 81.3187C637.335 81.3713 637.423 81.4591 637.475 81.5732C637.712 82.0999 637.203 82.609 636.677 82.372C636.563 82.3193 636.475 82.2315 636.422 82.1174Z" fill="white" fill-opacity="0.1"/>
<path d="M443.891 425.205C443.654 424.678 444.163 424.169 444.69 424.406C444.804 424.459 444.891 424.546 444.944 424.66C445.181 425.187 444.672 425.696 444.145 425.459C444.031 425.407 443.943 425.319 443.891 425.205Z" fill="white" fill-opacity="0.1"/>
<path d="M1242.6 431.287C1242.36 430.76 1242.87 430.251 1243.4 430.488C1243.51 430.541 1243.6 430.628 1243.65 430.743C1243.89 431.269 1243.38 431.778 1242.85 431.541C1242.74 431.489 1242.65 431.401 1242.6 431.287Z" fill="white" fill-opacity="0.8"/>
<path d="M643.84 453.592C643.603 453.066 644.112 452.556 644.639 452.793C644.753 452.846 644.841 452.934 644.893 453.048C645.13 453.575 644.621 454.084 644.095 453.847C643.98 453.794 643.893 453.706 643.84 453.592Z" fill="white" fill-opacity="0.1"/>
<path d="M866.195 407.569C865.958 407.042 866.468 406.533 866.994 406.77C867.108 406.823 867.196 406.911 867.249 407.025C867.486 407.551 866.977 408.061 866.45 407.824C866.336 407.771 866.248 407.683 866.195 407.569Z" fill="white" fill-opacity="0.8"/>
<path d="M582.848 459.457C582.611 458.93 583.12 458.421 583.647 458.658C583.761 458.71 583.848 458.798 583.901 458.912C584.138 459.439 583.629 459.948 583.102 459.711C582.988 459.658 582.901 459.571 582.848 459.457Z" fill="white" fill-opacity="0.8"/>
<path d="M999.621 414.867C999.385 414.341 999.892 413.832 1000.42 414.069C1000.53 414.121 1000.62 414.209 1000.67 414.323C1000.92 414.85 1000.4 415.359 999.875 415.122C999.761 415.069 999.674 414.982 999.621 414.867Z" fill="white" fill-opacity="0.1"/>
<path d="M959.218 399.918C958.973 399.391 959.489 398.882 960.015 399.119C960.128 399.172 960.216 399.259 960.269 399.374C960.505 399.9 959.997 400.409 959.472 400.172C959.358 400.12 959.271 400.032 959.218 399.918Z" fill="white" fill-opacity="0.1"/>
<path d="M1164.6 188.521C1164.36 187.996 1164.87 187.479 1165.4 187.724C1165.51 187.777 1165.6 187.864 1165.65 187.978C1165.89 188.503 1165.38 189.011 1164.85 188.775C1164.74 188.722 1164.65 188.635 1164.6 188.521Z" fill="white" fill-opacity="0.1"/>
<path d="M1084.42 68.3086C1084.18 67.7819 1084.69 67.2728 1085.22 67.5098C1085.33 67.5625 1085.42 67.6503 1085.47 67.7644C1085.71 68.291 1085.2 68.8001 1084.67 68.5631C1084.56 68.5105 1084.47 68.4227 1084.42 68.3086Z" fill="white" fill-opacity="0.8"/>
<path d="M1022.68 84.1334C1022.44 83.6068 1022.95 83.0977 1023.48 83.3347C1023.59 83.3873 1023.68 83.4751 1023.73 83.5892C1023.98 84.1159 1023.46 84.625 1022.93 84.388C1022.82 84.3353 1022.73 84.2475 1022.68 84.1334Z" fill="white" fill-opacity="0.1"/>
<path d="M1106.94 414.494C1106.7 413.967 1107.21 413.458 1107.74 413.695C1107.85 413.748 1107.94 413.836 1107.99 413.95C1108.23 414.476 1107.72 414.986 1107.2 414.749C1107.08 414.696 1106.99 414.608 1106.94 414.494Z" fill="white" fill-opacity="0.1"/>
<path d="M1091.2 109.771C1090.95 109.244 1091.47 108.735 1092 108.972C1092.11 109.025 1092.2 109.112 1092.25 109.227C1092.49 109.753 1091.98 110.262 1091.45 110.025C1091.34 109.973 1091.25 109.885 1091.2 109.771Z" fill="white" fill-opacity="0.1"/>
<path d="M1157.56 64.192C1157.33 63.6668 1157.83 63.159 1158.36 63.3954C1158.47 63.4479 1158.56 63.5355 1158.61 63.6493C1158.86 64.1745 1158.34 64.691 1157.82 64.4459C1157.7 64.3934 1157.62 64.3059 1157.56 64.192Z" fill="white" fill-opacity="0.1"/>
<path d="M1212.16 286.179C1211.92 285.653 1212.43 285.144 1212.96 285.381C1213.07 285.433 1213.16 285.521 1213.21 285.635C1213.46 286.162 1212.94 286.671 1212.41 286.434C1212.3 286.381 1212.21 286.294 1212.16 286.179Z" fill="white" fill-opacity="0.1"/>
<path d="M1181.91 230.183C1181.67 229.657 1182.18 229.148 1182.71 229.385C1182.82 229.437 1182.91 229.525 1182.96 229.639C1183.2 230.166 1182.69 230.675 1182.16 230.438C1182.05 230.385 1181.96 230.297 1181.91 230.183Z" fill="white" fill-opacity="0.1"/>
<path d="M1314.73 364.453C1314.48 363.926 1315 363.417 1315.53 363.654C1315.64 363.707 1315.73 363.795 1315.78 363.909C1316.02 364.435 1315.51 364.944 1314.98 364.707C1314.87 364.655 1314.78 364.567 1314.73 364.453Z" fill="white" fill-opacity="0.1"/>
<path d="M1155.21 318.71C1154.98 318.184 1155.49 317.675 1156.01 317.912C1156.13 317.964 1156.21 318.052 1156.27 318.166C1156.51 318.693 1155.99 319.202 1155.47 318.965C1155.35 318.912 1155.27 318.824 1155.21 318.71Z" fill="white" fill-opacity="0.1"/>
<path d="M1350.75 327.718C1350.51 327.191 1351.02 326.682 1351.54 326.919C1351.66 326.972 1351.74 327.059 1351.8 327.174C1352.04 327.7 1351.53 328.209 1351 327.972C1350.89 327.92 1350.8 327.832 1350.75 327.718Z" fill="white" fill-opacity="0.1"/>
<path d="M1165.97 419.627C1165.73 419.1 1166.24 418.591 1166.77 418.828C1166.88 418.881 1166.97 418.969 1167.02 419.083C1167.26 419.61 1166.75 420.119 1166.22 419.882C1166.11 419.829 1166.02 419.741 1165.97 419.627Z" fill="white" fill-opacity="0.1"/>
<path d="M885.453 453.592C885.216 453.065 885.725 452.556 886.252 452.793C886.366 452.846 886.454 452.934 886.507 453.048C886.744 453.575 886.235 454.084 885.708 453.847C885.594 453.794 885.506 453.706 885.453 453.592Z" fill="white" fill-opacity="0.1"/>
<path d="M1148.01 476.085C1147.76 475.559 1148.28 475.05 1148.8 475.287C1148.92 475.339 1149.01 475.427 1149.06 475.541C1149.29 476.068 1148.79 476.577 1148.26 476.34C1148.15 476.287 1148.06 476.2 1148.01 476.085Z" fill="white" fill-opacity="0.8"/>
<path d="M995.758 121.666C996.003 121.139 995.486 120.63 994.961 120.867C994.847 120.92 994.76 121.007 994.707 121.121C994.471 121.648 994.978 122.157 995.504 121.92C995.617 121.868 995.705 121.78 995.758 121.666Z" fill="white" fill-opacity="0.8"/>
<path d="M1137.68 240.127C1137.92 239.6 1137.41 239.091 1136.88 239.328C1136.77 239.381 1136.68 239.469 1136.63 239.583C1136.39 240.11 1136.9 240.619 1137.42 240.382C1137.54 240.329 1137.63 240.241 1137.68 240.127Z" fill="white" fill-opacity="0.1"/>
<path d="M1085.35 160.334C1085.1 159.808 1085.62 159.298 1086.14 159.535C1086.26 159.588 1086.34 159.676 1086.4 159.79C1086.63 160.317 1086.13 160.826 1085.6 160.589C1085.49 160.536 1085.4 160.448 1085.35 160.334Z" fill="white" fill-opacity="0.8"/>
<path d="M1077.4 186.154C1077.16 185.627 1077.67 185.118 1078.2 185.355C1078.31 185.408 1078.4 185.495 1078.45 185.609C1078.69 186.136 1078.18 186.645 1077.66 186.408C1077.54 186.356 1077.45 186.268 1077.4 186.154Z" fill="white" fill-opacity="0.8"/>
<path d="M1149.53 119.32C1149.29 118.793 1149.8 118.284 1150.33 118.521C1150.44 118.574 1150.53 118.662 1150.58 118.776C1150.82 119.302 1150.31 119.811 1149.78 119.574C1149.67 119.522 1149.58 119.434 1149.53 119.32Z" fill="white" fill-opacity="0.1"/>
<path d="M1000.77 174.494C1000.53 173.968 1001.04 173.458 1001.56 173.695C1001.68 173.748 1001.77 173.836 1001.82 173.95C1002.06 174.477 1001.55 174.986 1001.02 174.749C1000.91 174.696 1000.82 174.608 1000.77 174.494Z" fill="white" fill-opacity="0.1"/>
<path d="M982.804 230.953C982.559 230.426 983.075 229.917 983.601 230.154C983.714 230.206 983.802 230.294 983.854 230.408C984.091 230.935 983.583 231.444 983.058 231.207C982.944 231.154 982.856 231.067 982.804 230.953Z" fill="white" fill-opacity="0.8"/>
<path d="M1082.71 342.182C1082.47 341.655 1082.98 341.146 1083.51 341.383C1083.62 341.436 1083.71 341.523 1083.76 341.638C1084 342.164 1083.49 342.673 1082.96 342.436C1082.85 342.384 1082.76 342.296 1082.71 342.182Z" fill="white" fill-opacity="0.1"/>
<path d="M1383.71 275.616C1383.48 275.089 1383.99 274.58 1384.51 274.817C1384.63 274.87 1384.71 274.958 1384.77 275.072C1385.01 275.598 1384.49 276.108 1383.97 275.871C1383.85 275.818 1383.77 275.73 1383.71 275.616Z" fill="white" fill-opacity="0.1"/>
<path d="M904.468 165.062C904.705 164.536 904.195 164.027 903.669 164.264C903.555 164.316 903.467 164.404 903.414 164.518C903.177 165.045 903.686 165.554 904.213 165.317C904.327 165.264 904.415 165.176 904.468 165.062Z" fill="white" fill-opacity="0.8"/>
<path d="M881.164 319.728C881.409 319.201 880.892 318.692 880.367 318.929C880.253 318.982 880.166 319.07 880.113 319.184C879.877 319.71 880.385 320.22 880.91 319.983C881.024 319.93 881.111 319.842 881.164 319.728Z" fill="white" fill-opacity="0.1"/>
<path d="M830.331 175.889C830.567 175.362 830.06 174.853 829.534 175.09C829.421 175.143 829.333 175.23 829.28 175.344C829.035 175.871 829.552 176.38 830.077 176.143C830.191 176.091 830.278 176.003 830.331 175.889Z" fill="white" fill-opacity="0.1"/>
<path d="M918.546 210.805C918.783 210.278 918.274 209.769 917.747 210.006C917.633 210.059 917.545 210.147 917.492 210.261C917.255 210.787 917.764 211.296 918.291 211.059C918.405 211.007 918.493 210.919 918.546 210.805Z" fill="white" fill-opacity="0.1"/>
<path d="M626.121 280.005C626.366 279.478 625.849 278.969 625.324 279.206C625.21 279.259 625.123 279.347 625.07 279.461C624.834 279.988 625.342 280.497 625.867 280.26C625.981 280.207 626.068 280.119 626.121 280.005Z" fill="white" fill-opacity="0.1"/>
<path d="M824.711 364.453C824.956 363.926 824.439 363.417 823.914 363.654C823.8 363.707 823.713 363.795 823.66 363.909C823.424 364.435 823.932 364.944 824.457 364.707C824.571 364.655 824.658 364.567 824.711 364.453Z" fill="white" fill-opacity="0.1"/>
<path d="M1010.03 384.392C1010.27 383.865 1009.76 383.356 1009.23 383.593C1009.12 383.646 1009.03 383.734 1008.98 383.848C1008.73 384.374 1009.25 384.884 1009.78 384.647C1009.89 384.594 1009.98 384.506 1010.03 384.392Z" fill="white" fill-opacity="0.1"/>
<path d="M571.367 167.408C571.612 166.882 571.096 166.372 570.57 166.609C570.457 166.662 570.369 166.75 570.316 166.864C570.08 167.391 570.588 167.9 571.113 167.663C571.227 167.61 571.314 167.522 571.367 167.408Z" fill="white" fill-opacity="0.8"/>
<path d="M565.487 324.603C565.724 324.076 565.216 323.567 564.691 323.804C564.577 323.857 564.489 323.945 564.437 324.059C564.192 324.585 564.708 325.094 565.233 324.857C565.347 324.805 565.435 324.717 565.487 324.603Z" fill="white" fill-opacity="0.1"/>
<path d="M778.999 186.684C779.235 186.159 778.728 185.651 778.202 185.887C778.089 185.94 778.001 186.028 777.948 186.141C777.703 186.667 778.22 187.183 778.745 186.938C778.859 186.885 778.946 186.798 778.999 186.684Z" fill="white" fill-opacity="0.1"/>
<path d="M698.159 400.212C698.395 399.685 697.888 399.176 697.362 399.413C697.249 399.465 697.161 399.553 697.109 399.667C696.863 400.194 697.38 400.703 697.905 400.466C698.019 400.413 698.107 400.326 698.159 400.212Z" fill="white" fill-opacity="0.1"/>
<path d="M924.154 248.714C923.628 248.469 923.119 248.986 923.356 249.511C923.408 249.625 923.496 249.712 923.61 249.765C924.137 250.001 924.646 249.493 924.409 248.968C924.356 248.854 924.269 248.767 924.154 248.714Z" fill="white" fill-opacity="0.1"/>
<path d="M500.628 237.134C500.864 236.607 500.356 236.098 499.831 236.335C499.717 236.388 499.63 236.476 499.577 236.59C499.332 237.117 499.849 237.626 500.374 237.389C500.488 237.336 500.575 237.248 500.628 237.134Z" fill="white" fill-opacity="0.1"/>
<path d="M547.996 202.158C548.241 201.632 547.724 201.123 547.199 201.36C547.085 201.412 546.998 201.5 546.945 201.614C546.709 202.141 547.217 202.65 547.742 202.413C547.856 202.36 547.943 202.272 547.996 202.158Z" fill="white" fill-opacity="0.1"/>
<path d="M878.749 395.547C878.986 395.021 878.477 394.512 877.95 394.749C877.836 394.801 877.748 394.889 877.695 395.003C877.458 395.53 877.968 396.039 878.494 395.802C878.608 395.749 878.696 395.662 878.749 395.547Z" fill="white" fill-opacity="0.1"/>
<path d="M641.027 194.58C640.781 194.054 641.298 193.545 641.823 193.782C641.937 193.834 642.025 193.922 642.077 194.036C642.313 194.563 641.806 195.072 641.28 194.835C641.167 194.782 641.079 194.695 641.027 194.58Z" fill="white" fill-opacity="0.8"/>
<path d="M925.699 305.809C925.463 305.282 925.971 304.773 926.496 305.01C926.61 305.062 926.697 305.15 926.75 305.264C926.995 305.791 926.478 306.3 925.953 306.063C925.839 306.01 925.752 305.923 925.699 305.809Z" fill="white" fill-opacity="0.1"/>
<path d="M898.062 272.582C897.817 272.056 898.333 271.547 898.858 271.784C898.972 271.836 899.06 271.924 899.112 272.038C899.349 272.565 898.841 273.074 898.316 272.837C898.202 272.784 898.114 272.696 898.062 272.582Z" fill="white" fill-opacity="0.8"/>
<path d="M949.074 357.364C948.838 356.837 949.346 356.328 949.871 356.565C949.985 356.618 950.072 356.706 950.125 356.82C950.37 357.346 949.853 357.856 949.328 357.619C949.214 357.566 949.127 357.478 949.074 357.364Z" fill="white" fill-opacity="0.1"/>
<path d="M1001.96 316.892C1001.44 317.129 1000.93 316.62 1001.16 316.093C1001.22 315.979 1001.3 315.891 1001.42 315.838C1001.95 315.601 1002.45 316.11 1002.22 316.637C1002.16 316.751 1002.08 316.839 1001.96 316.892Z" fill="white" fill-opacity="0.8"/>
<path d="M973.416 279.084C972.889 279.329 972.38 278.812 972.617 278.287C972.67 278.173 972.758 278.086 972.872 278.033C973.399 277.797 973.908 278.305 973.671 278.83C973.618 278.944 973.53 279.031 973.416 279.084Z" fill="white" fill-opacity="0.1"/>
<path d="M513.817 179.642C513.58 179.115 514.089 178.606 514.615 178.843C514.729 178.895 514.817 178.983 514.87 179.097C515.107 179.624 514.598 180.133 514.071 179.896C513.957 179.843 513.869 179.756 513.817 179.642Z" fill="white" fill-opacity="0.1"/>
<path d="M733.351 345.687C733.106 345.162 733.622 344.646 734.147 344.891C734.261 344.943 734.349 345.031 734.401 345.145C734.638 345.67 734.13 346.178 733.605 345.941C733.491 345.889 733.403 345.801 733.351 345.687Z" fill="white" fill-opacity="0.1"/>
<path d="M653.168 225.475C652.931 224.949 653.44 224.439 653.967 224.676C654.081 224.729 654.169 224.817 654.221 224.931C654.458 225.458 653.949 225.967 653.423 225.73C653.309 225.677 653.221 225.589 653.168 225.475Z" fill="white" fill-opacity="0.8"/>
<path d="M591.43 241.3C591.193 240.773 591.701 240.264 592.226 240.501C592.34 240.554 592.428 240.642 592.48 240.756C592.725 241.282 592.209 241.791 591.684 241.554C591.57 241.502 591.482 241.414 591.43 241.3Z" fill="white" fill-opacity="0.1"/>
<path d="M659.945 266.937C659.699 266.411 660.216 265.902 660.741 266.139C660.855 266.191 660.943 266.279 660.995 266.393C661.231 266.92 660.724 267.429 660.198 267.192C660.085 267.139 659.997 267.051 659.945 266.937Z" fill="white" fill-opacity="0.1"/>
<path d="M530.066 262.41C529.83 261.884 530.338 261.377 530.863 261.613C530.977 261.665 531.064 261.753 531.117 261.867C531.362 262.392 530.846 262.909 530.32 262.663C530.206 262.611 530.119 262.523 530.066 262.41Z" fill="white" fill-opacity="0.1"/>
<path d="M750.656 387.35C750.419 386.823 750.929 386.314 751.455 386.551C751.569 386.604 751.657 386.692 751.71 386.806C751.947 387.332 751.438 387.842 750.911 387.605C750.797 387.552 750.709 387.464 750.656 387.35Z" fill="white" fill-opacity="0.1"/>
<path d="M1047.31 247.416C1046.78 247.661 1046.27 247.145 1046.51 246.619C1046.56 246.505 1046.65 246.418 1046.76 246.365C1047.29 246.129 1047.8 246.637 1047.56 247.162C1047.51 247.276 1047.42 247.363 1047.31 247.416Z" fill="white" fill-opacity="0.1"/>
<path d="M501.921 458.284C501.676 457.757 502.193 457.248 502.718 457.485C502.832 457.538 502.919 457.625 502.972 457.739C503.208 458.266 502.7 458.775 502.175 458.538C502.061 458.486 501.974 458.398 501.921 458.284Z" fill="white" fill-opacity="0.1"/>
<path d="M388.152 452.419C387.906 451.893 388.423 451.383 388.948 451.62C389.062 451.673 389.15 451.761 389.202 451.875C389.438 452.402 388.931 452.911 388.405 452.674C388.292 452.621 388.204 452.533 388.152 452.419Z" fill="white" fill-opacity="0.8"/>
<path d="M497.23 414.887C496.985 414.36 497.501 413.851 498.026 414.088C498.14 414.141 498.228 414.229 498.28 414.343C498.517 414.869 498.009 415.379 497.484 415.142C497.37 415.089 497.282 415.001 497.23 414.887Z" fill="white" fill-opacity="0.1"/>
<path d="M495.909 318.791C495.664 318.264 496.181 317.755 496.706 317.992C496.82 318.044 496.907 318.132 496.96 318.246C497.196 318.773 496.689 319.282 496.163 319.045C496.049 318.992 495.962 318.905 495.909 318.791Z" fill="white" fill-opacity="0.1"/>
<path d="M416.926 389.546C416.689 389.019 417.198 388.51 417.725 388.747C417.839 388.799 417.927 388.887 417.979 389.001C418.216 389.528 417.707 390.037 417.181 389.8C417.066 389.747 416.979 389.66 416.926 389.546Z" fill="white" fill-opacity="0.1"/>
<path d="M841.936 50.1197C842.173 49.5931 841.665 49.084 841.14 49.321C841.026 49.3736 840.938 49.4614 840.886 49.5755C840.641 50.1022 841.157 50.6113 841.683 50.3743C841.796 50.3216 841.884 50.2339 841.936 50.1197Z" fill="white" fill-opacity="0.1"/>
<path d="M806.749 154.506C806.985 153.98 806.478 153.471 805.952 153.708C805.839 153.76 805.751 153.848 805.698 153.962C805.453 154.489 805.97 154.998 806.495 154.761C806.609 154.708 806.696 154.621 806.749 154.506Z" fill="white" fill-opacity="0.8"/>
<path d="M695.445 99.3534C695.209 98.8267 695.717 98.3176 696.242 98.5546C696.356 98.6073 696.443 98.6951 696.496 98.8092C696.741 99.3358 696.224 99.8449 695.699 99.6079C695.585 99.5553 695.498 99.4675 695.445 99.3534Z" fill="white" fill-opacity="0.1"/>
<path d="M791.067 103.834C790.83 103.307 791.339 102.798 791.865 103.035C791.979 103.088 792.067 103.176 792.12 103.29C792.357 103.817 791.848 104.326 791.321 104.089C791.207 104.036 791.119 103.948 791.067 103.834Z" fill="white" fill-opacity="0.1"/>
<path d="M849.097 136.913C848.852 136.387 849.368 135.877 849.894 136.114C850.007 136.167 850.095 136.255 850.147 136.369C850.384 136.896 849.876 137.405 849.351 137.168C849.237 137.115 849.149 137.027 849.097 136.913Z" fill="white" fill-opacity="0.1"/>
<path d="M735.327 131.049C735.082 130.522 735.599 130.013 736.124 130.25C736.238 130.303 736.325 130.39 736.378 130.504C736.614 131.031 736.106 131.54 735.581 131.303C735.467 131.251 735.38 131.163 735.327 131.049Z" fill="white" fill-opacity="0.8"/>
<path d="M844.405 93.5165C844.16 92.9898 844.677 92.4807 845.202 92.7177C845.316 92.7704 845.403 92.8581 845.456 92.9723C845.692 93.4989 845.185 94.008 844.659 93.771C844.546 93.7184 844.458 93.6306 844.405 93.5165Z" fill="white" fill-opacity="0.1"/>
<path d="M764.098 68.1752C763.861 67.6485 764.37 67.1394 764.897 67.3764C765.011 67.4291 765.098 67.5168 765.151 67.631C765.388 68.1576 764.879 68.6667 764.352 68.4297C764.238 68.3771 764.151 68.2893 764.098 68.1752Z" fill="white" fill-opacity="0.1"/>
<path d="M227.774 368.597C227.537 368.07 228.046 367.561 228.572 367.798C228.686 367.851 228.774 367.939 228.827 368.053C229.064 368.579 228.555 369.088 228.028 368.851C227.914 368.799 227.826 368.711 227.774 368.597Z" fill="white" fill-opacity="0.8"/>
<path d="M376.168 32.5047C375.932 31.9794 376.439 31.4717 376.965 31.708C377.078 31.7606 377.166 31.8481 377.218 31.9619C377.464 32.4872 376.947 33.0037 376.422 32.7585C376.308 32.706 376.221 32.6185 376.168 32.5047Z" fill="white" fill-opacity="0.1"/>
<path d="M444.452 65.3672C444.207 64.8405 444.724 64.3314 445.249 64.5684C445.363 64.6211 445.45 64.7089 445.503 64.823C445.739 65.3496 445.231 65.8587 444.706 65.6217C444.592 65.5691 444.505 65.4813 444.452 65.3672Z" fill="white" fill-opacity="0.1"/>
<path d="M204.927 166.806C204.939 166.78 204.913 166.754 204.887 166.766C204.881 166.769 204.876 166.773 204.874 166.779C204.862 166.806 204.887 166.831 204.914 166.819C204.92 166.817 204.924 166.812 204.927 166.806Z" fill="white" fill-opacity="0.1"/>
<path d="M201.591 163.504C201.603 163.477 201.577 163.452 201.551 163.464C201.545 163.466 201.541 163.471 201.538 163.477C201.526 163.503 201.551 163.529 201.578 163.517C201.584 163.514 201.588 163.51 201.591 163.504Z" fill="white" fill-opacity="0.1"/>
<path d="M191.817 176.692C191.829 176.666 191.804 176.64 191.777 176.652C191.771 176.655 191.767 176.659 191.764 176.665C191.753 176.691 191.778 176.717 191.805 176.705C191.81 176.702 191.815 176.698 191.817 176.692Z" fill="white" fill-opacity="0.8"/>
<path d="M195.325 175.523C195.337 175.497 195.311 175.471 195.285 175.483C195.279 175.486 195.275 175.49 195.272 175.496C195.26 175.522 195.286 175.548 195.312 175.536C195.318 175.533 195.322 175.529 195.325 175.523Z" fill="white" fill-opacity="0.1"/>
<path d="M195.817 168.685C195.829 168.658 195.804 168.633 195.777 168.645C195.771 168.647 195.767 168.652 195.764 168.658C195.753 168.684 195.778 168.71 195.805 168.698C195.81 168.695 195.815 168.691 195.817 168.685Z" fill="white" fill-opacity="0.1"/>
<path d="M195.407 171.805C195.419 171.779 195.394 171.753 195.367 171.765C195.361 171.768 195.357 171.772 195.354 171.778C195.342 171.805 195.368 171.83 195.394 171.818C195.4 171.816 195.405 171.811 195.407 171.805Z" fill="white" fill-opacity="0.1"/>
<path d="M198.899 168.933C198.925 168.945 198.951 168.92 198.939 168.893C198.936 168.888 198.932 168.883 198.926 168.881C198.899 168.868 198.874 168.894 198.886 168.921C198.888 168.926 198.893 168.931 198.899 168.933Z" fill="white" fill-opacity="0.8"/>
<path d="M191.696 160.795C191.708 160.769 191.683 160.744 191.656 160.755C191.651 160.758 191.646 160.762 191.643 160.768C191.631 160.795 191.657 160.82 191.683 160.808C191.689 160.805 191.694 160.801 191.696 160.795Z" fill="white" fill-opacity="0.1"/>
<path d="M194.473 163.042C194.486 163.015 194.46 162.99 194.433 163.002C194.428 163.004 194.423 163.009 194.421 163.014C194.409 163.041 194.434 163.066 194.461 163.054C194.466 163.052 194.471 163.047 194.473 163.042Z" fill="white" fill-opacity="0.8"/>
<path d="M194.72 165.868C194.732 165.842 194.706 165.817 194.68 165.828C194.674 165.831 194.669 165.835 194.667 165.841C194.655 165.868 194.68 165.893 194.707 165.881C194.713 165.879 194.717 165.874 194.72 165.868Z" fill="white" fill-opacity="0.1"/>
<path d="M196.763 173.984C196.774 173.957 196.749 173.932 196.723 173.944C196.717 173.946 196.713 173.951 196.71 173.957C196.698 173.983 196.724 174.009 196.75 173.997C196.756 173.994 196.76 173.99 196.763 173.984Z" fill="white" fill-opacity="0.1"/>
<path d="M201.296 176.343C201.284 176.316 201.309 176.291 201.336 176.303C201.341 176.305 201.346 176.31 201.348 176.315C201.361 176.342 201.335 176.367 201.308 176.355C201.303 176.353 201.298 176.348 201.296 176.343Z" fill="white" fill-opacity="0.1"/>
<path d="M197.957 166.761C197.984 166.749 198.009 166.775 197.997 166.801C197.995 166.807 197.99 166.811 197.985 166.814C197.958 166.826 197.933 166.8 197.944 166.774C197.947 166.768 197.951 166.764 197.957 166.761Z" fill="white" fill-opacity="0.1"/>
<path d="M192.706 175.647C192.694 175.62 192.719 175.595 192.746 175.607C192.752 175.609 192.756 175.614 192.759 175.619C192.771 175.646 192.745 175.671 192.719 175.659C192.713 175.657 192.708 175.652 192.706 175.647Z" fill="white" fill-opacity="0.1"/>
<path d="M189.819 173.101C189.807 173.074 189.833 173.048 189.859 173.061C189.865 173.063 189.869 173.068 189.872 173.073C189.884 173.1 189.858 173.125 189.832 173.113C189.826 173.111 189.822 173.106 189.819 173.101Z" fill="white" fill-opacity="0.1"/>
<path d="M191.882 171.889C191.869 171.863 191.895 171.837 191.922 171.849C191.927 171.852 191.932 171.856 191.935 171.862C191.946 171.888 191.921 171.914 191.895 171.902C191.889 171.899 191.884 171.895 191.882 171.889Z" fill="white" fill-opacity="0.8"/>
<path d="M202.194 173.227C202.182 173.201 202.208 173.175 202.234 173.187C202.24 173.19 202.244 173.194 202.247 173.2C202.259 173.226 202.233 173.252 202.207 173.24C202.201 173.237 202.197 173.233 202.194 173.227Z" fill="white" fill-opacity="0.1"/>
<path d="M187.346 166.919C187.335 166.892 187.36 166.867 187.386 166.879C187.392 166.881 187.397 166.886 187.399 166.891C187.411 166.918 187.386 166.943 187.359 166.931C187.353 166.929 187.349 166.924 187.346 166.919Z" fill="white" fill-opacity="0.1"/>
<path d="M198.374 172.33C198.362 172.303 198.387 172.278 198.414 172.29C198.42 172.292 198.424 172.297 198.427 172.303C198.439 172.329 198.413 172.355 198.387 172.343C198.381 172.34 198.376 172.336 198.374 172.33Z" fill="white" fill-opacity="0.1"/>
<path d="M201.831 165.27C201.819 165.244 201.844 165.218 201.871 165.23C201.877 165.233 201.881 165.237 201.884 165.243C201.896 165.269 201.87 165.295 201.844 165.283C201.838 165.28 201.833 165.276 201.831 165.27Z" fill="white" fill-opacity="0.1"/>
<path d="M198.112 176.737C198.1 176.71 198.126 176.685 198.152 176.697C198.158 176.699 198.162 176.704 198.165 176.709C198.177 176.736 198.151 176.761 198.125 176.749C198.119 176.747 198.115 176.742 198.112 176.737Z" fill="white" fill-opacity="0.1"/>
<path d="M199.417 174.69C199.405 174.664 199.431 174.638 199.457 174.65C199.463 174.653 199.467 174.657 199.47 174.663C199.482 174.69 199.456 174.715 199.43 174.703C199.424 174.701 199.42 174.696 199.417 174.69Z" fill="white" fill-opacity="0.1"/>
<path d="M204.37 176.407C204.358 176.38 204.384 176.355 204.41 176.366C204.416 176.369 204.42 176.374 204.423 176.379C204.435 176.406 204.409 176.431 204.383 176.419C204.377 176.417 204.373 176.412 204.37 176.407Z" fill="white" fill-opacity="0.1"/>
<path d="M190.878 164.858C190.866 164.832 190.891 164.806 190.918 164.818C190.924 164.821 190.928 164.825 190.931 164.831C190.942 164.857 190.917 164.883 190.89 164.871C190.885 164.868 190.88 164.864 190.878 164.858Z" fill="white" fill-opacity="0.1"/>
<path d="M198.854 160.821C198.842 160.794 198.868 160.769 198.894 160.781C198.9 160.783 198.905 160.788 198.907 160.793C198.919 160.82 198.893 160.845 198.867 160.834C198.861 160.831 198.857 160.826 198.854 160.821Z" fill="white" fill-opacity="0.1"/>
<path d="M198.827 163.151C198.815 163.124 198.841 163.099 198.867 163.111C198.873 163.113 198.877 163.118 198.88 163.123C198.892 163.15 198.866 163.175 198.84 163.163C198.834 163.161 198.83 163.156 198.827 163.151Z" fill="white" fill-opacity="0.1"/>
<path d="M193.471 168.803C193.46 168.776 193.485 168.751 193.512 168.763C193.517 168.765 193.522 168.77 193.524 168.775C193.536 168.802 193.511 168.827 193.484 168.815C193.479 168.813 193.474 168.808 193.471 168.803Z" fill="white" fill-opacity="0.1"/>
<path d="M190.393 168.063C190.381 168.037 190.407 168.011 190.433 168.023C190.439 168.026 190.443 168.03 190.446 168.036C190.458 168.062 190.432 168.088 190.406 168.076C190.4 168.073 190.396 168.069 190.393 168.063Z" fill="white" fill-opacity="0.1"/>
</svg>
